<?xml version="1.0" standalone="no"?>
<!DOCTYPE svg PUBLIC "-//W3C//DTD SVG 20010904//EN"
 "http://www.w3.org/TR/2001/REC-SVG-20010904/DTD/svg10.dtd">
<svg version="1.0" xmlns="http://www.w3.org/2000/svg"
 width="1280.000000pt" height="798.000000pt" viewBox="0 0 1280.000000 798.000000"
 preserveAspectRatio="xMidYMid meet">
<metadata>
Created by potrace 1.15, written by Peter Selinger 2001-2017
</metadata>
<g transform="translate(0.000000,798.000000) scale(0.100000,-0.100000)"
fill="#000000" stroke="none">
<path d="M3205 7940 c-93 -20 -280 -61 -415 -89 -135 -28 -288 -61 -340 -72
-52 -11 -137 -29 -187 -40 -51 -10 -136 -28 -188 -39 -52 -11 -138 -29 -190
-40 -52 -11 -138 -29 -190 -40 -529 -111 -517 -108 -563 -140 -51 -36 -62 -38
-36 -7 10 12 -3 2 -29 -23 -26 -24 -47 -48 -47 -53 0 -5 9 1 20 14 10 13 19
19 20 14 0 -6 -4 -15 -9 -20 -11 -11 -40 -86 -113 -290 -46 -131 -89 -254
-319 -917 -119 -345 -233 -680 -445 -1313 l-175 -520 3 -90 c2 -49 7 -88 12
-86 4 2 27 -15 50 -37 22 -22 93 -75 156 -117 63 -42 115 -80 115 -85 0 -4 4
-12 9 -17 5 -5 6 -2 1 6 -5 9 -3 12 6 9 8 -3 14 -10 14 -15 0 -6 4 -15 9 -20
5 -5 6 -3 2 5 -4 6 -4 12 -1 12 17 0 384 -233 380 -240 -3 -5 0 -12 6 -16 8
-4 9 -3 5 4 -4 7 -4 12 -1 12 17 0 225 -132 220 -140 -3 -5 0 -12 6 -16 8 -4
9 -3 5 4 -4 7 -4 12 -1 12 16 0 1154 -693 1150 -700 -3 -5 0 -12 6 -16 8 -4 9
-3 5 4 -4 7 -4 12 -1 12 4 0 75 -40 158 -88 84 -49 178 -104 211 -122 l59 -33
114 7 c63 3 181 13 261 21 81 8 287 28 457 45 171 16 353 34 405 40 52 6 226
24 385 40 629 65 737 80 785 103 25 12 49 20 53 19 5 -1 6 2 3 7 -7 10 18 34
26 25 6 -6 48 49 48 63 0 4 -10 -7 -21 -25 -32 -50 -31 -34 1 33 16 33 46 114
66 180 19 66 65 217 101 335 36 118 82 271 103 340 21 69 68 224 105 345 36
121 89 294 117 385 316 1038 424 1419 435 1526 5 44 1 61 -21 103 -29 56 -31
66 -14 55 7 -5 8 -3 4 5 -5 7 -10 10 -13 7 -7 -7 -98 73 -98 86 0 6 -28 31
-62 55 -35 25 -63 42 -63 40 0 -3 27 -25 60 -48 33 -23 58 -44 56 -46 -7 -8
-166 108 -161 117 3 4 -3 14 -13 21 -15 13 -16 12 -3 -3 8 -11 9 -18 3 -18
-11 0 -27 19 -27 32 0 3 -4 10 -9 15 -5 5 -6 3 -2 -4 11 -20 -2 -15 -50 18
-24 16 -42 34 -39 39 3 5 -9 18 -27 30 l-33 22 30 -26 c36 -31 25 -34 -16 -5
-16 11 -27 24 -24 29 3 5 -9 18 -27 30 l-33 22 30 -26 c55 -47 14 -27 -81 40
-51 37 -91 70 -89 74 3 4 -3 14 -13 21 -15 13 -16 12 -3 -3 7 -10 10 -18 6
-18 -14 0 -194 133 -190 140 3 4 -3 14 -13 21 -15 13 -16 12 -3 -3 18 -24 6
-23 -30 3 -16 11 -27 24 -24 29 3 4 -16 23 -42 42 -58 42 -73 50 -73 45 0 -3
25 -22 55 -42 30 -21 53 -40 51 -43 -8 -7 -126 80 -121 89 3 4 -9 17 -27 29
l-33 22 30 -26 c36 -31 25 -34 -16 -5 -16 11 -27 24 -24 29 3 5 -9 18 -27 30
l-33 22 30 -26 c17 -14 26 -26 22 -26 -16 0 -127 83 -122 91 3 4 -9 17 -27 29
l-33 22 30 -26 c36 -31 25 -34 -16 -5 -16 11 -27 24 -24 29 3 5 -15 23 -40 40
-25 17 -45 29 -45 26 0 -3 18 -18 40 -32 22 -15 38 -29 36 -31 -8 -8 -97 58
-91 67 3 5 0 12 -6 16 -8 5 -9 3 -4 -6 5 -8 3 -11 -6 -8 -8 3 -13 10 -12 16 1
5 -5 16 -15 24 -15 12 -16 11 -3 -4 7 -10 10 -18 7 -18 -16 0 -195 132 -193
141 1 6 -9 18 -23 26 l-25 15 25 -21 c14 -11 21 -21 15 -20 -16 0 -50 29 -50
42 0 6 -28 31 -62 55 -35 24 -63 41 -63 38 0 -3 27 -24 61 -47 33 -22 58 -43
56 -46 -8 -8 -168 108 -162 117 3 5 0 12 -6 16 -8 5 -9 3 -4 -6 5 -8 3 -11 -6
-8 -8 3 -13 10 -12 16 2 6 -12 21 -30 32 l-32 22 30 -26 c17 -14 26 -26 22
-26 -16 0 -67 41 -62 50 3 4 -3 14 -13 21 -15 13 -16 12 -3 -3 7 -10 10 -18 7
-18 -16 0 -156 102 -151 110 3 5 0 12 -6 16 -8 5 -9 3 -4 -6 5 -8 3 -11 -6 -8
-8 3 -14 10 -14 16 0 5 -4 14 -9 19 -5 5 -6 3 -2 -4 10 -17 0 -16 -29 3 -14 9
-22 20 -20 25 3 4 -29 32 -71 62 l-76 53 -101 1 c-83 1 -133 -6 -272 -37z
m-317 -390 c49 -30 65 -78 60 -175 -9 -148 -99 -308 -239 -423 -92 -75 -187
-101 -254 -70 -67 30 -85 164 -40 291 53 153 175 301 298 362 80 40 127 44
175 15z m-1409 -285 c46 -23 65 -76 58 -164 -10 -131 -89 -284 -203 -392 -73
-69 -130 -99 -200 -106 -52 -6 -55 -4 -88 31 -41 43 -53 96 -38 177 23 124 90
249 185 344 110 109 212 149 286 110z m2994 -1515 c94 -69 156 -191 164 -327
19 -287 -161 -473 -364 -376 -48 22 -111 87 -141 144 -17 32 -18 38 -5 21 l18
-22 75 157 c41 87 101 214 133 283 32 69 64 128 70 132 8 5 8 8 1 8 -5 0 -19
7 -30 15 -37 29 36 -3 79 -35z m-2223 -149 c127 -88 43 -409 -154 -589 -105
-96 -222 -132 -282 -86 -59 43 -69 68 -68 162 0 69 6 101 27 154 34 89 87 170
155 241 129 133 241 174 322 118z m-1413 -227 c54 -34 74 -130 49 -238 -45
-192 -220 -399 -367 -436 -96 -24 -159 35 -159 150 0 211 172 469 354 532 53
18 85 15 123 -8z"/>
<path d="M10149 6108 c-106 -13 -279 -61 -1134 -312 -1225 -359 -1563 -460
-1619 -487 -22 -10 -42 -17 -44 -14 -3 2 19 16 49 30 30 14 47 25 39 25 -19 0
-97 -44 -90 -51 3 -3 -14 -27 -37 -53 -26 -30 -49 -68 -58 -100 -14 -47 -68
-321 -145 -736 -17 -91 -35 -185 -40 -210 -5 -25 -23 -118 -40 -207 -16 -90
-43 -234 -60 -320 -16 -87 -41 -221 -55 -298 -32 -171 -95 -512 -129 -695 -49
-261 -86 -485 -86 -519 0 -68 23 -114 95 -191 38 -41 56 -64 40 -50 -17 13 -5
-1 25 -33 30 -31 56 -57 59 -57 3 0 -10 16 -29 35 -19 19 -29 35 -24 35 5 0
30 -21 54 -47 25 -26 36 -41 25 -33 -11 8 -4 -3 14 -23 19 -20 37 -37 40 -37
2 0 -6 11 -19 25 -13 14 -19 25 -14 25 13 0 66 -55 59 -61 -3 -3 10 -19 28
-35 31 -28 31 -28 8 -2 -37 42 -10 33 30 -9 18 -20 25 -31 14 -23 -11 8 -4 -3
14 -23 19 -20 39 -37 44 -37 5 0 -2 10 -17 21 -15 12 -25 24 -21 27 7 7 66
-49 60 -58 -2 -4 10 -20 28 -36 31 -29 32 -29 8 -2 -14 16 -20 28 -14 28 12 0
55 -45 48 -51 -3 -3 10 -19 28 -35 31 -28 31 -28 8 -2 -14 16 -20 28 -15 28
14 0 66 -55 59 -62 -3 -3 41 -45 97 -94 57 -48 92 -76 79 -61 -14 15 -20 27
-15 27 6 0 26 -17 45 -37 18 -20 26 -31 17 -24 -29 22 -20 7 14 -25 18 -16 24
-19 14 -6 -30 34 -3 26 30 -10 16 -18 20 -26 9 -18 -11 8 -4 -3 14 -23 19 -20
37 -37 40 -37 2 0 -6 11 -19 25 -13 14 -19 25 -13 25 12 0 55 -45 48 -52 -3
-2 7 -15 22 -29 25 -22 26 -22 9 -1 -30 34 -3 26 30 -10 16 -18 20 -26 9 -18
-11 8 -4 -3 14 -23 19 -20 37 -37 40 -37 2 0 -6 11 -19 25 -13 14 -19 25 -13
25 12 0 55 -45 48 -52 -3 -2 7 -15 22 -29 25 -22 26 -22 9 -1 -11 12 -15 22
-9 22 12 0 55 -45 48 -51 -3 -3 10 -19 28 -35 31 -28 31 -28 8 -1 -14 15 -20
27 -14 27 12 0 55 -45 48 -52 -3 -2 7 -15 22 -29 25 -22 26 -22 9 -1 -30 34
-3 26 30 -10 16 -18 20 -26 9 -18 -11 8 -4 -3 14 -23 19 -20 37 -37 40 -37 2
0 -6 11 -19 25 -13 14 -19 25 -13 25 12 0 55 -45 48 -52 -3 -2 7 -15 22 -29
25 -22 26 -22 9 -1 -30 34 -3 26 30 -10 16 -18 20 -26 9 -18 -11 8 -4 -3 14
-23 19 -20 37 -37 40 -37 2 0 -6 11 -19 25 -13 14 -19 25 -13 25 12 0 55 -45
48 -52 -3 -2 7 -15 22 -29 25 -22 26 -22 9 -1 -30 34 -3 26 30 -10 16 -18 20
-26 9 -18 -11 8 -7 0 9 -18 17 -18 32 -32 34 -32 3 0 -3 9 -13 20 -10 11 -14
20 -8 20 12 0 55 -45 48 -52 -3 -2 7 -15 22 -29 25 -22 26 -22 9 -1 -30 34 -3
26 30 -10 16 -18 20 -26 9 -18 -11 8 -7 0 9 -18 17 -18 32 -32 34 -32 3 0 -3
9 -13 20 -10 11 -14 20 -8 20 12 0 55 -45 48 -52 -3 -2 7 -15 22 -29 25 -22
26 -22 9 -1 -11 12 -15 22 -9 22 13 0 45 -35 38 -42 -3 -3 25 -32 62 -64 38
-32 59 -48 49 -36 -11 12 -15 22 -9 22 13 0 42 -32 41 -45 0 -5 24 -30 54 -54
l53 -43 -50 46 c-27 25 -45 46 -40 46 6 0 37 -26 70 -56 33 -31 51 -50 40 -43
-12 8 -8 0 9 -19 17 -18 32 -32 34 -32 3 0 -3 9 -13 20 -10 11 -14 20 -8 20
13 0 55 -45 48 -52 -3 -3 18 -25 47 -49 29 -24 44 -33 34 -21 -11 12 -15 22
-9 22 12 0 49 -40 45 -48 -2 -4 2 -8 10 -10 9 -2 8 0 -2 7 -13 9 -13 11 2 11
9 0 20 -5 23 -10 7 -12 205 -12 205 -1 0 4 26 15 58 25 31 10 122 42 202 72
359 132 1054 390 1250 464 118 45 334 127 480 182 146 55 351 134 455 175 105
41 196 78 204 81 10 4 12 1 6 -9 -5 -8 1 -6 13 5 12 10 19 22 17 26 -6 9 20
32 27 25 3 -3 13 5 24 17 19 22 19 22 0 8 -18 -14 -19 -13 -11 5 38 90 61 173
345 1250 109 412 332 1271 380 1465 54 216 61 254 57 320 -2 41 -7 86 -11 100
-6 20 -5 22 4 10 10 -13 11 -13 7 0 -2 8 -9 14 -15 13 -6 -2 -16 6 -22 17 -6
11 -8 20 -4 20 3 0 1 7 -6 15 -7 8 -16 13 -20 10 -10 -6 -61 35 -55 44 2 5 -5
17 -18 27 -18 16 -19 16 -8 2 7 -10 9 -18 3 -18 -12 0 -34 25 -27 32 3 3 -5
13 -17 24 l-23 19 19 -22 c11 -13 15 -23 9 -23 -12 0 -50 40 -45 47 2 3 0 8
-4 11 -4 4 -4 1 1 -7 5 -9 3 -12 -6 -9 -8 3 -14 10 -14 18 0 7 -16 24 -34 39
-19 14 -32 20 -27 14 13 -22 -3 -14 -59 28 -51 38 -73 61 -42 43 6 -4 3 2 -7
14 -21 25 -36 31 -16 7 7 -8 8 -15 2 -15 -12 0 -34 25 -27 32 3 3 -11 17 -32
32 l-38 27 35 -30 c19 -17 31 -31 26 -31 -13 0 -75 52 -73 61 1 5 -19 26 -45
45 -27 20 -48 34 -48 31 0 -3 20 -20 45 -38 25 -18 43 -34 41 -36 -7 -7 -106
68 -103 78 1 6 -14 22 -33 36 l-35 25 35 -31 c19 -17 31 -31 26 -31 -14 0 -76
52 -71 60 3 5 0 12 -6 16 -8 5 -9 3 -4 -6 5 -8 3 -11 -6 -8 -8 3 -14 10 -14
18 0 7 -16 24 -35 38 l-35 25 35 -31 c19 -18 31 -32 27 -32 -14 0 -76 51 -74
62 1 5 -14 21 -33 35 l-35 26 35 -31 c19 -18 31 -32 27 -32 -14 0 -77 51 -74
61 1 5 -19 26 -45 45 -27 20 -48 34 -48 31 0 -3 20 -20 45 -38 25 -18 43 -34
40 -37 -7 -7 -105 68 -102 79 1 6 -14 22 -33 36 l-35 25 35 -31 c19 -17 31
-31 26 -31 -14 0 -76 52 -71 60 3 5 0 12 -6 16 -8 5 -9 3 -4 -6 5 -8 3 -11 -6
-8 -8 3 -14 10 -14 18 0 7 -16 24 -35 38 l-35 25 35 -31 c19 -18 31 -32 27
-32 -15 0 -76 52 -74 62 1 6 -19 26 -45 45 -27 19 -48 32 -48 29 0 -3 21 -19
46 -36 25 -18 43 -34 41 -37 -8 -7 -107 67 -104 78 1 6 -14 22 -33 36 l-35 25
35 -31 c19 -17 31 -31 27 -31 -15 0 -106 72 -104 82 1 6 -19 26 -45 45 -27 19
-48 32 -48 29 0 -3 21 -19 46 -36 25 -18 43 -34 41 -37 -8 -7 -107 67 -104 78
1 6 -14 22 -33 36 l-35 25 35 -31 c19 -17 31 -31 27 -31 -15 0 -106 72 -104
82 1 6 -19 26 -45 45 -27 19 -48 32 -48 29 0 -3 21 -19 46 -36 25 -18 43 -34
41 -37 -8 -7 -107 67 -104 78 1 6 -14 22 -33 36 l-35 25 35 -31 c19 -17 31
-31 27 -31 -15 0 -106 72 -104 82 1 6 -19 26 -45 45 -27 19 -48 32 -48 29 0
-3 21 -19 46 -36 25 -18 43 -34 41 -37 -8 -7 -107 67 -104 78 1 6 -14 22 -33
36 l-35 25 35 -31 c19 -17 31 -31 27 -31 -15 0 -106 72 -104 82 1 6 -19 26
-45 45 -27 19 -48 32 -48 29 0 -3 21 -19 46 -36 25 -18 43 -34 41 -37 -8 -7
-108 68 -102 77 3 5 -50 48 -117 96 -68 48 -129 92 -135 97 -7 5 -13 7 -13 4
0 -3 59 -47 130 -98 72 -51 128 -94 126 -96 -2 -3 -71 43 -152 101 -82 57
-164 109 -184 113 -19 5 -60 6 -91 1z m-9 -258 c95 -12 161 -31 235 -68 119
-59 195 -141 195 -210 0 -38 -46 -87 -110 -116 -63 -28 -220 -34 -331 -11
-199 40 -359 156 -359 261 0 85 99 142 265 153 11 0 59 -4 105 -9z m-1540
-530 c169 -57 280 -158 280 -256 0 -64 -81 -124 -197 -145 -70 -13 -211 -5
-296 17 -171 44 -327 165 -327 253 0 54 58 116 136 146 62 24 318 14 404 -15z
m2357 -29 c115 -24 207 -67 276 -131 95 -87 109 -155 44 -218 -45 -44 -106
-63 -218 -69 -123 -7 -237 15 -344 67 -129 62 -205 140 -205 210 0 132 194
193 447 141z m-1642 -532 c95 -29 178 -72 232 -122 54 -49 73 -89 73 -151 0
-40 -4 -48 -41 -80 -65 -55 -124 -71 -259 -70 -137 1 -221 20 -327 71 -139 68
-219 170 -194 246 42 127 283 177 516 106z m2445 -39 c213 -60 363 -205 320
-309 -16 -39 -70 -80 -128 -97 -65 -20 -241 -19 -327 0 -141 33 -302 133 -339
210 -23 48 -21 107 5 140 24 30 80 62 136 76 60 15 248 3 333 -20z m-4358
-266 c-7 -13 13 -31 112 -98 67 -45 145 -98 174 -119 154 -109 152 -108 153
-90 1 35 16 -19 23 -84 19 -175 -68 -333 -185 -333 -123 0 -272 169 -324 365
-31 119 -17 277 32 352 17 26 29 31 15 7z m2648 -270 c137 -32 279 -124 319
-207 41 -85 16 -150 -79 -202 -54 -30 -57 -30 -200 -30 -217 1 -342 42 -460
152 -85 78 -103 159 -50 226 27 33 103 70 165 79 71 9 228 1 305 -18z m-1180
-899 c-6 -8 -9 -19 -6 -24 4 -6 105 -76 226 -156 121 -80 223 -151 226 -157 5
-8 10 -5 14 8 12 34 33 -122 25 -190 -8 -72 -43 -151 -85 -191 -27 -26 -39
-30 -103 -33 -67 -3 -76 -1 -127 30 -96 58 -189 196 -225 333 -19 74 -20 227
-1 288 13 43 51 107 63 107 3 0 0 -7 -7 -15z m-940 -365 c-8 -14 -8 -20 1 -20
10 0 115 -69 146 -95 6 -5 48 -35 93 -65 45 -30 107 -74 138 -97 55 -40 57
-41 63 -20 10 38 24 -68 23 -173 -2 -112 -16 -151 -73 -203 -46 -41 -77 -52
-126 -44 -127 21 -255 166 -304 347 -36 128 -25 292 23 365 20 30 31 33 16 5z
m-884 -325 c-7 -19 -12 -14 174 -145 85 -60 174 -122 197 -139 50 -37 52 -37
47 -8 -4 20 -3 20 7 -3 6 -14 14 -71 16 -126 4 -80 2 -112 -12 -154 -55 -167
-203 -180 -338 -31 -144 161 -197 434 -114 584 21 37 34 50 23 22z m1408
-1220 c-4 -8 -2 -15 3 -15 11 0 407 -261 435 -287 17 -15 18 -15 19 3 0 10 7
-3 15 -31 10 -33 13 -79 11 -135 -11 -219 -151 -306 -316 -197 -86 57 -174
204 -207 344 -28 120 -16 268 27 320 15 17 20 17 13 -2z"/>
</g>
</svg>
