<?xml version="1.0" standalone="no"?>
<!DOCTYPE svg PUBLIC "-//W3C//DTD SVG 20010904//EN"
 "http://www.w3.org/TR/2001/REC-SVG-20010904/DTD/svg10.dtd">
<svg version="1.0" xmlns="http://www.w3.org/2000/svg"
 width="640.000000pt" height="1280.000000pt" viewBox="0 0 640.000000 1280.000000"
 preserveAspectRatio="xMidYMid meet">
<metadata>
Created by potrace 1.15, written by Peter Selinger 2001-2017
</metadata>
<g transform="translate(0.000000,1280.000000) scale(0.100000,-0.100000)"
fill="#000000" stroke="none">
<path d="M601 12774 c-46 -14 -115 -40 -153 -59 -76 -38 -83 -41 -72 -23 4 7
3 8 -5 4 -6 -4 -9 -11 -6 -16 3 -5 -8 -18 -24 -29 -41 -30 -52 -26 -16 5 l30
26 -33 -23 c-19 -13 -33 -28 -33 -34 1 -14 -111 -125 -120 -119 -4 2 -17 -10
-29 -28 l-22 -33 26 30 c14 17 26 26 26 20 -1 -16 -38 -60 -51 -60 -12 0 -79
-111 -79 -130 1 -5 17 20 37 58 47 89 55 79 9 -12 -20 -38 -47 -109 -61 -157
l-25 -86 0 -5708 0 -5708 25 -86 c14 -48 41 -119 61 -157 46 -91 38 -101 -9
-12 -20 38 -36 64 -37 58 0 -19 67 -130 79 -130 13 0 50 -44 51 -60 0 -5 -12
4 -26 20 l-26 30 22 -33 c12 -18 25 -30 29 -28 9 6 128 -112 121 -121 -3 -3
11 -17 30 -30 l35 -25 -30 26 c-36 31 -25 35 16 5 16 -11 27 -24 24 -29 -3 -5
0 -12 6 -16 8 -4 9 -3 5 4 -11 18 -4 15 72 -23 38 -19 108 -46 156 -60 l88
-25 2508 0 2508 0 88 25 c48 14 118 41 156 60 76 38 83 41 72 23 -4 -7 -3 -8
5 -4 6 4 9 11 6 16 -3 5 8 18 24 29 41 30 52 26 16 -5 l-30 -26 33 23 c19 13
33 29 33 34 -1 14 111 125 120 119 4 -2 17 10 29 28 l22 33 -26 -30 c-14 -16
-26 -25 -26 -20 1 16 38 60 51 60 12 0 79 111 79 130 -1 6 -17 -20 -37 -58
-47 -89 -55 -79 -9 12 20 38 47 109 61 157 l25 86 0 5708 0 5708 -25 86 c-14
48 -41 119 -61 157 -46 91 -38 101 9 12 20 -38 36 -63 37 -58 0 19 -67 130
-79 130 -13 0 -50 44 -51 60 0 6 12 -3 26 -20 l26 -30 -22 33 c-12 18 -25 30
-29 28 -9 -6 -128 112 -121 121 3 3 -11 17 -30 30 l-35 25 30 -26 c36 -31 25
-35 -16 -5 -16 11 -27 24 -24 29 3 5 0 12 -6 16 -8 4 -9 3 -5 -4 11 -18 4 -15
-72 23 -38 19 -108 46 -156 60 l-88 25 -2512 -1 -2511 0 -84 -25z m5131 -351
c146 -56 245 -157 294 -303 18 -54 19 -209 19 -5720 0 -5511 -1 -5666 -19
-5720 -49 -146 -148 -247 -294 -303 l-57 -22 -2475 0 -2475 0 -57 22 c-146 56
-245 157 -294 303 -18 54 -19 209 -19 5720 0 5511 1 5666 19 5720 58 171 185
283 361 320 22 4 1143 7 2490 6 l2450 -1 57 -22z"/>
<path d="M1300 11950 c-133 -25 -243 -83 -340 -180 -254 -253 -254 -647 0
-900 81 -81 151 -124 265 -162 99 -33 259 -33 365 0 312 97 507 414 446 727
-57 294 -305 509 -601 520 -49 2 -110 0 -135 -5z"/>
<path d="M4865 11946 c-136 -32 -245 -92 -338 -189 -74 -76 -141 -210 -163
-322 -61 -313 134 -630 446 -727 106 -33 266 -33 365 0 114 38 184 81 265 162
254 253 254 647 0 900 -119 119 -251 177 -420 185 -61 3 -116 0 -155 -9z"/>
<path d="M3115 10110 c-362 -50 -616 -406 -541 -760 26 -125 86 -232 180 -325
126 -124 272 -185 446 -185 174 0 320 61 446 185 65 64 90 97 123 165 54 110
75 209 68 320 -16 240 -147 437 -362 540 -118 56 -239 77 -360 60z"/>
<path d="M1256 8254 c-112 -27 -246 -107 -323 -193 -183 -205 -214 -513 -76
-751 81 -138 234 -253 393 -296 84 -22 225 -22 310 0 181 46 340 174 418 336
124 258 77 538 -123 736 -80 80 -194 144 -300 169 -76 18 -222 18 -299 -1z"/>
<path d="M4840 8255 c-30 -8 -92 -33 -138 -56 -249 -123 -391 -411 -338 -680
50 -249 233 -443 476 -505 85 -22 226 -22 310 0 210 56 387 223 451 426 42
133 35 302 -19 434 -76 188 -246 334 -443 381 -77 18 -224 18 -299 0z"/>
<path d="M580 6400 l0 -60 2620 0 2620 0 0 60 0 60 -2620 0 -2620 0 0 -60z"/>
<path d="M1330 5809 c-215 -24 -410 -167 -502 -368 -44 -96 -61 -189 -55 -301
18 -342 293 -600 636 -600 174 0 324 63 447 185 128 127 190 275 188 455 -1
180 -68 335 -196 455 -142 134 -325 196 -518 174z"/>
<path d="M4925 5810 c-144 -16 -265 -73 -373 -175 -128 -120 -195 -275 -196
-455 -2 -180 60 -328 188 -455 123 -122 273 -185 447 -185 343 0 618 258 636
600 6 112 -11 205 -55 301 -113 248 -377 399 -647 369z"/>
<path d="M3042 3950 c-115 -30 -206 -83 -292 -169 -80 -82 -124 -153 -162
-266 -19 -58 -23 -90 -22 -185 0 -99 4 -126 28 -195 59 -172 165 -294 322
-373 91 -46 175 -65 284 -65 109 0 193 19 284 65 157 79 263 201 322 373 24
69 28 96 28 195 1 128 -17 200 -77 315 -45 86 -164 202 -254 248 -145 75 -312
96 -461 57z"/>
<path d="M1284 2116 c-196 -45 -351 -161 -438 -326 -133 -253 -88 -550 114
-751 132 -131 300 -196 480 -186 454 26 738 498 545 905 -80 169 -202 278
-380 337 -97 33 -230 41 -321 21z"/>
<path d="M4865 2116 c-211 -49 -360 -167 -451 -359 -192 -406 92 -878 546
-904 301 -17 574 186 650 483 84 326 -108 663 -435 764 -89 27 -229 35 -310
16z"/>
</g>
</svg>
