<?xml version="1.0" standalone="no"?>
<!DOCTYPE svg PUBLIC "-//W3C//DTD SVG 20010904//EN"
 "http://www.w3.org/TR/2001/REC-SVG-20010904/DTD/svg10.dtd">
<svg version="1.0" xmlns="http://www.w3.org/2000/svg"
 width="495.000000pt" height="275.000000pt" viewBox="0 0 495.000000 275.000000"
 preserveAspectRatio="xMidYMid meet">

<g transform="translate(0.000000,275.000000) scale(0.100000,-0.100000)"
fill="#000000" stroke="none">
<path d="M4680 2594 l0 -85 -31 22 c-73 51 -183 27 -235 -51 -21 -32 -29 -58
-32 -105 -7 -105 29 -179 103 -215 54 -26 91 -25 148 4 44 22 47 22 47 5 0
-17 8 -19 65 -19 l65 0 0 265 0 265 -65 0 -65 0 0 -86z m-37 -164 c53 -42 43
-140 -16 -165 -80 -34 -146 51 -106 139 21 46 80 59 122 26z"/>
<path d="M310 2647 c-19 -6 -56 -32 -82 -58 -129 -129 -88 -355 77 -425 50
-21 158 -22 206 -2 93 40 149 122 149 218 l0 61 -137 -3 -138 -3 0 -45 0 -45
80 -5 80 -5 -37 -37 c-32 -34 -42 -38 -85 -38 -52 0 -104 25 -122 58 -18 34
-24 99 -11 136 27 83 133 116 198 61 25 -21 40 -25 96 -25 36 0 66 2 66 5 0 3
-9 22 -19 43 -25 48 -66 87 -113 106 -43 18 -155 20 -208 3z"/>
<path d="M1180 2601 c0 -44 -2 -48 -22 -47 -21 1 -23 -4 -26 -51 -3 -51 -2
-53 22 -53 l26 0 0 -95 c0 -156 28 -197 141 -203 l69 -4 0 55 0 56 -37 3 -38
3 -3 93 -3 92 41 0 41 0 -3 53 -3 52 -37 3 c-38 3 -38 4 -38 48 l0 44 -65 0
-65 0 0 -49z"/>
<path d="M2648 2634 c-5 -4 -8 -119 -8 -256 l0 -248 145 0 c159 0 192 8 235
55 20 22 25 37 25 82 0 50 -3 57 -37 88 l-37 34 29 29 c58 59 44 154 -30 197
-29 17 -57 20 -175 23 -77 2 -143 1 -147 -4z m232 -107 c15 -8 26 -23 28 -39
4 -36 -30 -58 -90 -58 l-48 0 0 55 0 55 43 0 c23 0 53 -6 67 -13z m22 -204
c10 -9 18 -26 18 -39 0 -39 -26 -54 -91 -54 l-59 0 0 55 0 55 57 0 c38 0 62
-5 75 -17z"/>
<path d="M1722 2582 c-45 -27 -87 -53 -94 -60 -17 -17 3 -35 105 -94 l90 -51
84 44 c115 61 131 74 117 96 -14 23 -173 113 -199 113 -11 0 -57 -22 -103 -48z
m126 -69 c-5 -26 -38 -29 -38 -4 0 15 6 21 21 21 14 0 19 -5 17 -17z"/>
<path d="M815 2542 c-76 -36 -115 -103 -115 -194 1 -95 47 -164 129 -193 52
-18 82 -19 136 -4 46 13 125 86 125 116 0 18 -6 20 -57 19 -38 -1 -67 -7 -83
-18 -48 -34 -120 -13 -120 35 0 14 18 17 138 19 l137 3 -2 48 c-6 107 -75 176
-185 184 -48 3 -73 -1 -103 -15z m147 -115 c19 -30 8 -37 -62 -37 -74 0 -88
11 -52 42 32 29 94 26 114 -5z"/>
<path d="M2140 2355 l0 -205 60 0 60 0 0 124 c0 110 2 126 21 150 15 19 30 26
54 26 24 0 39 -7 54 -26 19 -24 21 -40 21 -150 l0 -124 66 0 66 0 -4 148 c-4
163 -12 192 -70 233 -45 33 -134 33 -177 1 -29 -21 -31 -22 -31 -3 0 23 -19
31 -76 31 l-44 0 0 -205z"/>
<path d="M3110 2366 c0 -107 3 -201 6 -210 5 -14 32 -16 194 -16 104 0 195 3
204 6 14 5 16 32 16 194 0 104 -3 195 -6 204 -5 14 -33 16 -210 16 l-204 0 0
-194z m370 -1 l0 -165 -170 0 -170 0 0 165 0 165 170 0 170 0 0 -165z"/>
<path d="M3272 2459 c-36 -11 -72 -59 -72 -97 0 -35 28 -82 56 -92 69 -26 137
0 155 59 15 51 2 90 -41 119 -36 24 -48 25 -98 11z m72 -82 c8 -22 6 -31 -10
-48 -24 -24 -52 -17 -60 16 -15 59 50 89 70 32z"/>
<path d="M3426 2283 c-12 -13 -6 -53 9 -53 9 0 15 9 15 24 0 26 -12 40 -24 29z"/>
<path d="M3693 2541 c-107 -50 -139 -226 -60 -334 24 -32 92 -67 130 -67 36 0
99 26 115 47 11 15 12 14 12 -10 0 -27 1 -27 65 -27 l65 0 0 200 0 200 -23 6
c-13 3 -41 4 -63 2 -32 -2 -40 -7 -42 -25 l-3 -23 -29 22 c-41 30 -114 34
-167 9z m169 -117 c40 -37 30 -131 -16 -156 -79 -43 -155 47 -115 136 21 46
90 57 131 20z"/>
<path d="M4103 2553 c-10 -3 -13 -54 -13 -204 l0 -199 64 0 64 0 4 121 c3 138
10 149 85 149 l43 0 0 71 0 72 -32 -7 c-17 -3 -46 -17 -64 -31 l-33 -25 -3 27
c-3 26 -6 28 -53 30 -27 1 -56 -1 -62 -4z"/>
<path d="M1597 2463 c-9 -9 -8 -203 2 -227 9 -24 187 -127 207 -119 11 4 14
29 14 117 0 130 4 124 -117 194 -70 41 -93 49 -106 35z m127 -124 c47 -37 57
-99 20 -113 -26 -10 -82 21 -99 55 -34 65 20 105 79 58z"/>
<path d="M1673 2314 c-8 -21 8 -48 31 -52 24 -5 31 26 11 48 -22 24 -34 25
-42 4z"/>
<path d="M1940 2421 c-47 -26 -91 -59 -97 -72 -8 -14 -13 -64 -13 -120 0 -128
6 -133 97 -83 37 20 83 48 101 61 l32 24 0 120 c0 143 3 141 -120 70z m78 -58
c-5 -26 -38 -29 -38 -4 0 15 6 21 21 21 14 0 19 -5 17 -17z m-90 -140 c-5 -26
-38 -29 -38 -4 0 15 6 21 21 21 14 0 19 -5 17 -17z"/>
<path d="M2667 2004 c-4 -4 -7 -126 -7 -271 l0 -263 65 0 c57 0 65 2 65 19 0
17 3 17 47 -5 72 -37 130 -29 187 24 80 75 89 216 20 309 -47 63 -162 81 -225
34 l-28 -21 -3 87 -3 88 -55 3 c-31 2 -59 0 -63 -4z"/>
<path d="M4680 1920 l0 -91 -31 22 c-73 51 -183 27 -235 -51 -21 -32 -29 -58
-32 -105 -7 -105 29 -179 103 -215 54 -26 91 -25 148 4 44 22 47 22 47 5 0
-17 8 -19 65 -19 l65 0 -2 268 -3 267 -62 3 -63 3 0 -91z"/>
<path d="M1750 1977 c-202 -56 -267 -291 -120 -438 86 -86 208 -101 317 -39
83 47 125 124 125 226 0 170 -161 296 -322 251z m148 -140 c13 -12 29 -33 34
-47 15 -38 10 -118 -9 -151 -32 -54 -114 -75 -173 -44 -89 46 -87 220 2 260
44 20 115 12 146 -18z"/>
<path d="M295 1956 c-66 -30 -111 -83 -131 -153 -31 -105 -4 -205 74 -275 48
-43 99 -62 172 -62 73 0 124 19 172 62 56 51 78 99 78 172 l0 61 -137 -3 -138
-3 0 -45 0 -45 80 -5 80 -5 -37 -37 c-32 -34 -42 -38 -85 -38 -52 0 -104 25
-122 58 -36 67 -16 173 38 205 44 26 113 22 149 -8 25 -21 40 -25 97 -25 64 0
66 1 59 23 -17 56 -84 120 -142 137 -65 18 -152 12 -207 -14z"/>
<path d="M1180 1926 c0 -39 -3 -45 -22 -48 -20 -3 -23 -10 -26 -55 -3 -51 -2
-53 22 -53 l26 0 0 -95 c0 -156 28 -197 141 -203 l69 -4 0 55 0 56 -37 3 -38
3 -3 93 -3 92 41 0 41 0 -3 53 -3 52 -35 0 c-35 1 -35 2 -38 48 l-3 47 -65 0
-64 0 0 -44z"/>
<path d="M815 1862 c-75 -36 -115 -103 -115 -192 0 -98 50 -170 134 -195 59
-18 78 -18 131 -4 48 13 128 89 123 116 -5 26 -104 28 -137 2 -46 -36 -121
-15 -121 34 0 15 15 17 134 17 147 0 146 -1 139 64 -6 57 -38 113 -83 142 -54
36 -148 43 -205 16z m143 -110 c26 -34 15 -42 -58 -42 -74 0 -88 11 -52 42 32
29 86 29 110 0z"/>
<path d="M2137 1874 c-4 -4 -7 -97 -7 -206 l0 -198 65 0 65 0 0 124 c0 110 2
126 21 150 15 19 30 26 54 26 24 0 39 -7 54 -26 19 -24 21 -40 21 -150 l0
-124 66 0 66 0 -4 148 c-4 164 -13 193 -70 234 -45 32 -134 32 -177 0 l-30
-22 -3 23 c-3 19 -10 22 -58 25 -31 2 -59 0 -63 -4z"/>
<path d="M3267 1870 c-47 -14 -98 -60 -119 -108 -45 -100 -5 -228 85 -275 176
-91 362 66 305 257 -31 101 -157 160 -271 126z m120 -124 c24 -21 28 -32 28
-75 0 -39 -5 -56 -22 -72 -50 -50 -133 -9 -133 66 0 89 67 132 127 81z"/>
<path d="M3693 1861 c-60 -28 -94 -84 -100 -164 -9 -106 27 -180 102 -217 55
-26 92 -25 149 5 44 23 46 24 46 5 0 -18 7 -20 65 -20 l65 0 -2 203 -3 202
-62 1 c-60 2 -63 1 -63 -23 l0 -24 -29 22 c-42 31 -115 35 -168 10z"/>
<path d="M4096 1873 c-3 -3 -6 -96 -6 -205 l0 -198 64 0 64 0 4 120 c2 78 7
123 16 132 6 6 33 15 60 18 l47 5 3 68 c2 56 0 67 -13 67 -25 0 -79 -25 -95
-45 -14 -17 -15 -16 -20 11 -5 28 -8 29 -61 31 -31 1 -59 0 -63 -4z"/>
<path d="M3518 1249 c-66 -34 -76 -84 -27 -135 l31 -32 -20 -38 c-28 -54 -59
-159 -67 -226 l-7 -56 51 -11 c66 -14 208 -8 246 10 28 14 30 17 27 68 -4 60
-31 144 -66 207 l-24 42 29 21 c113 83 -44 219 -173 150z"/>
<path d="M1673 1226 c-64 -21 -103 -54 -129 -110 -39 -85 -28 -170 32 -236 47
-51 106 -74 183 -68 81 6 130 39 166 113 24 48 27 64 22 117 -12 136 -145 226
-274 184z m138 -115 c57 -57 36 -177 -36 -201 -77 -25 -145 24 -145 106 0 53
23 102 53 114 47 19 97 12 128 -19z"/>
<path d="M3123 1226 c-64 -21 -103 -54 -129 -110 -39 -85 -28 -170 32 -236 47
-51 106 -74 183 -68 81 6 130 39 166 113 24 48 27 64 22 117 -12 136 -145 226
-274 184z m138 -115 c24 -25 29 -37 29 -81 0 -67 -21 -105 -65 -120 -78 -26
-145 24 -145 108 1 80 39 121 113 122 30 0 45 -7 68 -29z"/>
<path d="M3830 1030 l0 -210 55 0 55 0 0 81 c0 56 3 80 11 77 7 -2 31 -37 54
-78 l43 -75 62 -3 62 -3 -20 33 c-75 126 -77 130 -57 141 95 53 95 186 0 231
-24 12 -64 16 -149 16 l-116 0 0 -210z m221 96 c21 -46 -20 -78 -88 -68 -20 3
-23 9 -23 48 l0 44 50 0 c43 0 52 -3 61 -24z"/>
<path d="M4220 1031 l0 -211 113 0 c129 0 173 14 224 73 81 93 62 243 -40 314
-38 26 -47 28 -169 31 l-128 4 0 -211z m246 85 c51 -59 38 -156 -26 -188 -19
-10 -52 -18 -72 -18 l-38 0 0 121 0 121 57 -4 c45 -4 61 -10 79 -32z"/>
<path d="M368 1210 c-103 -55 -137 -197 -73 -305 35 -60 82 -87 163 -92 80 -5
138 19 186 80 26 32 31 47 31 95 l0 57 -107 3 -108 3 0 -41 0 -40 60 0 c67 0
73 -9 34 -45 -35 -33 -109 -35 -147 -4 -58 45 -58 153 0 198 34 27 92 27 126
1 35 -28 140 -30 130 -2 -13 37 -46 73 -83 92 -53 27 -160 27 -212 0z"/>
<path d="M740 1020 l0 -210 125 0 125 0 0 40 0 40 -75 0 -75 0 0 50 0 50 70 0
70 0 0 35 0 35 -70 0 -70 0 0 45 0 45 75 0 75 0 0 40 0 40 -125 0 -125 0 0
-210z"/>
<path d="M1040 1190 l0 -40 55 0 55 0 0 -170 0 -170 50 0 50 0 0 170 0 170 55
0 55 0 0 40 0 40 -160 0 -160 0 0 -40z"/>
<path d="M2020 1020 l0 -210 50 0 49 0 3 127 3 126 84 -126 84 -127 48 0 49 0
0 210 0 210 -50 0 -49 0 -3 -127 -3 -128 -82 128 -83 127 -50 0 -50 0 0 -210z"/>
<path d="M2590 1020 l0 -210 115 0 c126 0 171 12 199 51 31 45 15 125 -30 149
l-23 13 29 27 c23 22 30 37 30 67 0 86 -51 113 -210 113 l-110 0 0 -210z m205
118 c10 -11 13 -45 6 -57 -5 -7 -32 -16 -60 -19 l-51 -5 0 48 0 48 51 -6 c29
-4 53 -8 54 -9z m15 -178 c19 -36 -3 -60 -55 -60 -25 0 -48 -1 -52 -2 -5 -2
-9 16 -11 40 l-3 42 55 0 c45 0 57 -4 66 -20z"/>
<path d="M1693 586 c-64 -21 -103 -54 -129 -110 -39 -85 -28 -170 32 -236 47
-51 106 -74 183 -68 81 6 130 39 166 113 24 48 27 64 22 117 -12 136 -145 226
-274 184z m138 -115 c28 -29 33 -46 29 -106 -7 -101 -120 -140 -184 -64 -30
35 -35 106 -12 148 32 58 119 69 167 22z"/>
<path d="M3143 586 c-64 -21 -103 -54 -129 -110 -70 -150 30 -305 197 -306 76
0 135 32 173 93 25 40 29 58 30 121 1 67 -2 78 -29 118 -54 76 -155 112 -242
84z m138 -115 c24 -25 29 -37 29 -81 0 -63 -20 -103 -59 -120 -75 -31 -151 24
-151 108 1 80 39 121 113 122 30 0 45 -7 68 -29z"/>
<path d="M388 570 c-103 -55 -137 -197 -73 -305 35 -60 82 -87 163 -92 80 -5
138 19 186 80 26 32 31 47 31 95 l0 57 -107 3 -108 3 0 -41 0 -40 60 0 c67 0
73 -9 34 -45 -35 -33 -109 -35 -147 -4 -58 45 -58 153 0 198 34 27 92 27 126
1 35 -28 140 -30 130 -2 -13 37 -46 73 -83 92 -53 27 -160 27 -212 0z"/>
<path d="M760 380 l0 -210 125 0 125 0 0 40 0 40 -75 0 -75 0 0 50 0 50 70 0
70 0 0 35 0 35 -70 0 -70 0 0 45 0 45 75 0 75 0 0 40 0 40 -125 0 -125 0 0
-210z"/>
<path d="M1060 550 l0 -40 55 0 55 0 0 -170 0 -170 50 0 50 0 0 170 0 170 55
0 55 0 0 40 0 40 -160 0 -160 0 0 -40z"/>
<path d="M2040 380 l0 -210 50 0 49 0 3 127 3 126 84 -126 84 -127 48 0 49 0
0 210 0 210 -50 0 -49 0 -3 -127 -3 -128 -82 128 -83 127 -50 0 -50 0 0 -210z"/>
<path d="M2610 380 l0 -210 115 0 c126 0 171 12 199 51 31 45 15 125 -30 149
l-23 13 29 27 c23 22 30 37 30 67 0 86 -51 113 -210 113 l-110 0 0 -210z m212
108 c7 -11 2 -46 -8 -57 -2 -2 -26 -6 -54 -9 l-50 -5 0 48 0 48 52 -6 c28 -4
55 -12 60 -19z m10 -173 c16 -36 -4 -53 -67 -57 l-50 -3 -3 43 -3 42 56 0 c50
0 57 -3 67 -25z"/>
<path d="M3575 578 c-50 -18 -83 -47 -90 -78 -7 -30 8 -69 31 -83 10 -6 9 -13
-3 -38 -19 -39 -53 -165 -53 -200 0 -41 30 -60 118 -71 93 -12 182 2 214 34
17 17 20 29 15 73 -3 29 -17 82 -32 119 -25 63 -26 69 -11 85 9 10 19 35 23
54 5 31 1 41 -24 66 -46 45 -124 62 -188 39z m10 -58 c-10 -11 -22 -20 -27
-20 -5 0 -4 9 2 20 6 11 18 20 27 20 14 0 14 -2 -2 -20z m-5 -152 c-45 -110
-60 -140 -60 -121 0 26 28 113 42 131 17 20 28 14 18 -10z"/>
<path d="M3850 370 l-1 -210 56 0 55 0 0 81 c0 56 3 80 11 77 7 -2 31 -37 54
-78 l43 -75 62 -3 62 -3 -20 33 c-75 126 -77 130 -57 141 95 53 95 186 0 231
-24 12 -64 16 -148 16 l-116 0 -1 -210z m221 96 c21 -46 -20 -78 -88 -68 -20
3 -23 9 -23 48 l0 44 50 0 c43 0 52 -3 61 -24z"/>
<path d="M4240 371 l0 -211 110 0 c121 0 165 12 213 58 45 43 61 81 61 152 1
79 -27 135 -87 177 -38 26 -47 28 -169 31 l-128 4 0 -211z m246 85 c51 -59 38
-156 -26 -188 -19 -10 -52 -18 -72 -18 l-38 0 0 121 0 121 57 -4 c45 -4 61
-10 79 -32z"/>
</g>
</svg>
