<?xml version="1.0" standalone="no"?>
<!DOCTYPE svg PUBLIC "-//W3C//DTD SVG 20010904//EN"
 "http://www.w3.org/TR/2001/REC-SVG-20010904/DTD/svg10.dtd">
<svg version="1.0" xmlns="http://www.w3.org/2000/svg"
 width="478.000000pt" height="70.000000pt" viewBox="0 0 478.000000 70.000000"
 preserveAspectRatio="xMidYMid meet">

<g transform="translate(0.000000,70.000000) scale(0.100000,-0.100000)"
fill="#000000" stroke="none">
<path d="M290 627 c-52 -17 -114 -84 -129 -140 -43 -152 65 -286 221 -275 80
5 133 31 169 81 24 33 29 50 29 99 l0 59 -112 -3 -113 -3 0 -35 0 -35 63 -3
c34 -2 62 -6 62 -11 0 -15 -41 -51 -66 -57 -71 -18 -137 22 -150 91 -9 48 2
82 36 116 36 36 104 41 138 9 25 -24 132 -30 132 -7 0 27 -42 77 -82 98 -50
26 -147 34 -198 16z"/>
<path d="M1592 625 c-61 -27 -94 -58 -118 -109 -39 -85 -28 -170 32 -236 96
-106 280 -91 360 29 63 96 31 234 -70 296 -58 35 -150 45 -204 20z m151 -106
c34 -26 50 -83 37 -130 -31 -112 -174 -114 -210 -3 -15 44 2 107 37 133 35 28
101 28 136 0z"/>
<path d="M3085 624 c-68 -25 -122 -92 -140 -171 -10 -47 18 -131 56 -172 97
-102 278 -92 351 20 38 58 47 151 21 210 -48 107 -171 156 -288 113z m144 -98
c76 -40 66 -178 -15 -212 -80 -33 -154 18 -154 104 1 54 17 89 51 108 32 18
83 17 118 0z"/>
<path d="M640 420 l0 -210 135 0 135 0 0 40 0 40 -80 0 -80 0 0 50 0 50 71 0
70 0 -3 38 -3 37 -67 3 -68 3 0 39 0 40 80 0 80 0 0 40 0 40 -135 0 -135 0 0
-210z"/>
<path d="M950 590 l0 -40 60 0 60 0 0 -170 0 -170 50 0 50 0 0 170 0 170 60 0
60 0 0 40 0 40 -170 0 -170 0 0 -40z"/>
<path d="M1960 420 l0 -210 55 0 54 0 3 126 3 126 85 -126 84 -126 53 0 53 0
0 210 0 210 -50 0 -50 0 0 -120 c0 -66 -3 -120 -7 -120 -5 1 -44 54 -88 120
l-80 119 -57 1 -58 0 0 -210z"/>
<path d="M2550 421 l0 -211 120 0 c138 0 192 15 215 61 25 47 19 87 -18 124
l-33 33 28 31 c38 43 38 90 -1 133 l-29 33 -141 3 -141 4 0 -211z m215 113
c33 -34 -6 -74 -72 -74 -32 0 -33 1 -33 45 l0 45 44 0 c28 0 51 -6 61 -16z
m17 -179 c17 -38 -4 -55 -68 -55 l-54 0 0 40 0 40 55 0 c49 0 57 -3 67 -25z"/>
<path d="M3549 621 c-89 -28 -124 -106 -69 -156 17 -15 16 -18 -6 -73 -27 -69
-50 -173 -41 -195 13 -34 68 -50 172 -51 81 -1 108 3 140 19 37 18 40 24 43
65 4 48 -8 99 -39 168 -20 43 -20 43 1 69 71 91 -64 195 -201 154z m15 -56
c-25 -19 -40 -19 -24 0 7 8 20 15 28 15 13 0 12 -3 -4 -15z m-5 -142 c0 -5
-14 -35 -30 -68 -23 -48 -28 -53 -25 -28 7 44 33 103 45 103 6 0 11 -3 10 -7z"/>
<path d="M3847 623 c-4 -3 -7 -100 -7 -215 l0 -208 55 0 55 0 0 80 c0 45 4 80
10 80 5 0 30 -36 56 -80 l46 -80 59 0 c32 0 59 3 59 6 0 4 -21 40 -46 81 -26
40 -45 75 -43 77 2 2 14 9 27 15 35 19 62 70 62 120 0 35 -6 49 -33 76 -18 18
-51 38 -72 44 -43 12 -217 15 -228 4z m214 -117 c19 -42 -3 -66 -61 -66 l-50
0 0 45 0 45 50 0 c43 0 52 -3 61 -24z"/>
<path d="M4248 624 c-5 -4 -8 -101 -8 -216 l0 -208 106 0 c123 0 169 11 219
52 51 43 68 82 69 159 1 56 -3 72 -29 114 -46 75 -99 98 -239 103 -61 2 -114
1 -118 -4z m238 -128 c28 -28 34 -42 34 -75 0 -82 -50 -131 -135 -131 l-35 0
0 120 0 120 51 0 c45 0 55 -4 85 -34z"/>
<path d="M0 15 c0 -13 272 -15 2390 -15 2118 0 2390 2 2390 15 0 13 -272 15
-2390 15 -2118 0 -2390 -2 -2390 -15z"/>
</g>
</svg>
