<?xml version="1.0" encoding="UTF-8"?>
<svg width="380.83" height="251.65" viewBox="0 0 380.83414 251.64623" xmlns="http://www.w3.org/2000/svg" xmlns:xlink="http://www.w3.org/1999/xlink">
 <defs>
  <linearGradient id="ae" x1="-240.25" x2="-239.25" gradientTransform="matrix(0 -90.916 -90.916 0 43057 -21556)" gradientUnits="userSpaceOnUse">
   <stop stop-color="#fff" offset="0"/>
   <stop stop-color="#0d56ac" offset="1"/>
  </linearGradient>
  <linearGradient id="ac" x1="-240.48" x2="-238.98" gradientTransform="matrix(0 -90.91 -90.91 0 43036 -21544)" gradientUnits="userSpaceOnUse">
   <stop stop-color="#fff" offset="0"/>
   <stop stop-color="#7f6400" offset="1"/>
  </linearGradient>
  <linearGradient id="ad" x1="-240.72" x2="-238.72" gradientTransform="matrix(0 -90.916 -90.916 0 43020 -21536)" gradientUnits="userSpaceOnUse">
   <stop stop-color="#fff" offset="0"/>
   <stop stop-color="#0d56ac" offset="1"/>
  </linearGradient>
  <linearGradient id="i" x1=".9751" x2="89.663" gradientUnits="userSpaceOnUse">
   <stop stop-color="#7fb5f7" offset=".0056"/>
   <stop stop-color="#7db3f5" offset=".3144"/>
   <stop stop-color="#75abf0" offset=".4846"/>
   <stop stop-color="#679de7" offset=".6211"/>
   <stop stop-color="#538ada" offset=".7397"/>
   <stop stop-color="#3a71c9" offset=".8467"/>
   <stop stop-color="#1b52b5" offset=".9439"/>
   <stop stop-color="#063da7" offset="1"/>
  </linearGradient>
  <linearGradient id="h" x1="2.3623" x2="88.064" gradientUnits="userSpaceOnUse">
   <stop stop-color="#7fb5f7" offset=".0056"/>
   <stop stop-color="#7ab0f4" offset=".1678"/>
   <stop stop-color="#6ca2eb" offset=".3546"/>
   <stop stop-color="#558cdb" offset=".5534"/>
   <stop stop-color="#356cc6" offset=".7607"/>
   <stop stop-color="#0c43ab" offset=".9727"/>
   <stop stop-color="#063da7" offset="1"/>
  </linearGradient>
  <linearGradient id="d" x1="15.742" x2="75.925" gradientUnits="userSpaceOnUse">
   <stop stop-color="#8bbbff" offset="0"/>
   <stop stop-color="#0d56ac" offset="1"/>
  </linearGradient>
  <linearGradient id="ab" x1="-240.48" x2="-238.98" gradientTransform="matrix(0 -90.91 -90.91 0 42885 -21390)" gradientUnits="userSpaceOnUse" xlink:href="#ac"/>
  <linearGradient id="aa" x1="-240.72" x2="-238.72" gradientTransform="matrix(0 -90.916 -90.916 0 42869 -21382)" gradientUnits="userSpaceOnUse" xlink:href="#ad"/>
  <linearGradient id="z" x1="-240.57" x2="-239" gradientTransform="matrix(0 -90.916 -90.916 0 42869 -21382)" gradientUnits="userSpaceOnUse">
   <stop stop-color="#9cd305" offset="0"/>
   <stop stop-color="#084703" offset="1"/>
  </linearGradient>
  <linearGradient id="y" x1="-240.57" x2="-239" gradientTransform="matrix(0 -90.916 -90.916 0 42869 -21382)" gradientUnits="userSpaceOnUse">
   <stop stop-color="#c2ef20" offset="0"/>
   <stop stop-color="#0a5116" offset="1"/>
  </linearGradient>
  <linearGradient id="x" x1="-240.58" x2="-238.99" gradientTransform="matrix(0 -90.916 -90.916 0 42869 -21382)" gradientUnits="userSpaceOnUse">
   <stop stop-color="#76aa04" offset="0"/>
   <stop stop-color="#063903" offset="1"/>
  </linearGradient>
  <linearGradient id="w" x1="-240.25" x2="-239.25" gradientTransform="matrix(0 -90.916 -90.916 0 42905 -21551)" gradientUnits="userSpaceOnUse" xlink:href="#ae"/>
  <linearGradient id="v" x1="-238.23" x2="-236.65" gradientTransform="matrix(-31 63.251 63.251 31 -36169 1333.3)" gradientUnits="userSpaceOnUse">
   <stop stop-color="#fffa5f" offset="0"/>
   <stop stop-color="#9f3300" offset="1"/>
  </linearGradient>
  <linearGradient id="u" x1="-240.48" x2="-238.98" gradientTransform="matrix(0 -90.91 -90.91 0 42883 -21539)" gradientUnits="userSpaceOnUse" xlink:href="#ac"/>
  <linearGradient id="t" x1="-240.5" x2="-238.93" gradientTransform="matrix(0 -90.91 -90.91 0 42883 -21539)" gradientUnits="userSpaceOnUse">
   <stop stop-color="#ffce00" offset="0"/>
   <stop stop-color="#7f5100" offset="1"/>
  </linearGradient>
  <linearGradient id="s" x1="-240.5" x2="-238.93" gradientTransform="matrix(0 -90.91 -90.91 0 42883 -21539)" gradientUnits="userSpaceOnUse">
   <stop stop-color="#ffe600" offset="0"/>
   <stop stop-color="#7f5a00" offset="1"/>
  </linearGradient>
  <linearGradient id="r" x1="-240.51" x2="-238.92" gradientTransform="matrix(0 -90.91 -90.91 0 42883 -21539)" gradientUnits="userSpaceOnUse">
   <stop stop-color="#c68526" offset="0"/>
   <stop stop-color="#633400" offset="1"/>
  </linearGradient>
  <linearGradient id="q" x1="-244.07" x2="-242.54" gradientTransform="matrix(.334 106.67 106.67 -.334 -48769 26351)" gradientUnits="userSpaceOnUse">
   <stop stop-color="#fffa5f" offset="0"/>
   <stop stop-color="#9f3300" offset="1"/>
  </linearGradient>
  <linearGradient id="p" x1="-240.72" x2="-238.72" gradientTransform="matrix(0 -90.916 -90.916 0 42868 -21531)" gradientUnits="userSpaceOnUse" xlink:href="#ad"/>
  <linearGradient id="o" x1="-240.25" x2="-239.25" gradientTransform="matrix(0 -90.916 -90.916 0 43057 -21556)" gradientUnits="userSpaceOnUse" xlink:href="#ae"/>
  <linearGradient id="n" x1="-240.45" x2="-238.87" gradientTransform="matrix(0 -90.916 -90.916 0 43057 -21556)" gradientUnits="userSpaceOnUse">
   <stop stop-color="#d82a2a" offset="0"/>
   <stop stop-color="#0b0e1c" offset="1"/>
  </linearGradient>
  <linearGradient id="m" x1="-240.45" x2="-238.88" gradientTransform="matrix(0 -90.916 -90.916 0 43057 -21556)" gradientUnits="userSpaceOnUse">
   <stop stop-color="#f00" offset="0"/>
   <stop stop-color="#0d0000" offset="1"/>
  </linearGradient>
  <linearGradient id="l" x1="-240.45" x2="-238.88" gradientTransform="matrix(0 -90.916 -90.916 0 43057 -21556)" gradientUnits="userSpaceOnUse">
   <stop stop-color="#970f00" offset="0"/>
   <stop stop-color="#080500" offset="1"/>
  </linearGradient>
  <linearGradient id="k" x1="-240.45" x2="-238.88" gradientTransform="matrix(0 -90.916 -90.916 0 43057 -21556)" gradientUnits="userSpaceOnUse">
   <stop stop-color="#b20d0d" offset="0"/>
   <stop stop-color="#110409" offset=".9562"/>
   <stop stop-color="#090409" offset="1"/>
  </linearGradient>
  <linearGradient id="j" x1="-240.48" x2="-238.98" gradientTransform="matrix(0 -90.91 -90.91 0 43036 -21544)" gradientUnits="userSpaceOnUse" xlink:href="#ac"/>
  <linearGradient id="g" x1="-265.45" x2="-263.95" gradientTransform="matrix(0 -109.21 -109.21 0 51337 -28882)" gradientUnits="userSpaceOnUse">
   <stop stop-color="#fff" offset="0"/>
   <stop stop-color="#0d56ac" offset="1"/>
  </linearGradient>
  <linearGradient id="f" x1="-265.52" x2="-263.8" gradientTransform="matrix(0 -109.21 -109.21 0 51337 -28882)" gradientUnits="userSpaceOnUse">
   <stop stop-color="#b4d7f9" offset="0"/>
   <stop stop-color="#0949a8" offset="1"/>
  </linearGradient>
  <linearGradient id="e" x1="-265.52" x2="-263.8" gradientTransform="matrix(0 -109.21 -109.21 0 51337 -28882)" gradientUnits="userSpaceOnUse">
   <stop stop-color="#4f91e0" offset="0"/>
   <stop stop-color="#043197" offset="1"/>
  </linearGradient>
  <radialGradient id="b" cx="68.443" cy="57.223" r="52.037" gradientUnits="userSpaceOnUse">
   <stop stop-color="#063da7" offset="0"/>
   <stop stop-color="#0c43ab" offset=".1478"/>
   <stop stop-color="#1e55b7" offset=".3515"/>
   <stop stop-color="#3b72ca" offset=".5877"/>
   <stop stop-color="#649ae5" offset=".8464"/>
   <stop stop-color="#7fb5f7" offset="1"/>
  </radialGradient>
  <radialGradient id="c" cx="-266.89" cy="464.44" r="1.7276" gradientTransform="matrix(113.25 0 0 -113.25 30287 52586)" gradientUnits="userSpaceOnUse">
   <stop stop-color="#8bbbff" offset="0"/>
   <stop stop-color="#0d56ac" offset="1"/>
  </radialGradient>
  <radialGradient id="a" cx="-268.07" cy="464.07" r="1.7096" gradientTransform="matrix(86.657 0 0 -83.321 23269 38612)" gradientUnits="userSpaceOnUse">
   <stop stop-color="#8bbbff" offset="0"/>
   <stop stop-color="#0d56ac" offset="1"/>
  </radialGradient>
 </defs>
 <path transform="matrix(-.87758,.47944,-.82852,-.55995,0,0)" d="m-98.804-350.33h207.92a3.4943 3.4943 0 0 1 3.4943 3.4943v223.11a3.4943 3.4943 0 0 1 -3.4943 3.4943h-207.92a3.4943 3.4943 0 0 1 -3.4943 -3.4943v-223.11a3.4943 3.4943 0 0 1 3.4943 -3.4943" fill="#fdfe98" stroke="#069603" stroke-linecap="round" stroke-linejoin="round" stroke-width="5.389"/>
 <path transform="matrix(.97592 .21812 -.21812 .97592 267.88 27.834)" d="m-203.79 143.23a8.7757 6.338 0 1 1 -17.551 0 8.7757 6.338 0 1 1 17.551 0z" fill="#00f" stroke="#000" stroke-linecap="round" stroke-linejoin="round" stroke-width="2"/>
 <path transform="matrix(.97592 .21812 -.21812 .97592 286.41 18.959)" d="m-203.79 143.23a8.7757 6.338 0 1 1 -17.551 0 8.7757 6.338 0 1 1 17.551 0z" fill="#00f" stroke="#000" stroke-linecap="round" stroke-linejoin="round" stroke-width="2"/>
 <path transform="matrix(.97592 .21812 -.21812 .97592 287.43 41.535)" d="m-203.79 143.23a8.7757 6.338 0 1 1 -17.551 0 8.7757 6.338 0 1 1 17.551 0z" fill="#00f" stroke="#000" stroke-linecap="round" stroke-linejoin="round" stroke-width="2"/>
 <path transform="matrix(.97592 .21812 -.21812 .97592 305.96 32.66)" d="m-203.79 143.23a8.7757 6.338 0 1 1 -17.551 0 8.7757 6.338 0 1 1 17.551 0z" fill="#00f" stroke="#000" stroke-linecap="round" stroke-linejoin="round" stroke-width="2"/>
 <path transform="matrix(.97592 .21812 -.21812 .97592 393.67 -49.197)" d="m-203.79 143.23a8.7757 6.338 0 1 1 -17.551 0 8.7757 6.338 0 1 1 17.551 0z" fill="#0f0" stroke="#000" stroke-linecap="round" stroke-linejoin="round" stroke-width="2"/>
 <path transform="matrix(.97592 .21812 -.21812 .97592 412.19 -58.073)" d="m-203.79 143.23a8.7757 6.338 0 1 1 -17.551 0 8.7757 6.338 0 1 1 17.551 0z" fill="#0f0" stroke="#000" stroke-linecap="round" stroke-linejoin="round" stroke-width="2"/>
 <path transform="matrix(.97592 .21812 -.21812 .97592 413.22 -35.496)" d="m-203.79 143.23a8.7757 6.338 0 1 1 -17.551 0 8.7757 6.338 0 1 1 17.551 0z" fill="#0f0" stroke="#000" stroke-linecap="round" stroke-linejoin="round" stroke-width="2"/>
 <path transform="matrix(.97592 .21812 -.21812 .97592 431.74 -44.372)" d="m-203.79 143.23a8.7757 6.338 0 1 1 -17.551 0 8.7757 6.338 0 1 1 17.551 0z" fill="#0f0" stroke="#000" stroke-linecap="round" stroke-linejoin="round" stroke-width="2"/>
 <path transform="matrix(.97592 .21812 -.21812 .97592 413.17 122.42)" d="m-203.79 143.23a8.7757 6.338 0 1 1 -17.551 0 8.7757 6.338 0 1 1 17.551 0z" fill="#ff0" stroke="#000" stroke-linecap="round" stroke-linejoin="round" stroke-width="2"/>
 <path transform="matrix(.97592 .21812 -.21812 .97592 431.69 113.54)" d="m-203.79 143.23a8.7757 6.338 0 1 1 -17.551 0 8.7757 6.338 0 1 1 17.551 0z" fill="#ff0" stroke="#000" stroke-linecap="round" stroke-linejoin="round" stroke-width="2"/>
 <path transform="matrix(.97592 .21812 -.21812 .97592 432.72 136.12)" d="m-203.79 143.23a8.7757 6.338 0 1 1 -17.551 0 8.7757 6.338 0 1 1 17.551 0z" fill="#ff0" stroke="#000" stroke-linecap="round" stroke-linejoin="round" stroke-width="2"/>
 <path transform="matrix(.97592 .21812 -.21812 .97592 451.24 127.24)" d="m-203.79 143.23a8.7757 6.338 0 1 1 -17.551 0 8.7757 6.338 0 1 1 17.551 0z" fill="#ff0" stroke="#000" stroke-linecap="round" stroke-linejoin="round" stroke-width="2"/>
 <path transform="matrix(.97592 .21812 -.21812 .97592 545.78 49.286)" d="m-203.79 143.23a8.7757 6.338 0 1 1 -17.551 0 8.7757 6.338 0 1 1 17.551 0z" fill="#f00" stroke="#000" stroke-linecap="round" stroke-linejoin="round" stroke-width="2"/>
 <path transform="matrix(.97592 .21812 -.21812 .97592 564.3 40.41)" d="m-203.79 143.23a8.7757 6.338 0 1 1 -17.551 0 8.7757 6.338 0 1 1 17.551 0z" fill="#f00" stroke="#000" stroke-linecap="round" stroke-linejoin="round" stroke-width="2"/>
 <path transform="matrix(.97592 .21812 -.21812 .97592 565.33 62.987)" d="m-203.79 143.23a8.7757 6.338 0 1 1 -17.551 0 8.7757 6.338 0 1 1 17.551 0z" fill="#f00" stroke="#000" stroke-linecap="round" stroke-linejoin="round" stroke-width="2"/>
 <path transform="matrix(.97592 .21812 -.21812 .97592 583.86 54.111)" d="m-203.79 143.23a8.7757 6.338 0 1 1 -17.551 0 8.7757 6.338 0 1 1 17.551 0z" fill="#f00" stroke="#000" stroke-linecap="round" stroke-linejoin="round" stroke-width="2"/>
 <g transform="matrix(.32723 0 0 .43147 292.77 -173.77)">
  <path d="m-334.88402,425.01742c-.051.01-.051.01 0,0m.38-.062c-.062.01-.062.01 0,0m.362-.054c-.045.01-.045.01 0,0m1.102-.132c-.222.023-.222.023 0,0m.401-.037c-.254.023-.254.023 0,0m4.02-.026c.104.01.104.01 0,0m-3.619,0c-.271.018-.271.018 0,0m3.195-.023c.214.012.214.012 0,0m-2.782,0c-.296.017-.296.017 0,0m2.364-.018c.27.012.27.012 0,0m-1.952,0c-.319.012-.319.012 0,0m1.505-.013c.343.01.343.01 0,0m-1.06,0c-.382.01-.382.01 0,0m.517-.01 0,0" fill="url(#ab)"/>
  <path d="m-326.24 482.07c0 19.394-18.681 26.148-35.311 25.663-18.618-0.543-34.455-10.404-31.796-30.811 2.264-17.374 16.053-37.17 35.507-35.912 19.872 1.288 31.6 23.08 31.6 41.06" fill="#9cd305"/>
  <path d="m-359.54 441.71c-18.916 0-31.723 19.841-33.261 36.897-1.804 20.018 15.444 28.405 33.119 28.405-15.98 0-32.966-7.185-32.102-25.6 0.797-17.034 13.305-37.437 32.229-37.437 18.104 0 29.795 18.673 31.227 34.949 1.709 19.408-13.796 28.087-31.339 28.087 16.974 0.013 33.435-7.93 32.617-27.051-0.748-17.495-12.957-38.25-32.49-38.25" fill="#c2ef20"/>
  <path d="m-380.86702,451.65342c-.564.626-.002,0 0,0m18.969-11.227c-.295.027-.295.027 0,0m.386-.032c-.272.02-.272.02 0,0m3.897-.01c19.537,1.426 30.988,23.454 30.988,41.59601 0,17.505-15.693,24.942-31.196,25.383-15.172.43-34.336-5.098-35.469-23.048-1.169-18.55901 11.541-41.83001 31.036-43.85801-20.311,2.106-34.086,26.161-31.945,45.21201 2.007,17.849 21.471,23.189 36.744,22.688 19.504-.64 34.058-11.74 31.45-32.444-2.071-16.45401-13.721-34.18501-31.608-35.52901m-3.507-.02c-.256.017-.256.017 0,0m3.164,0c.351.024.351.024 0,0m-2.771-.019c-.229.012-.229.012 0,0m2.395,0c.287.013.287.013 0,0m-1.995-.016c-.214.01-.214.01 0,0m1.603,0c.253.011.253.011 0,0m-.395-.01 0,0m-.81,0 0,0" fill="#76aa04"/>
  <path d="m-359.59 497.93c-11.241 0-24.816-1.683-33.014-10.285 5.414 26.937 59.456 26.986 65.14 0.189-7.959 8.461-21.145 10.096-32.126 10.096" fill="#7ec405"/>
  <path d="m-359.54 441.34c18.348 0 30.211 18.921 31.665 35.421 1.654 18.785-12.677 27.96-29.947 28.468-15.425 0.453-34.447-5.576-34.447-23.979 0-17.404 11.975-38.542 31.045-39.854-19.017 1.284-31.285 21.822-32.076 39.22-0.911 20.078 18.337 27.238 35.478 26.752 16.668-0.474 31.945-8.861 31.154-27.346-0.759-17.702-13.116-38.682-32.872-38.682" fill="#76aa04"/>
  <path d="m-362.11902,440.44642c-.183.019-.183.019 0,0m.402-.036c-.241.023-.241.023 0,0m4.022-.027c.106.01.106.01 0,0m-3.619,0c-.265.019-.265.019 0,0m3.195-.023c.215.013.215.013 0,0m-2.781,0c-.296.018-.296.018 0,0m2.364-.016c.269.011.269.011 0,0m-1.953,0c-.32.013-.32.013 0,0m1.505-.012c.344.01.344.01 0,0m-1.061,0c-.379.01-.379.01 0,0m.52-.01 0,0" fill="url(#aa)"/>
  <path d="m-359.55402,443.97342c-7.707,0-14.819,3.819-20.125,9.229 4.788,5.705 12.174,8.771 19.559,8.771 7.026,0 14.041-2.768 18.836-7.971 4.146-4.497-14.695-10.029-18.27-10.029m.029-2.38c-3.892,0-7.742.932-11.255,2.591-1.094.518-10.819,6.496-10.042,7.531 11.819-12.438 29.759-13.122 41.817-.635 .61-.991-7.195-5.841-8.014-6.277-3.844-2.046-8.142-3.21-12.506-3.21" fill="url(#z)"/>
  <path d="m-359.54 441.71c-4.01 0-24.454 6.34-20.139 11.495 11.269-11.487 28.084-12.1 39.56-0.567 4.128-5.253-15.486-10.928-19.421-10.928" fill="url(#y)"/>
  <path d="m-361.22502,441.39442c-2.395.161-21.988,6.878-19.643,10.259 5.098-5.567 11.989-9.731 19.643-10.259m2.106-.051c7.798.13 14.923,4.052 20.151,9.678 .777-1.197-7.099-5.999-8.236-6.593-3.679-1.916-7.762-3.018-11.915-3.085m-.422-.01c.561.01.561.01 0,0" fill="url(#x)"/>
  <path d="m-336.69 424.77c0 28.5-45.745 28.5-45.745 0s45.745-28.5 45.745 0" fill="#9cd305"/>
  <path d="m-374.91 416.52c5.099-5.981 13.903-7.535 21.268-5.69 8.458 2.119 12.836 8.799 14.121 17.09 1.861-11.988-8.225-22.393-20.051-22.393-11.846 0-21.896 10.411-20.051 22.402 0.618-4.02 2.036-8.272 4.713-11.409" fill="#c2ef20"/>
  <path d="m-345.08102,435.68842c-2.039,1.692-3.757,1.043-5.989.178-4.394-1.704-9.074-1.798-13.646-.772-2.975.667-6.551,2.211-9.428.417-4.273-2.665-6.863-8.581-7.473-13.381-1.793,13.718 10.484,25.003 23.872,23.955 12.074-.945 21.789-11.712 20.23-23.958-.684,5.295-3.468,10.161-7.566,13.561" fill="#7ec405"/>
  <path d="m-383.07 424.77c0 30.508 49.382 28.464 46.943-1.764-2.263-28.07-46.943-26.491-46.943 1.764m7.782 15.12c-20.717-19.92 11.573-49.342 31.443-30.235 20.597 19.806-11.447 49.447-31.443 30.235" fill="#76aa04"/>
 </g>
 <g transform="matrix(.32723 0 0 .43147 291.8 -150.37)">
  <path d="m-334.88402,425.01742c-.051.01-.051.01 0,0m.38-.062c-.062.01-.062.01 0,0m.362-.054c-.045.01-.045.01 0,0m1.102-.132c-.222.023-.222.023 0,0m.401-.037c-.254.023-.254.023 0,0m4.02-.026c.104.01.104.01 0,0m-3.619,0c-.271.018-.271.018 0,0m3.195-.023c.214.012.214.012 0,0m-2.782,0c-.296.017-.296.017 0,0m2.364-.018c.27.012.27.012 0,0m-1.952,0c-.319.012-.319.012 0,0m1.505-.013c.343.01.343.01 0,0m-1.06,0c-.382.01-.382.01 0,0m.517-.01 0,0" fill="url(#ab)"/>
  <path d="m-326.24 482.07c0 19.394-18.681 26.148-35.311 25.663-18.618-0.543-34.455-10.404-31.796-30.811 2.264-17.374 16.053-37.17 35.507-35.912 19.872 1.288 31.6 23.08 31.6 41.06" fill="#9cd305"/>
  <path d="m-359.54 441.71c-18.916 0-31.723 19.841-33.261 36.897-1.804 20.018 15.444 28.405 33.119 28.405-15.98 0-32.966-7.185-32.102-25.6 0.797-17.034 13.305-37.437 32.229-37.437 18.104 0 29.795 18.673 31.227 34.949 1.709 19.408-13.796 28.087-31.339 28.087 16.974 0.013 33.435-7.93 32.617-27.051-0.748-17.495-12.957-38.25-32.49-38.25" fill="#c2ef20"/>
  <path d="m-380.86702,451.65342c-.564.626-.002,0 0,0m18.969-11.227c-.295.027-.295.027 0,0m.386-.032c-.272.02-.272.02 0,0m3.897-.01c19.537,1.426 30.988,23.454 30.988,41.59601 0,17.505-15.693,24.942-31.196,25.383-15.172.43-34.336-5.098-35.469-23.048-1.169-18.55901 11.541-41.83001 31.036-43.85801-20.311,2.106-34.086,26.161-31.945,45.21201 2.007,17.849 21.471,23.189 36.744,22.688 19.504-.64 34.058-11.74 31.45-32.444-2.071-16.45401-13.721-34.18501-31.608-35.52901m-3.507-.02c-.256.017-.256.017 0,0m3.164,0c.351.024.351.024 0,0m-2.771-.019c-.229.012-.229.012 0,0m2.395,0c.287.013.287.013 0,0m-1.995-.016c-.214.01-.214.01 0,0m1.603,0c.253.011.253.011 0,0m-.395-.01 0,0m-.81,0 0,0" fill="#76aa04"/>
  <path d="m-359.59 497.93c-11.241 0-24.816-1.683-33.014-10.285 5.414 26.937 59.456 26.986 65.14 0.189-7.959 8.461-21.145 10.096-32.126 10.096" fill="#7ec405"/>
  <path d="m-359.54 441.34c18.348 0 30.211 18.921 31.665 35.421 1.654 18.785-12.677 27.96-29.947 28.468-15.425 0.453-34.447-5.576-34.447-23.979 0-17.404 11.975-38.542 31.045-39.854-19.017 1.284-31.285 21.822-32.076 39.22-0.911 20.078 18.337 27.238 35.478 26.752 16.668-0.474 31.945-8.861 31.154-27.346-0.759-17.702-13.116-38.682-32.872-38.682" fill="#76aa04"/>
  <path d="m-362.11902,440.44642c-.183.019-.183.019 0,0m.402-.036c-.241.023-.241.023 0,0m4.022-.027c.106.01.106.01 0,0m-3.619,0c-.265.019-.265.019 0,0m3.195-.023c.215.013.215.013 0,0m-2.781,0c-.296.018-.296.018 0,0m2.364-.016c.269.011.269.011 0,0m-1.953,0c-.32.013-.32.013 0,0m1.505-.012c.344.01.344.01 0,0m-1.061,0c-.379.01-.379.01 0,0m.52-.01 0,0" fill="url(#aa)"/>
  <path d="m-359.55402,443.97342c-7.707,0-14.819,3.819-20.125,9.229 4.788,5.705 12.174,8.771 19.559,8.771 7.026,0 14.041-2.768 18.836-7.971 4.146-4.497-14.695-10.029-18.27-10.029m.029-2.38c-3.892,0-7.742.932-11.255,2.591-1.094.518-10.819,6.496-10.042,7.531 11.819-12.438 29.759-13.122 41.817-.635 .61-.991-7.195-5.841-8.014-6.277-3.844-2.046-8.142-3.21-12.506-3.21" fill="url(#z)"/>
  <path d="m-359.54 441.71c-4.01 0-24.454 6.34-20.139 11.495 11.269-11.487 28.084-12.1 39.56-0.567 4.128-5.253-15.486-10.928-19.421-10.928" fill="url(#y)"/>
  <path d="m-361.22502,441.39442c-2.395.161-21.988,6.878-19.643,10.259 5.098-5.567 11.989-9.731 19.643-10.259m2.106-.051c7.798.13 14.923,4.052 20.151,9.678 .777-1.197-7.099-5.999-8.236-6.593-3.679-1.916-7.762-3.018-11.915-3.085m-.422-.01c.561.01.561.01 0,0" fill="url(#x)"/>
  <path d="m-336.69 424.77c0 28.5-45.745 28.5-45.745 0s45.745-28.5 45.745 0" fill="#9cd305"/>
  <path d="m-374.91 416.52c5.099-5.981 13.903-7.535 21.268-5.69 8.458 2.119 12.836 8.799 14.121 17.09 1.861-11.988-8.225-22.393-20.051-22.393-11.846 0-21.896 10.411-20.051 22.402 0.618-4.02 2.036-8.272 4.713-11.409" fill="#c2ef20"/>
  <path d="m-345.08102,435.68842c-2.039,1.692-3.757,1.043-5.989.178-4.394-1.704-9.074-1.798-13.646-.772-2.975.667-6.551,2.211-9.428.417-4.273-2.665-6.863-8.581-7.473-13.381-1.793,13.718 10.484,25.003 23.872,23.955 12.074-.945 21.789-11.712 20.23-23.958-.684,5.295-3.468,10.161-7.566,13.561" fill="#7ec405"/>
  <path d="m-383.07 424.77c0 30.508 49.382 28.464 46.943-1.764-2.263-28.07-46.943-26.491-46.943 1.764m7.782 15.12c-20.717-19.92 11.573-49.342 31.443-30.235 20.597 19.806-11.447 49.447-31.443 30.235" fill="#76aa04"/>
 </g>
 <g transform="matrix(.32723 0 0 .43147 310.32 -161.1)">
  <path d="m-334.88402,425.01742c-.051.01-.051.01 0,0m.38-.062c-.062.01-.062.01 0,0m.362-.054c-.045.01-.045.01 0,0m1.102-.132c-.222.023-.222.023 0,0m.401-.037c-.254.023-.254.023 0,0m4.02-.026c.104.01.104.01 0,0m-3.619,0c-.271.018-.271.018 0,0m3.195-.023c.214.012.214.012 0,0m-2.782,0c-.296.017-.296.017 0,0m2.364-.018c.27.012.27.012 0,0m-1.952,0c-.319.012-.319.012 0,0m1.505-.013c.343.01.343.01 0,0m-1.06,0c-.382.01-.382.01 0,0m.517-.01 0,0" fill="url(#ab)"/>
  <path d="m-326.24 482.07c0 19.394-18.681 26.148-35.311 25.663-18.618-0.543-34.455-10.404-31.796-30.811 2.264-17.374 16.053-37.17 35.507-35.912 19.872 1.288 31.6 23.08 31.6 41.06" fill="#9cd305"/>
  <path d="m-359.54 441.71c-18.916 0-31.723 19.841-33.261 36.897-1.804 20.018 15.444 28.405 33.119 28.405-15.98 0-32.966-7.185-32.102-25.6 0.797-17.034 13.305-37.437 32.229-37.437 18.104 0 29.795 18.673 31.227 34.949 1.709 19.408-13.796 28.087-31.339 28.087 16.974 0.013 33.435-7.93 32.617-27.051-0.748-17.495-12.957-38.25-32.49-38.25" fill="#c2ef20"/>
  <path d="m-380.86702,451.65342c-.564.626-.002,0 0,0m18.969-11.227c-.295.027-.295.027 0,0m.386-.032c-.272.02-.272.02 0,0m3.897-.01c19.537,1.426 30.988,23.454 30.988,41.59601 0,17.505-15.693,24.942-31.196,25.383-15.172.43-34.336-5.098-35.469-23.048-1.169-18.55901 11.541-41.83001 31.036-43.85801-20.311,2.106-34.086,26.161-31.945,45.21201 2.007,17.849 21.471,23.189 36.744,22.688 19.504-.64 34.058-11.74 31.45-32.444-2.071-16.45401-13.721-34.18501-31.608-35.52901m-3.507-.02c-.256.017-.256.017 0,0m3.164,0c.351.024.351.024 0,0m-2.771-.019c-.229.012-.229.012 0,0m2.395,0c.287.013.287.013 0,0m-1.995-.016c-.214.01-.214.01 0,0m1.603,0c.253.011.253.011 0,0m-.395-.01 0,0m-.81,0 0,0" fill="#76aa04"/>
  <path d="m-359.59 497.93c-11.241 0-24.816-1.683-33.014-10.285 5.414 26.937 59.456 26.986 65.14 0.189-7.959 8.461-21.145 10.096-32.126 10.096" fill="#7ec405"/>
  <path d="m-359.54 441.34c18.348 0 30.211 18.921 31.665 35.421 1.654 18.785-12.677 27.96-29.947 28.468-15.425 0.453-34.447-5.576-34.447-23.979 0-17.404 11.975-38.542 31.045-39.854-19.017 1.284-31.285 21.822-32.076 39.22-0.911 20.078 18.337 27.238 35.478 26.752 16.668-0.474 31.945-8.861 31.154-27.346-0.759-17.702-13.116-38.682-32.872-38.682" fill="#76aa04"/>
  <path d="m-362.11902,440.44642c-.183.019-.183.019 0,0m.402-.036c-.241.023-.241.023 0,0m4.022-.027c.106.01.106.01 0,0m-3.619,0c-.265.019-.265.019 0,0m3.195-.023c.215.013.215.013 0,0m-2.781,0c-.296.018-.296.018 0,0m2.364-.016c.269.011.269.011 0,0m-1.953,0c-.32.013-.32.013 0,0m1.505-.012c.344.01.344.01 0,0m-1.061,0c-.379.01-.379.01 0,0m.52-.01 0,0" fill="url(#aa)"/>
  <path d="m-359.55402,443.97342c-7.707,0-14.819,3.819-20.125,9.229 4.788,5.705 12.174,8.771 19.559,8.771 7.026,0 14.041-2.768 18.836-7.971 4.146-4.497-14.695-10.029-18.27-10.029m.029-2.38c-3.892,0-7.742.932-11.255,2.591-1.094.518-10.819,6.496-10.042,7.531 11.819-12.438 29.759-13.122 41.817-.635 .61-.991-7.195-5.841-8.014-6.277-3.844-2.046-8.142-3.21-12.506-3.21" fill="url(#z)"/>
  <path d="m-359.54 441.71c-4.01 0-24.454 6.34-20.139 11.495 11.269-11.487 28.084-12.1 39.56-0.567 4.128-5.253-15.486-10.928-19.421-10.928" fill="url(#y)"/>
  <path d="m-361.22502,441.39442c-2.395.161-21.988,6.878-19.643,10.259 5.098-5.567 11.989-9.731 19.643-10.259m2.106-.051c7.798.13 14.923,4.052 20.151,9.678 .777-1.197-7.099-5.999-8.236-6.593-3.679-1.916-7.762-3.018-11.915-3.085m-.422-.01c.561.01.561.01 0,0" fill="url(#x)"/>
  <path d="m-336.69 424.77c0 28.5-45.745 28.5-45.745 0s45.745-28.5 45.745 0" fill="#9cd305"/>
  <path d="m-374.91 416.52c5.099-5.981 13.903-7.535 21.268-5.69 8.458 2.119 12.836 8.799 14.121 17.09 1.861-11.988-8.225-22.393-20.051-22.393-11.846 0-21.896 10.411-20.051 22.402 0.618-4.02 2.036-8.272 4.713-11.409" fill="#c2ef20"/>
  <path d="m-345.08102,435.68842c-2.039,1.692-3.757,1.043-5.989.178-4.394-1.704-9.074-1.798-13.646-.772-2.975.667-6.551,2.211-9.428.417-4.273-2.665-6.863-8.581-7.473-13.381-1.793,13.718 10.484,25.003 23.872,23.955 12.074-.945 21.789-11.712 20.23-23.958-.684,5.295-3.468,10.161-7.566,13.561" fill="#7ec405"/>
  <path d="m-383.07 424.77c0 30.508 49.382 28.464 46.943-1.764-2.263-28.07-46.943-26.491-46.943 1.764m7.782 15.12c-20.717-19.92 11.573-49.342 31.443-30.235 20.597 19.806-11.447 49.447-31.443 30.235" fill="#76aa04"/>
 </g>
 <g transform="matrix(.32604 0 0 .42951 395.14 18.086)">
  <path d="m-117.44 296.65c0 19.397-18.678 26.147-35.312 25.662-18.615-0.545-34.454-10.404-31.796-30.811 2.264-17.375 16.054-37.169 35.509-35.913 19.877 1.287 31.599 23.077 31.599 41.062" fill="#d82a2a"/>
  <path d="m-150.74 256.29c-18.915 0-31.709 19.842-33.246 36.897-1.802 20.021 15.439 28.406 33.12 28.406-15.98 0-32.966-7.185-32.103-25.601 0.798-17.025 13.296-37.438 32.216-37.438 18.108 0 29.809 18.666 31.241 34.949 1.709 19.404-13.799 28.089-31.341 28.089 16.974 0 33.437-7.922 32.618-27.051-0.749-17.505-12.968-38.251-32.505-38.251" fill="#f00"/>
  <path d="m-175.31 268.04c-10.479 13.129-16.446 37.172-0.326 48.45 13.551 9.479 38.931 9.668 51.423-1.865 13.122-12.113 7.266-35.121-2.658-47.338-13.339-16.417-35.348-15.592-48.439 0.753m-8.98 29.218c0-19.277 14.901-43.735 36.849-40.872 18.787 2.451 29.361 22.976 29.361 40.264 0 34.2-66.21 34.227-66.21 0.608" fill="#970f00"/>
  <path d="m-150.79 312.51c-11.239 0-24.815-1.683-33.012-10.285 5.414 26.938 59.455 26.987 65.139 0.191-7.956 8.462-21.146 10.094-32.127 10.094" fill="#b20d0d"/>
  <path d="m-150.73 255.92c17.576-0.011 29.349 17.606 31.438 33.488 2.461 18.711-10.144 29.253-27.933 30.319-15.806 0.949-36.236-4.752-36.236-23.897 0-17.403 11.976-38.541 31.046-39.854-19.021 1.281-31.299 21.813-32.09 39.219-0.913 20.081 18.353 27.239 35.49 26.752 16.673-0.473 31.932-8.864 31.143-27.345-0.759-17.698-13.101-38.682-32.858-38.682" fill="#b20d0d"/>
  <path d="m-152.9391,254.99572c-.106.01-.106.01 0,0m4.044-.032c.112.01.112.01 0,0m-3.638-.001c-.186.014-.186.014 0,0m3.214-.023c.217.013.217.013 0,0m-2.797,0c-.25.015-.25.015 0,0m2.379-.018c.272.012.272.012 0,0m-1.962,0c-.294.012-.294.012 0,0m1.516-.012c.344.01.344.01 0,0m-1.067,0c-.368.01-.368.01 0,0m.525-.01 0,0" fill="url(#o)"/>
  <path d="m-150.7531,258.55372c-7.705,0-14.813,3.822-20.115,9.23 4.786,5.708 12.18,8.771 19.563,8.771 7.023,0 14.033-2.773 18.831-7.97 4.147-4.496-14.702-10.031-18.279-10.031m.028-2.378c-4.541,0-8.998,1.272-12.958,3.468-.917.508-8.927,5.789-8.33,6.651 11.815-12.44 29.763-13.116 41.819-.632 .616-.924-7.228-5.856-8.02-6.279-3.845-2.045-8.145-3.208-12.511-3.208" fill="url(#n)"/>
  <path d="m-150.74 256.29c-4.004 0-24.455 6.344-20.128 11.495 11.27-11.493 28.079-12.096 39.561-0.569 4.128-5.252-15.496-10.926-19.433-10.926" fill="url(#m)"/>
  <path d="m-150.73 254.9c-4.264 0-24.589 6.54-21.489 11.101 5.214-5.472 12.15-9.509 19.805-10.026-7.602 0.524-14.453 4.635-19.539 10.146 10.757-11.279 27.021-13.278 39.255-2.989-4.993-4.393-11.333-7.213-18.047-7.213 7.949-0.01 15.291 3.808 20.745 9.436 2.928-4.657-16.837-10.455-20.73-10.455" fill="url(#l)"/>
  <path d="m-152.41 255.98c-2.389 0.162-22.009 6.908-19.643 10.261 5.117-5.561 11.972-9.732 19.643-10.261m1.685-0.057c7.903-0.01 15.237 3.951 20.568 9.686 0.721-1.113-6.551-5.677-7.624-6.269-3.959-2.183-8.414-3.417-12.944-3.417" fill="url(#k)"/>
  <path d="m-127.89 239.35c0 28.5-45.744 28.5-45.744 0s45.744-28.5 45.744 0" fill="#d82a2a"/>
  <path d="m-166.1 231.11c5.099-5.981 13.903-7.534 21.269-5.69 8.456 2.119 12.84 8.799 14.12 17.09 1.862-11.988-8.223-22.393-20.05-22.393-11.848 0-21.896 10.411-20.052 22.403 0.618-4.021 2.036-8.273 4.713-11.41" fill="#f00"/>
  <path d="m-136.2731,250.27072c-2.04,1.692-3.757,1.043-5.99.178-4.394-1.704-9.073-1.798-13.645-.773-2.976.667-6.553,2.211-9.428.417-4.273-2.666-6.864-8.581-7.475-13.38-1.793,13.719 10.484,25.002 23.871,23.954 12.078-.945 21.79-11.711 20.232-23.958-.684,5.297-3.468,10.162-7.565,13.562" fill="#b20d0d"/>
  <path d="m-174.27 239.35c0 30.508 49.381 28.465 46.943-1.764-2.263-28.069-46.943-26.491-46.943 1.764m7.783 15.121c-20.72-19.918 11.572-49.343 31.443-30.236 20.596 19.807-11.453 49.457-31.443 30.236" fill="#970f00"/>
  <path d="m-184.2341,270.95472c-.051.01-.051.01 0,0m.38-.062c-.062.01-.062.01 0,0m.362-.054c-.045.01-.045.01 0,0m1.102-.132c-.222.023-.222.023 0,0m.401-.037c-.254.023-.254.023 0,0m4.02-.026c.104.01.104.01 0,0m-3.619,0c-.271.018-.271.018 0,0m3.195-.023c.214.012.214.012 0,0m-2.782,0c-.296.017-.296.017 0,0m2.364-.018c.27.012.27.012 0,0m-1.952,0c-.319.012-.319.012 0,0m1.505-.013c.343.01.343.01 0,0m-1.06,0c-.382.01-.382.01 0,0m.517-.01 0,0" fill="url(#j)"/>
 </g>
 <g transform="matrix(.32604 0 0 .42951 373.69 3.4593)">
  <path d="m-117.44 296.65c0 19.397-18.678 26.147-35.312 25.662-18.615-0.545-34.454-10.404-31.796-30.811 2.264-17.375 16.054-37.169 35.509-35.913 19.877 1.287 31.599 23.077 31.599 41.062" fill="#d82a2a"/>
  <path d="m-150.74 256.29c-18.915 0-31.709 19.842-33.246 36.897-1.802 20.021 15.439 28.406 33.12 28.406-15.98 0-32.966-7.185-32.103-25.601 0.798-17.025 13.296-37.438 32.216-37.438 18.108 0 29.809 18.666 31.241 34.949 1.709 19.404-13.799 28.089-31.341 28.089 16.974 0 33.437-7.922 32.618-27.051-0.749-17.505-12.968-38.251-32.505-38.251" fill="#f00"/>
  <path d="m-175.31 268.04c-10.479 13.129-16.446 37.172-0.326 48.45 13.551 9.479 38.931 9.668 51.423-1.865 13.122-12.113 7.266-35.121-2.658-47.338-13.339-16.417-35.348-15.592-48.439 0.753m-8.98 29.218c0-19.277 14.901-43.735 36.849-40.872 18.787 2.451 29.361 22.976 29.361 40.264 0 34.2-66.21 34.227-66.21 0.608" fill="#970f00"/>
  <path d="m-150.79 312.51c-11.239 0-24.815-1.683-33.012-10.285 5.414 26.938 59.455 26.987 65.139 0.191-7.956 8.462-21.146 10.094-32.127 10.094" fill="#b20d0d"/>
  <path d="m-150.73 255.92c17.576-0.011 29.349 17.606 31.438 33.488 2.461 18.711-10.144 29.253-27.933 30.319-15.806 0.949-36.236-4.752-36.236-23.897 0-17.403 11.976-38.541 31.046-39.854-19.021 1.281-31.299 21.813-32.09 39.219-0.913 20.081 18.353 27.239 35.49 26.752 16.673-0.473 31.932-8.864 31.143-27.345-0.759-17.698-13.101-38.682-32.858-38.682" fill="#b20d0d"/>
  <path d="m-152.9391,254.99572c-.106.01-.106.01 0,0m4.044-.032c.112.01.112.01 0,0m-3.638-.001c-.186.014-.186.014 0,0m3.214-.023c.217.013.217.013 0,0m-2.797,0c-.25.015-.25.015 0,0m2.379-.018c.272.012.272.012 0,0m-1.962,0c-.294.012-.294.012 0,0m1.516-.012c.344.01.344.01 0,0m-1.067,0c-.368.01-.368.01 0,0m.525-.01 0,0" fill="url(#o)"/>
  <path d="m-150.7531,258.55372c-7.705,0-14.813,3.822-20.115,9.23 4.786,5.708 12.18,8.771 19.563,8.771 7.023,0 14.033-2.773 18.831-7.97 4.147-4.496-14.702-10.031-18.279-10.031m.028-2.378c-4.541,0-8.998,1.272-12.958,3.468-.917.508-8.927,5.789-8.33,6.651 11.815-12.44 29.763-13.116 41.819-.632 .616-.924-7.228-5.856-8.02-6.279-3.845-2.045-8.145-3.208-12.511-3.208" fill="url(#n)"/>
  <path d="m-150.74 256.29c-4.004 0-24.455 6.344-20.128 11.495 11.27-11.493 28.079-12.096 39.561-0.569 4.128-5.252-15.496-10.926-19.433-10.926" fill="url(#m)"/>
  <path d="m-150.73 254.9c-4.264 0-24.589 6.54-21.489 11.101 5.214-5.472 12.15-9.509 19.805-10.026-7.602 0.524-14.453 4.635-19.539 10.146 10.757-11.279 27.021-13.278 39.255-2.989-4.993-4.393-11.333-7.213-18.047-7.213 7.949-0.01 15.291 3.808 20.745 9.436 2.928-4.657-16.837-10.455-20.73-10.455" fill="url(#l)"/>
  <path d="m-152.41 255.98c-2.389 0.162-22.009 6.908-19.643 10.261 5.117-5.561 11.972-9.732 19.643-10.261m1.685-0.057c7.903-0.01 15.237 3.951 20.568 9.686 0.721-1.113-6.551-5.677-7.624-6.269-3.959-2.183-8.414-3.417-12.944-3.417" fill="url(#k)"/>
  <path d="m-127.89 239.35c0 28.5-45.744 28.5-45.744 0s45.744-28.5 45.744 0" fill="#d82a2a"/>
  <path d="m-166.1 231.11c5.099-5.981 13.903-7.534 21.269-5.69 8.456 2.119 12.84 8.799 14.12 17.09 1.862-11.988-8.223-22.393-20.05-22.393-11.848 0-21.896 10.411-20.052 22.403 0.618-4.021 2.036-8.273 4.713-11.41" fill="#f00"/>
  <path d="m-136.2731,250.27072c-2.04,1.692-3.757,1.043-5.99.178-4.394-1.704-9.073-1.798-13.645-.773-2.976.667-6.553,2.211-9.428.417-4.273-2.666-6.864-8.581-7.475-13.38-1.793,13.719 10.484,25.002 23.871,23.954 12.078-.945 21.79-11.711 20.232-23.958-.684,5.297-3.468,10.162-7.565,13.562" fill="#b20d0d"/>
  <path d="m-174.27 239.35c0 30.508 49.381 28.465 46.943-1.764-2.263-28.069-46.943-26.491-46.943 1.764m7.783 15.121c-20.72-19.918 11.572-49.343 31.443-30.236 20.596 19.807-11.453 49.457-31.443 30.236" fill="#970f00"/>
  <path d="m-184.2341,270.95472c-.051.01-.051.01 0,0m.38-.062c-.062.01-.062.01 0,0m.362-.054c-.045.01-.045.01 0,0m1.102-.132c-.222.023-.222.023 0,0m.401-.037c-.254.023-.254.023 0,0m4.02-.026c.104.01.104.01 0,0m-3.619,0c-.271.018-.271.018 0,0m3.195-.023c.214.012.214.012 0,0m-2.782,0c-.296.017-.296.017 0,0m2.364-.018c.27.012.27.012 0,0m-1.952,0c-.319.012-.319.012 0,0m1.505-.013c.343.01.343.01 0,0m-1.06,0c-.382.01-.382.01 0,0m.517-.01 0,0" fill="url(#j)"/>
 </g>
 <g transform="matrix(.32604 0 0 .42951 355.17 15.16)">
  <path d="m-117.44 296.65c0 19.397-18.678 26.147-35.312 25.662-18.615-0.545-34.454-10.404-31.796-30.811 2.264-17.375 16.054-37.169 35.509-35.913 19.877 1.287 31.599 23.077 31.599 41.062" fill="#d82a2a"/>
  <path d="m-150.74 256.29c-18.915 0-31.709 19.842-33.246 36.897-1.802 20.021 15.439 28.406 33.12 28.406-15.98 0-32.966-7.185-32.103-25.601 0.798-17.025 13.296-37.438 32.216-37.438 18.108 0 29.809 18.666 31.241 34.949 1.709 19.404-13.799 28.089-31.341 28.089 16.974 0 33.437-7.922 32.618-27.051-0.749-17.505-12.968-38.251-32.505-38.251" fill="#f00"/>
  <path d="m-175.31 268.04c-10.479 13.129-16.446 37.172-0.326 48.45 13.551 9.479 38.931 9.668 51.423-1.865 13.122-12.113 7.266-35.121-2.658-47.338-13.339-16.417-35.348-15.592-48.439 0.753m-8.98 29.218c0-19.277 14.901-43.735 36.849-40.872 18.787 2.451 29.361 22.976 29.361 40.264 0 34.2-66.21 34.227-66.21 0.608" fill="#970f00"/>
  <path d="m-150.79 312.51c-11.239 0-24.815-1.683-33.012-10.285 5.414 26.938 59.455 26.987 65.139 0.191-7.956 8.462-21.146 10.094-32.127 10.094" fill="#b20d0d"/>
  <path d="m-150.73 255.92c17.576-0.011 29.349 17.606 31.438 33.488 2.461 18.711-10.144 29.253-27.933 30.319-15.806 0.949-36.236-4.752-36.236-23.897 0-17.403 11.976-38.541 31.046-39.854-19.021 1.281-31.299 21.813-32.09 39.219-0.913 20.081 18.353 27.239 35.49 26.752 16.673-0.473 31.932-8.864 31.143-27.345-0.759-17.698-13.101-38.682-32.858-38.682" fill="#b20d0d"/>
  <path d="m-152.9391,254.99572c-.106.01-.106.01 0,0m4.044-.032c.112.01.112.01 0,0m-3.638-.001c-.186.014-.186.014 0,0m3.214-.023c.217.013.217.013 0,0m-2.797,0c-.25.015-.25.015 0,0m2.379-.018c.272.012.272.012 0,0m-1.962,0c-.294.012-.294.012 0,0m1.516-.012c.344.01.344.01 0,0m-1.067,0c-.368.01-.368.01 0,0m.525-.01 0,0" fill="url(#o)"/>
  <path d="m-150.7531,258.55372c-7.705,0-14.813,3.822-20.115,9.23 4.786,5.708 12.18,8.771 19.563,8.771 7.023,0 14.033-2.773 18.831-7.97 4.147-4.496-14.702-10.031-18.279-10.031m.028-2.378c-4.541,0-8.998,1.272-12.958,3.468-.917.508-8.927,5.789-8.33,6.651 11.815-12.44 29.763-13.116 41.819-.632 .616-.924-7.228-5.856-8.02-6.279-3.845-2.045-8.145-3.208-12.511-3.208" fill="url(#n)"/>
  <path d="m-150.74 256.29c-4.004 0-24.455 6.344-20.128 11.495 11.27-11.493 28.079-12.096 39.561-0.569 4.128-5.252-15.496-10.926-19.433-10.926" fill="url(#m)"/>
  <path d="m-150.73 254.9c-4.264 0-24.589 6.54-21.489 11.101 5.214-5.472 12.15-9.509 19.805-10.026-7.602 0.524-14.453 4.635-19.539 10.146 10.757-11.279 27.021-13.278 39.255-2.989-4.993-4.393-11.333-7.213-18.047-7.213 7.949-0.01 15.291 3.808 20.745 9.436 2.928-4.657-16.837-10.455-20.73-10.455" fill="url(#l)"/>
  <path d="m-152.41 255.98c-2.389 0.162-22.009 6.908-19.643 10.261 5.117-5.561 11.972-9.732 19.643-10.261m1.685-0.057c7.903-0.01 15.237 3.951 20.568 9.686 0.721-1.113-6.551-5.677-7.624-6.269-3.959-2.183-8.414-3.417-12.944-3.417" fill="url(#k)"/>
  <path d="m-127.89 239.35c0 28.5-45.744 28.5-45.744 0s45.744-28.5 45.744 0" fill="#d82a2a"/>
  <path d="m-166.1 231.11c5.099-5.981 13.903-7.534 21.269-5.69 8.456 2.119 12.84 8.799 14.12 17.09 1.862-11.988-8.223-22.393-20.05-22.393-11.848 0-21.896 10.411-20.052 22.403 0.618-4.021 2.036-8.273 4.713-11.41" fill="#f00"/>
  <path d="m-136.2731,250.27072c-2.04,1.692-3.757,1.043-5.99.178-4.394-1.704-9.073-1.798-13.645-.773-2.976.667-6.553,2.211-9.428.417-4.273-2.666-6.864-8.581-7.475-13.38-1.793,13.719 10.484,25.002 23.871,23.954 12.078-.945 21.79-11.711 20.232-23.958-.684,5.297-3.468,10.162-7.565,13.562" fill="#b20d0d"/>
  <path d="m-174.27 239.35c0 30.508 49.381 28.465 46.943-1.764-2.263-28.069-46.943-26.491-46.943 1.764m7.783 15.121c-20.72-19.918 11.572-49.343 31.443-30.236 20.596 19.807-11.453 49.457-31.443 30.236" fill="#970f00"/>
  <path d="m-184.2341,270.95472c-.051.01-.051.01 0,0m.38-.062c-.062.01-.062.01 0,0m.362-.054c-.045.01-.045.01 0,0m1.102-.132c-.222.023-.222.023 0,0m.401-.037c-.254.023-.254.023 0,0m4.02-.026c.104.01.104.01 0,0m-3.619,0c-.271.018-.271.018 0,0m3.195-.023c.214.012.214.012 0,0m-2.782,0c-.296.017-.296.017 0,0m2.364-.018c.27.012.27.012 0,0m-1.952,0c-.319.012-.319.012 0,0m1.505-.013c.343.01.343.01 0,0m-1.06,0c-.382.01-.382.01 0,0m.517-.01 0,0" fill="url(#j)"/>
 </g>
 <g transform="matrix(.32604 0 0 .42951 375.64 28.811)">
  <path d="m-117.44 296.65c0 19.397-18.678 26.147-35.312 25.662-18.615-0.545-34.454-10.404-31.796-30.811 2.264-17.375 16.054-37.169 35.509-35.913 19.877 1.287 31.599 23.077 31.599 41.062" fill="#d82a2a"/>
  <path d="m-150.74 256.29c-18.915 0-31.709 19.842-33.246 36.897-1.802 20.021 15.439 28.406 33.12 28.406-15.98 0-32.966-7.185-32.103-25.601 0.798-17.025 13.296-37.438 32.216-37.438 18.108 0 29.809 18.666 31.241 34.949 1.709 19.404-13.799 28.089-31.341 28.089 16.974 0 33.437-7.922 32.618-27.051-0.749-17.505-12.968-38.251-32.505-38.251" fill="#f00"/>
  <path d="m-175.31 268.04c-10.479 13.129-16.446 37.172-0.326 48.45 13.551 9.479 38.931 9.668 51.423-1.865 13.122-12.113 7.266-35.121-2.658-47.338-13.339-16.417-35.348-15.592-48.439 0.753m-8.98 29.218c0-19.277 14.901-43.735 36.849-40.872 18.787 2.451 29.361 22.976 29.361 40.264 0 34.2-66.21 34.227-66.21 0.608" fill="#970f00"/>
  <path d="m-150.79 312.51c-11.239 0-24.815-1.683-33.012-10.285 5.414 26.938 59.455 26.987 65.139 0.191-7.956 8.462-21.146 10.094-32.127 10.094" fill="#b20d0d"/>
  <path d="m-150.73 255.92c17.576-0.011 29.349 17.606 31.438 33.488 2.461 18.711-10.144 29.253-27.933 30.319-15.806 0.949-36.236-4.752-36.236-23.897 0-17.403 11.976-38.541 31.046-39.854-19.021 1.281-31.299 21.813-32.09 39.219-0.913 20.081 18.353 27.239 35.49 26.752 16.673-0.473 31.932-8.864 31.143-27.345-0.759-17.698-13.101-38.682-32.858-38.682" fill="#b20d0d"/>
  <path d="m-152.9391,254.99572c-.106.01-.106.01 0,0m4.044-.032c.112.01.112.01 0,0m-3.638-.001c-.186.014-.186.014 0,0m3.214-.023c.217.013.217.013 0,0m-2.797,0c-.25.015-.25.015 0,0m2.379-.018c.272.012.272.012 0,0m-1.962,0c-.294.012-.294.012 0,0m1.516-.012c.344.01.344.01 0,0m-1.067,0c-.368.01-.368.01 0,0m.525-.01 0,0" fill="url(#o)"/>
  <path d="m-150.7531,258.55372c-7.705,0-14.813,3.822-20.115,9.23 4.786,5.708 12.18,8.771 19.563,8.771 7.023,0 14.033-2.773 18.831-7.97 4.147-4.496-14.702-10.031-18.279-10.031m.028-2.378c-4.541,0-8.998,1.272-12.958,3.468-.917.508-8.927,5.789-8.33,6.651 11.815-12.44 29.763-13.116 41.819-.632 .616-.924-7.228-5.856-8.02-6.279-3.845-2.045-8.145-3.208-12.511-3.208" fill="url(#n)"/>
  <path d="m-150.74 256.29c-4.004 0-24.455 6.344-20.128 11.495 11.27-11.493 28.079-12.096 39.561-0.569 4.128-5.252-15.496-10.926-19.433-10.926" fill="url(#m)"/>
  <path d="m-150.73 254.9c-4.264 0-24.589 6.54-21.489 11.101 5.214-5.472 12.15-9.509 19.805-10.026-7.602 0.524-14.453 4.635-19.539 10.146 10.757-11.279 27.021-13.278 39.255-2.989-4.993-4.393-11.333-7.213-18.047-7.213 7.949-0.01 15.291 3.808 20.745 9.436 2.928-4.657-16.837-10.455-20.73-10.455" fill="url(#l)"/>
  <path d="m-152.41 255.98c-2.389 0.162-22.009 6.908-19.643 10.261 5.117-5.561 11.972-9.732 19.643-10.261m1.685-0.057c7.903-0.01 15.237 3.951 20.568 9.686 0.721-1.113-6.551-5.677-7.624-6.269-3.959-2.183-8.414-3.417-12.944-3.417" fill="url(#k)"/>
  <path d="m-127.89 239.35c0 28.5-45.744 28.5-45.744 0s45.744-28.5 45.744 0" fill="#d82a2a"/>
  <path d="m-166.1 231.11c5.099-5.981 13.903-7.534 21.269-5.69 8.456 2.119 12.84 8.799 14.12 17.09 1.862-11.988-8.223-22.393-20.05-22.393-11.848 0-21.896 10.411-20.052 22.403 0.618-4.021 2.036-8.273 4.713-11.41" fill="#f00"/>
  <path d="m-136.2731,250.27072c-2.04,1.692-3.757,1.043-5.99.178-4.394-1.704-9.073-1.798-13.645-.773-2.976.667-6.553,2.211-9.428.417-4.273-2.666-6.864-8.581-7.475-13.38-1.793,13.719 10.484,25.002 23.871,23.954 12.078-.945 21.79-11.711 20.232-23.958-.684,5.297-3.468,10.162-7.565,13.562" fill="#b20d0d"/>
  <path d="m-174.27 239.35c0 30.508 49.381 28.465 46.943-1.764-2.263-28.069-46.943-26.491-46.943 1.764m7.783 15.121c-20.72-19.918 11.572-49.343 31.443-30.236 20.596 19.807-11.453 49.457-31.443 30.236" fill="#970f00"/>
  <path d="m-184.2341,270.95472c-.051.01-.051.01 0,0m.38-.062c-.062.01-.062.01 0,0m.362-.054c-.045.01-.045.01 0,0m1.102-.132c-.222.023-.222.023 0,0m.401-.037c-.254.023-.254.023 0,0m4.02-.026c.104.01.104.01 0,0m-3.619,0c-.271.018-.271.018 0,0m3.195-.023c.214.012.214.012 0,0m-2.782,0c-.296.017-.296.017 0,0m2.364-.018c.27.012.27.012 0,0m-1.952,0c-.319.012-.319.012 0,0m1.505-.013c.343.01.343.01 0,0m-1.06,0c-.382.01-.382.01 0,0m.517-.01 0,0" fill="url(#j)"/>
 </g>
 <g transform="matrix(.2485 0 0 .328 37.571 72.988)">
  <path d="m89.663 104.35c0 25.32-24.241 34.301-46.02 33.773-23.946-0.577-45.331-12.863-42.398-39.396 2.557-23.132 20.633-49.832 46.505-48.418 26.331 1.441 41.913 30.276 41.913 54.041" fill="url(#i)"/>
  <path d="m45.875,51.235c-25.185,0-42.102,26.656-43.829,49.355-1.972,25.941 20.864,36.565 43.643,36.565-22.053,0-44.093-10.308-42.134-35.408 1.708-21.871 18.026-47.52 42.288-47.52 24.134,0 39.567,25.108 41.168,46.794 1.855,25.154-18.699,36.134-41.308,36.134 22.095.012 43.832-10.234 42.93-35.193-.837-23.135-16.912-50.727-42.758-50.727" fill="#b4d7f9"/>
  <path d="m42.788,49.559c-.444.041-.444.041 0,0m6.065-.01c5.766.495 11.331,2.459 16.263,5.463 6.408,3.903 8.139,7.64 12.197,13.041 7.749,10.314 11.856,23.316 11.856,36.185 0,24.122-22.422,33.412-43.449,33.412-19.569,0-43.094-7.879-44.285-30.733-.658-12.659 3.543-25.772 10.7-36.146 4.008-5.811 6.08-9.971 11.98-14.121 5.404-3.802 11.68-6.39 18.28-7.054-26.668,2.676-44.523,33.924-42.19,58.856 2.294,24.495 29.295,31.477 49.976,30.406 21.824-1.131 41.105-12.926 40.282-36.753-.807-23.35-16.098-50.371-41.61-52.556m-5.573-.03c-.389.032-.389.032 0,0m5.158-.004c.479.039.479.039 0,0m-.473-.03c.396.022.396.022 0,0m-4.179,0c-.361.022-.361.022 0,0m3.673-.027c.325.013.325.013 0,0m-3.147-.002c-.345.015-.345.015 0,0m2.622-.018c.297.008.297.008 0,0m-2.106,0c-.325.008-.325.008 0,0m1.575-.014c.251.005.251.005 0,0m-1.051,0c-.265.005-.265.005 0,0" fill="url(#c)"/>
  <path d="m45.798,125.209c-14.792,0-32.648-2.215-43.436-13.529 3.803,18.916 24.051,25.167 41.032,25.6 18.127.461 40.338-4.932 44.669-25.35-10.467,11.13-27.819,13.279-42.265,13.279" fill="url(#h)"/>
  <path d="m45.875,50.754c23.601-.014 39.16,23.995 41.51,45.295 2.809,25.45-16.037,38.181-39.607,38.77-20.22.505-44.963-7.495-44.963-31.558 0-22.887 15.755-50.714 40.843-52.429-25.174,1.681-41.352,28.998-42.23,52.015-.993,26.045 24.14,35.317 46.357,34.778 22.988-.555 43.005-12.357 41.235-37.618-1.596-22.785-17.775-49.253-43.145-49.253" fill="#4f91e0"/>
  <path d="m42.455,49.589c-.08.009-.08.009 0,0m6.342-.045c.074.007.074.007 0,0m-5.809-.002c-.267.022-.267.022 0,0m5.274-.04c.235.018.235.018 0,0m-4.747,0c-.315.022-.315.022 0,0m4.188-.034c.351.022.351.022 0,0m-3.651,0c-.355.022-.355.022 0,0m.532-.024c-.363.016-.363.016 0,0m2.573,0c.403.019.403.019 0,0m-2.004-.016c-.432.013-.432.013 0,0m1.439,0c.456.013.456.013 0,0m-.717-.007 0,0" fill="url(#g)"/>
  <path d="m45.843,54.229c-10.134,0-19.485,5.02-26.464,12.132 6.298,7.514 16.017,11.539 25.735,11.539 9.354,0 18.69-3.739 25.001-10.736 5.041-5.591-19.855-12.935-24.272-12.935m.032-3.133c-5.837,0-11.576,1.592-16.697,4.362-1.262.684-12.129,7.748-11.305,8.946 15.547-16.363 39.152-17.268 55.014-.838 .881-1.235-10.036-7.999-11.224-8.601-4.886-2.475-10.301-3.869-15.788-3.869" fill="url(#b)"/>
  <path d="m45.875,51.235c-5.27,0-32.187,8.372-26.496,15.125 14.824-15.108 36.939-15.902 52.041-.748 5.408-6.917-20.348-14.377-25.545-14.377" fill="url(#f)"/>
  <path d="m43.657,50.832c-5.273.352-10.397,1.993-15.011,4.548-1.462.812-11.85,7.499-10.828,8.947 6.592-7.367 15.851-12.812 25.839-13.495m2.218-.078c10.4-.005 20.057,5.192 27.058,12.742 .973-1.528-8.883-7.632-10.347-8.421-5.129-2.766-10.874-4.321-16.711-4.321" fill="url(#e)"/>
  <path d="m75.925 28.961c0 16.247-14.193 28.933-30.092 28.933s-30.091-12.686-30.091-28.933 14.189-28.937 30.091-28.937 30.092 12.688 30.092 28.937" fill="url(#d)"/>
  <path d="m25.654,18.108c6.855-8.039 18.826-10.023 28.663-7.305 10.791,2.98 16.251,11.688 17.897,22.302 2.451-15.774-10.823-29.458-26.381-29.458-15.585,0-28.804,13.692-26.38,29.471 .813-5.29 2.68-10.885 6.201-15.01" fill="#b4d7f9"/>
  <path d="m64.893,43.321c-3.056,2.538-5.649,1.01-8.924-.155-5.748-2.043-11.88-1.831-17.747-.432-4.489,1.071-9.274,2.821-13.076-.836-4.534-4.357-7.527-10.166-8.323-16.414-2.419,18.69 14.858,33.722 32.975,31.352 15.223-1.991 27.03-15.857 25.047-31.355-.9,6.966-4.562,13.368-9.952,17.84" fill="#68a0f2"/>
  <path d="m14.907 28.961c0 18.296 17.274 31.703 34.953 29.483 15.477-1.944 27.91-15.588 26.835-31.436-2.519-37.195-61.788-35.431-61.788 1.953m10.239 19.891c-11.797-11.341-11.044-30.495 1.375-41.01 11.456-9.7 29.164-9.18 39.993 1.232 10.714 10.306 11.339 27.472 1.281 38.456-11.065 12.084-30.827 12.686-42.649 1.322" fill="url(#a)"/>
 </g>
 <g transform="matrix(.2485 0 0 .328 18.07 85.664)">
  <path d="m89.663 104.35c0 25.32-24.241 34.301-46.02 33.773-23.946-0.577-45.331-12.863-42.398-39.396 2.557-23.132 20.633-49.832 46.505-48.418 26.331 1.441 41.913 30.276 41.913 54.041" fill="url(#i)"/>
  <path d="m45.875,51.235c-25.185,0-42.102,26.656-43.829,49.355-1.972,25.941 20.864,36.565 43.643,36.565-22.053,0-44.093-10.308-42.134-35.408 1.708-21.871 18.026-47.52 42.288-47.52 24.134,0 39.567,25.108 41.168,46.794 1.855,25.154-18.699,36.134-41.308,36.134 22.095.012 43.832-10.234 42.93-35.193-.837-23.135-16.912-50.727-42.758-50.727" fill="#b4d7f9"/>
  <path d="m42.788,49.559c-.444.041-.444.041 0,0m6.065-.01c5.766.495 11.331,2.459 16.263,5.463 6.408,3.903 8.139,7.64 12.197,13.041 7.749,10.314 11.856,23.316 11.856,36.185 0,24.122-22.422,33.412-43.449,33.412-19.569,0-43.094-7.879-44.285-30.733-.658-12.659 3.543-25.772 10.7-36.146 4.008-5.811 6.08-9.971 11.98-14.121 5.404-3.802 11.68-6.39 18.28-7.054-26.668,2.676-44.523,33.924-42.19,58.856 2.294,24.495 29.295,31.477 49.976,30.406 21.824-1.131 41.105-12.926 40.282-36.753-.807-23.35-16.098-50.371-41.61-52.556m-5.573-.03c-.389.032-.389.032 0,0m5.158-.004c.479.039.479.039 0,0m-.473-.03c.396.022.396.022 0,0m-4.179,0c-.361.022-.361.022 0,0m3.673-.027c.325.013.325.013 0,0m-3.147-.002c-.345.015-.345.015 0,0m2.622-.018c.297.008.297.008 0,0m-2.106,0c-.325.008-.325.008 0,0m1.575-.014c.251.005.251.005 0,0m-1.051,0c-.265.005-.265.005 0,0" fill="url(#c)"/>
  <path d="m45.798,125.209c-14.792,0-32.648-2.215-43.436-13.529 3.803,18.916 24.051,25.167 41.032,25.6 18.127.461 40.338-4.932 44.669-25.35-10.467,11.13-27.819,13.279-42.265,13.279" fill="url(#h)"/>
  <path d="m45.875,50.754c23.601-.014 39.16,23.995 41.51,45.295 2.809,25.45-16.037,38.181-39.607,38.77-20.22.505-44.963-7.495-44.963-31.558 0-22.887 15.755-50.714 40.843-52.429-25.174,1.681-41.352,28.998-42.23,52.015-.993,26.045 24.14,35.317 46.357,34.778 22.988-.555 43.005-12.357 41.235-37.618-1.596-22.785-17.775-49.253-43.145-49.253" fill="#4f91e0"/>
  <path d="m42.455,49.589c-.08.009-.08.009 0,0m6.342-.045c.074.007.074.007 0,0m-5.809-.002c-.267.022-.267.022 0,0m5.274-.04c.235.018.235.018 0,0m-4.747,0c-.315.022-.315.022 0,0m4.188-.034c.351.022.351.022 0,0m-3.651,0c-.355.022-.355.022 0,0m.532-.024c-.363.016-.363.016 0,0m2.573,0c.403.019.403.019 0,0m-2.004-.016c-.432.013-.432.013 0,0m1.439,0c.456.013.456.013 0,0m-.717-.007 0,0" fill="url(#g)"/>
  <path d="m45.843,54.229c-10.134,0-19.485,5.02-26.464,12.132 6.298,7.514 16.017,11.539 25.735,11.539 9.354,0 18.69-3.739 25.001-10.736 5.041-5.591-19.855-12.935-24.272-12.935m.032-3.133c-5.837,0-11.576,1.592-16.697,4.362-1.262.684-12.129,7.748-11.305,8.946 15.547-16.363 39.152-17.268 55.014-.838 .881-1.235-10.036-7.999-11.224-8.601-4.886-2.475-10.301-3.869-15.788-3.869" fill="url(#b)"/>
  <path d="m45.875,51.235c-5.27,0-32.187,8.372-26.496,15.125 14.824-15.108 36.939-15.902 52.041-.748 5.408-6.917-20.348-14.377-25.545-14.377" fill="url(#f)"/>
  <path d="m43.657,50.832c-5.273.352-10.397,1.993-15.011,4.548-1.462.812-11.85,7.499-10.828,8.947 6.592-7.367 15.851-12.812 25.839-13.495m2.218-.078c10.4-.005 20.057,5.192 27.058,12.742 .973-1.528-8.883-7.632-10.347-8.421-5.129-2.766-10.874-4.321-16.711-4.321" fill="url(#e)"/>
  <path d="m75.925 28.961c0 16.247-14.193 28.933-30.092 28.933s-30.091-12.686-30.091-28.933 14.189-28.937 30.091-28.937 30.092 12.688 30.092 28.937" fill="url(#d)"/>
  <path d="m25.654,18.108c6.855-8.039 18.826-10.023 28.663-7.305 10.791,2.98 16.251,11.688 17.897,22.302 2.451-15.774-10.823-29.458-26.381-29.458-15.585,0-28.804,13.692-26.38,29.471 .813-5.29 2.68-10.885 6.201-15.01" fill="#b4d7f9"/>
  <path d="m64.893,43.321c-3.056,2.538-5.649,1.01-8.924-.155-5.748-2.043-11.88-1.831-17.747-.432-4.489,1.071-9.274,2.821-13.076-.836-4.534-4.357-7.527-10.166-8.323-16.414-2.419,18.69 14.858,33.722 32.975,31.352 15.223-1.991 27.03-15.857 25.047-31.355-.9,6.966-4.562,13.368-9.952,17.84" fill="#68a0f2"/>
  <path d="m14.907 28.961c0 18.296 17.274 31.703 34.953 29.483 15.477-1.944 27.91-15.588 26.835-31.436-2.519-37.195-61.788-35.431-61.788 1.953m10.239 19.891c-11.797-11.341-11.044-30.495 1.375-41.01 11.456-9.7 29.164-9.18 39.993 1.232 10.714 10.306 11.339 27.472 1.281 38.456-11.065 12.084-30.827 12.686-42.649 1.322" fill="url(#a)"/>
 </g>
 <g transform="matrix(.2485 0 0 .328 55.123 88.589)">
  <path d="m89.663 104.35c0 25.32-24.241 34.301-46.02 33.773-23.946-0.577-45.331-12.863-42.398-39.396 2.557-23.132 20.633-49.832 46.505-48.418 26.331 1.441 41.913 30.276 41.913 54.041" fill="url(#i)"/>
  <path d="m45.875,51.235c-25.185,0-42.102,26.656-43.829,49.355-1.972,25.941 20.864,36.565 43.643,36.565-22.053,0-44.093-10.308-42.134-35.408 1.708-21.871 18.026-47.52 42.288-47.52 24.134,0 39.567,25.108 41.168,46.794 1.855,25.154-18.699,36.134-41.308,36.134 22.095.012 43.832-10.234 42.93-35.193-.837-23.135-16.912-50.727-42.758-50.727" fill="#b4d7f9"/>
  <path d="m42.788,49.559c-.444.041-.444.041 0,0m6.065-.01c5.766.495 11.331,2.459 16.263,5.463 6.408,3.903 8.139,7.64 12.197,13.041 7.749,10.314 11.856,23.316 11.856,36.185 0,24.122-22.422,33.412-43.449,33.412-19.569,0-43.094-7.879-44.285-30.733-.658-12.659 3.543-25.772 10.7-36.146 4.008-5.811 6.08-9.971 11.98-14.121 5.404-3.802 11.68-6.39 18.28-7.054-26.668,2.676-44.523,33.924-42.19,58.856 2.294,24.495 29.295,31.477 49.976,30.406 21.824-1.131 41.105-12.926 40.282-36.753-.807-23.35-16.098-50.371-41.61-52.556m-5.573-.03c-.389.032-.389.032 0,0m5.158-.004c.479.039.479.039 0,0m-.473-.03c.396.022.396.022 0,0m-4.179,0c-.361.022-.361.022 0,0m3.673-.027c.325.013.325.013 0,0m-3.147-.002c-.345.015-.345.015 0,0m2.622-.018c.297.008.297.008 0,0m-2.106,0c-.325.008-.325.008 0,0m1.575-.014c.251.005.251.005 0,0m-1.051,0c-.265.005-.265.005 0,0" fill="url(#c)"/>
  <path d="m45.798,125.209c-14.792,0-32.648-2.215-43.436-13.529 3.803,18.916 24.051,25.167 41.032,25.6 18.127.461 40.338-4.932 44.669-25.35-10.467,11.13-27.819,13.279-42.265,13.279" fill="url(#h)"/>
  <path d="m45.875,50.754c23.601-.014 39.16,23.995 41.51,45.295 2.809,25.45-16.037,38.181-39.607,38.77-20.22.505-44.963-7.495-44.963-31.558 0-22.887 15.755-50.714 40.843-52.429-25.174,1.681-41.352,28.998-42.23,52.015-.993,26.045 24.14,35.317 46.357,34.778 22.988-.555 43.005-12.357 41.235-37.618-1.596-22.785-17.775-49.253-43.145-49.253" fill="#4f91e0"/>
  <path d="m42.455,49.589c-.08.009-.08.009 0,0m6.342-.045c.074.007.074.007 0,0m-5.809-.002c-.267.022-.267.022 0,0m5.274-.04c.235.018.235.018 0,0m-4.747,0c-.315.022-.315.022 0,0m4.188-.034c.351.022.351.022 0,0m-3.651,0c-.355.022-.355.022 0,0m.532-.024c-.363.016-.363.016 0,0m2.573,0c.403.019.403.019 0,0m-2.004-.016c-.432.013-.432.013 0,0m1.439,0c.456.013.456.013 0,0m-.717-.007 0,0" fill="url(#g)"/>
  <path d="m45.843,54.229c-10.134,0-19.485,5.02-26.464,12.132 6.298,7.514 16.017,11.539 25.735,11.539 9.354,0 18.69-3.739 25.001-10.736 5.041-5.591-19.855-12.935-24.272-12.935m.032-3.133c-5.837,0-11.576,1.592-16.697,4.362-1.262.684-12.129,7.748-11.305,8.946 15.547-16.363 39.152-17.268 55.014-.838 .881-1.235-10.036-7.999-11.224-8.601-4.886-2.475-10.301-3.869-15.788-3.869" fill="url(#b)"/>
  <path d="m45.875,51.235c-5.27,0-32.187,8.372-26.496,15.125 14.824-15.108 36.939-15.902 52.041-.748 5.408-6.917-20.348-14.377-25.545-14.377" fill="url(#f)"/>
  <path d="m43.657,50.832c-5.273.352-10.397,1.993-15.011,4.548-1.462.812-11.85,7.499-10.828,8.947 6.592-7.367 15.851-12.812 25.839-13.495m2.218-.078c10.4-.005 20.057,5.192 27.058,12.742 .973-1.528-8.883-7.632-10.347-8.421-5.129-2.766-10.874-4.321-16.711-4.321" fill="url(#e)"/>
  <path d="m75.925 28.961c0 16.247-14.193 28.933-30.092 28.933s-30.091-12.686-30.091-28.933 14.189-28.937 30.091-28.937 30.092 12.688 30.092 28.937" fill="url(#d)"/>
  <path d="m25.654,18.108c6.855-8.039 18.826-10.023 28.663-7.305 10.791,2.98 16.251,11.688 17.897,22.302 2.451-15.774-10.823-29.458-26.381-29.458-15.585,0-28.804,13.692-26.38,29.471 .813-5.29 2.68-10.885 6.201-15.01" fill="#b4d7f9"/>
  <path d="m64.893,43.321c-3.056,2.538-5.649,1.01-8.924-.155-5.748-2.043-11.88-1.831-17.747-.432-4.489,1.071-9.274,2.821-13.076-.836-4.534-4.357-7.527-10.166-8.323-16.414-2.419,18.69 14.858,33.722 32.975,31.352 15.223-1.991 27.03-15.857 25.047-31.355-.9,6.966-4.562,13.368-9.952,17.84" fill="#68a0f2"/>
  <path d="m14.907 28.961c0 18.296 17.274 31.703 34.953 29.483 15.477-1.944 27.91-15.588 26.835-31.436-2.519-37.195-61.788-35.431-61.788 1.953m10.239 19.891c-11.797-11.341-11.044-30.495 1.375-41.01 11.456-9.7 29.164-9.18 39.993 1.232 10.714 10.306 11.339 27.472 1.281 38.456-11.065 12.084-30.827 12.686-42.649 1.322" fill="url(#a)"/>
 </g>
 <g transform="matrix(.33091 0 0 .4317 322.81 81.711)">
  <path d="m-305.05164,259.87112c-.106.01-.106.01 0,0m4.044-.032c.112.01.112.01 0,0m-3.638-.001c-.186.014-.186.014 0,0m3.214-.023c.217.013.217.013 0,0m-2.797,0c-.25.015-.25.015 0,0m2.379-.018c.272.012.272.012 0,0m-1.962,0c-.294.012-.294.012 0,0m1.516-.012c.344.01.344.01 0,0m-1.067,0c-.368.01-.368.01 0,0m.525-.01 0,0" fill="url(#w)"/>
  <path d="m-298.63 317.22c0 19.389-18.691 26.134-35.311 25.647-18.618-0.544-34.454-10.403-31.795-30.809 2.264-17.377 16.052-37.169 35.507-35.913 19.881 1.288 31.599 23.088 31.599 41.075" fill="#ffce00"/>
  <path d="m-331.93 276.84c-18.916 0-31.714 19.842-33.249 36.896-1.802 20.016 15.43 28.407 33.106 28.407-15.981 0-32.952-7.188-32.087-25.602 0.797-17.024 13.295-37.435 32.215-37.435 18.108 0 29.797 18.667 31.229 34.949 1.705 19.4-13.786 28.088-31.329 28.088 16.971 0 33.422-7.93 32.603-27.051-0.75-17.497-12.958-38.252-32.488-38.252" fill="#ffe600"/>
  <path d="m-353.25064,286.79212c-.034.041-.012.014 0,0m16.865-10.957c-9.217,1.574-16.905,7.862-22.079,15.417 1.956.185 2.466-1.763 3.673-3.164 1.745-2.03 1.441-3.216 4.028-5.37 4.13-3.439 9.052-5.971 14.378-6.883m.372-.061c-.444.073-.444.073 0,0m.375-.056c-.438.067-.438.067 0,0m.97-.119-.936.115 .936-.115m.376-.038c-.28.027-.28.027 0,0m.389-.032c-.264.02-.264.02 0,0m3.901-.01c19.561,1.427 30.989,23.447 30.989,41.595 0,7.52101-2.993,14.54801-9.154,19.03201-3.005,2.189-6.472,3.678-10.042,4.663-2.47.682-10.089.647-10.976,2.658 19.296-.833 33.369-12.056 30.805-32.40901-2.073-16.453-13.729-34.203-31.622-35.539m-3.507-.02c-.254.017-.254.017 0,0m3.164,0c.352.023.352.023 0,0m-2.769-.02c-.229.012-.229.012 0,0m2.394,0c.286.014.286.014 0,0m-1.996-.015c-.211.01-.211.01 0,0m1.604,0c.251.01.251.01 0,0m-.395-.01c.184.01.184.01 0,0m-.811,0c-.149.01-.149.01 0,0" fill="url(#v)"/>
  <path d="m-331.98 333.07c-11.241 0-24.817-1.682-33.014-10.285 5.414 26.938 59.457 26.985 65.14 0.188-7.956 8.463-21.146 10.097-32.126 10.097" fill="#ffb600"/>
  <path d="m-331.93 276.47c18.354 0 30.211 18.917 31.663 35.421 1.654 18.79-12.672 27.961-29.947 28.468-15.426 0.452-34.445-5.574-34.445-23.979 0-17.396 11.979-38.539 31.042-39.853-19.015 1.28-31.284 21.821-32.075 39.219-0.913 20.08 18.351 27.24 35.49 26.753 16.671-0.474 31.935-8.863 31.144-27.345-0.76-17.699-13.122-38.684-32.872-38.684" fill="#c68526"/>
  <path d="m-336.34664,275.83012c-.051.01-.051.01 0,0m.38-.062c-.062.01-.062.01 0,0m.362-.054c-.045.01-.045.01 0,0m1.102-.132c-.222.023-.222.023 0,0m.401-.037c-.254.023-.254.023 0,0m4.02-.026c.104.01.104.01 0,0m-3.619,0c-.271.018-.271.018 0,0m3.195-.023c.214.012.214.012 0,0m-2.782,0c-.296.017-.296.017 0,0m2.364-.018c.27.012.27.012 0,0m-1.952,0c-.319.012-.319.012 0,0m1.505-.013c.343.01.343.01 0,0m-1.06,0c-.382.01-.382.01 0,0m.517-.01 0,0" fill="url(#u)"/>
  <path d="m-331.94164,279.10812c-7.707,0-14.817,3.823-20.12,9.234 4.795,5.702 12.184,8.751 19.567,8.751 7.021,0 14.03-2.765 18.829-7.955 4.152-4.492-14.698-10.03-18.276-10.03m.028-2.38c-3.892,0-7.74.932-11.254,2.591-1.09.515-10.82,6.521-10.04,7.535 11.819-12.446 29.767-13.125 41.821-.63 .564-.877-6.644-5.525-7.424-5.963-3.996-2.243-8.509-3.533-13.103-3.533" fill="url(#t)"/>
  <path d="m-331.93 276.84c-4.008 0-24.465 6.348-20.135 11.5 11.266-11.498 28.084-12.104 39.563-0.572 4.124-5.248-15.493-10.928-19.428-10.928" fill="url(#s)"/>
  <path d="m-333.61364,276.53012c-2.392.161-21.993,6.896-19.637,10.262 5.097-5.567 11.985-9.735 19.637-10.262m2.106-.052c7.809.13 14.925,4.054 20.163,9.681 .771-1.178-7.116-6.005-8.243-6.592-3.68-1.918-7.765-3.022-11.92-3.089m-.419-.01c.56.01.56.01 0,0" fill="url(#r)"/>
  <path d="m-309.08 259.91c0 28.499-45.746 28.499-45.746 0s45.746-28.5 45.746 0" fill="#ffce00"/>
  <path d="m-347.29 251.66c5.098-5.981 13.902-7.535 21.268-5.69 8.46 2.117 12.833 8.8 14.121 17.09 1.858-11.987-8.225-22.392-20.051-22.392-11.86 0-21.874 10.408-20.053 22.401 0.618-4.021 2.037-8.273 4.715-11.409" fill="#ffe600"/>
  <path d="m-317.46364,270.82412c-2.039,1.691-3.757,1.043-5.989.178-4.395-1.703-9.073-1.797-13.646-.771-2.977.667-6.552,2.211-9.431.417-4.274-2.665-6.861-8.583-7.473-13.38-1.797,13.719 10.49,24.999 23.872,23.951 12.089-.946 21.771-11.707 20.231-23.955-.684,5.294-3.469,10.159-7.564,13.56" fill="#ffb600"/>
  <path d="m-355.46 259.91c0 30.51 49.38 28.465 46.944-1.764-2.264-28.07-46.944-26.492-46.944 1.764m7.781 15.122c-20.709-19.929 11.574-49.348 31.443-30.239 20.597 19.81-11.441 49.443-31.443 30.239" fill="url(#q)"/>
  <path d="m-363.58164,291.25912c-.183.019-.183.019 0,0m.402-.036c-.241.023-.241.023 0,0m4.022-.027c.106.01.106.01 0,0m-3.619,0c-.265.019-.265.019 0,0m3.195-.023c.215.013.215.013 0,0m-2.781,0c-.296.018-.296.018 0,0m2.364-.016c.269.011.269.011 0,0m-1.953,0c-.32.013-.32.013 0,0m1.505-.012c.344.01.344.01 0,0m-1.061,0c-.379.01-.379.01 0,0m.52-.01 0,0" fill="url(#p)"/>
 </g>
 <path transform="matrix(.97191 .23536 -.23536 .97191 517.14 9.243)" d="m-203.79 143.23c0 3.5004-3.929 6.338-8.7757 6.338s-8.7757-2.8376-8.7757-6.338 3.929-6.338 8.7757-6.338 8.7757 2.8376 8.7757 6.338z" fill="#f00" stroke="#000" stroke-linecap="round" stroke-linejoin="round" stroke-width="2"/>
 <path transform="matrix(.97191 .23536 -.23536 .97191 498.86 -4.734)" d="m-203.79 143.23c0 3.5004-3.929 6.338-8.7757 6.338s-8.7757-2.8376-8.7757-6.338 3.929-6.338 8.7757-6.338 8.7757 2.8376 8.7757 6.338z" fill="#fff" stroke="#000" stroke-linecap="round" stroke-linejoin="round" stroke-width="2"/>
 <path transform="matrix(.97191 .23536 -.23536 .97191 479.6 -18.728)" d="m-203.79 143.23c0 3.5004-3.929 6.338-8.7757 6.338s-8.7757-2.8376-8.7757-6.338 3.929-6.338 8.7757-6.338 8.7757 2.8376 8.7757 6.338z" fill="#fff" stroke="#000" stroke-linecap="round" stroke-linejoin="round" stroke-width="2"/>
 <path transform="matrix(.97191 .23536 -.23536 .97191 501.32 21.641)" d="m-203.79 143.23c0 3.5004-3.929 6.338-8.7757 6.338s-8.7757-2.8376-8.7757-6.338 3.929-6.338 8.7757-6.338 8.7757 2.8376 8.7757 6.338z" fill="#fff" stroke="#000" stroke-linecap="round" stroke-linejoin="round" stroke-width="2"/>
 <path transform="matrix(.97191 .23536 -.23536 .97191 483.04 7.664)" d="m-203.79 143.23c0 3.5004-3.929 6.338-8.7757 6.338s-8.7757-2.8376-8.7757-6.338 3.929-6.338 8.7757-6.338 8.7757 2.8376 8.7757 6.338z" fill="#f00" stroke="#000" stroke-linecap="round" stroke-linejoin="round" stroke-width="2"/>
 <path transform="matrix(.97191 .23536 -.23536 .97191 463.78 -6.3302)" d="m-203.79 143.23c0 3.5004-3.929 6.338-8.7757 6.338s-8.7757-2.8376-8.7757-6.338 3.929-6.338 8.7757-6.338 8.7757 2.8376 8.7757 6.338z" fill="#fff" stroke="#000" stroke-linecap="round" stroke-linejoin="round" stroke-width="2"/>
 <path transform="matrix(.97191 .23536 -.23536 .97191 484.52 34.022)" d="m-203.79 143.23c0 3.5004-3.929 6.338-8.7757 6.338s-8.7757-2.8376-8.7757-6.338 3.929-6.338 8.7757-6.338 8.7757 2.8376 8.7757 6.338z" fill="#fff" stroke="#000" stroke-linecap="round" stroke-linejoin="round" stroke-width="2"/>
 <path transform="matrix(.97191 .23536 -.23536 .97191 466.24 20.045)" d="m-203.79 143.23c0 3.5004-3.929 6.338-8.7757 6.338s-8.7757-2.8376-8.7757-6.338 3.929-6.338 8.7757-6.338 8.7757 2.8376 8.7757 6.338z" fill="#f00" stroke="#000" stroke-linecap="round" stroke-linejoin="round" stroke-width="2"/>
 <path transform="matrix(.97191 .23536 -.23536 .97191 446.98 6.0504)" d="m-203.79 143.23c0 3.5004-3.929 6.338-8.7757 6.338s-8.7757-2.8376-8.7757-6.338 3.929-6.338 8.7757-6.338 8.7757 2.8376 8.7757 6.338z" fill="#fff" stroke="#000" stroke-linecap="round" stroke-linejoin="round" stroke-width="2"/>
 <path transform="matrix(.97592 .21812 -.21812 .97592 444.32 25.884)" d="m-203.79 143.23c0 3.5004-3.929 6.338-8.7757 6.338s-8.7757-2.8376-8.7757-6.338 3.929-6.338 8.7757-6.338 8.7757 2.8376 8.7757 6.338z" fill="#f00" stroke="#000" stroke-linecap="round" stroke-linejoin="round" stroke-width="2"/>
 <path transform="matrix(.97592 .21812 -.21812 .97592 425.79 13.208)" d="m-203.79 143.23c0 3.5004-3.929 6.338-8.7757 6.338s-8.7757-2.8376-8.7757-6.338 3.929-6.338 8.7757-6.338 8.7757 2.8376 8.7757 6.338z" fill="#fff" stroke="#000" stroke-linecap="round" stroke-linejoin="round" stroke-width="2"/>
 <path transform="matrix(.97592 .21812 -.21812 .97592 407.27 -.4433)" d="m-203.79 143.23c0 3.5004-3.929 6.338-8.7757 6.338s-8.7757-2.8376-8.7757-6.338 3.929-6.338 8.7757-6.338 8.7757 2.8376 8.7757 6.338z" fill="#fff" stroke="#000" stroke-linecap="round" stroke-linejoin="round" stroke-width="2"/>
 <path transform="matrix(.97592 .21812 -.21812 .97592 387.76 -14.094)" d="m-203.79 143.23c0 3.5004-3.929 6.338-8.7757 6.338s-8.7757-2.8376-8.7757-6.338 3.929-6.338 8.7757-6.338 8.7757 2.8376 8.7757 6.338z" fill="#fff" stroke="#000" stroke-linecap="round" stroke-linejoin="round" stroke-width="2"/>
 <path transform="matrix(.97592 .21812 -.21812 .97592 517.45 80.488)" d="m-203.79 143.23c0 3.5004-3.929 6.338-8.7757 6.338s-8.7757-2.8376-8.7757-6.338 3.929-6.338 8.7757-6.338 8.7757 2.8376 8.7757 6.338z" fill="#fff" stroke="#000" stroke-linecap="round" stroke-linejoin="round" stroke-width="2"/>
 <path transform="matrix(.97592 .21812 -.21812 .97592 498.92 67.812)" d="m-203.79 143.23c0 3.5004-3.929 6.338-8.7757 6.338s-8.7757-2.8376-8.7757-6.338 3.929-6.338 8.7757-6.338 8.7757 2.8376 8.7757 6.338z" fill="#fff" stroke="#000" stroke-linecap="round" stroke-linejoin="round" stroke-width="2"/>
 <path transform="matrix(.97592 .21812 -.21812 .97592 480.4 54.161)" d="m-203.79 143.23c0 3.5004-3.929 6.338-8.7757 6.338s-8.7757-2.8376-8.7757-6.338 3.929-6.338 8.7757-6.338 8.7757 2.8376 8.7757 6.338z" fill="#fff" stroke="#000" stroke-linecap="round" stroke-linejoin="round" stroke-width="2"/>
 <path transform="matrix(.97592 .21812 -.21812 .97592 460.9 40.51)" d="m-203.79 143.23c0 3.5004-3.929 6.338-8.7757 6.338s-8.7757-2.8376-8.7757-6.338 3.929-6.338 8.7757-6.338 8.7757 2.8376 8.7757 6.338z" fill="#fff" stroke="#000" stroke-linecap="round" stroke-linejoin="round" stroke-width="2"/>
 <path transform="matrix(.97592 .21812 -.21812 .97592 370.44 -26.721)" d="m-203.79 143.23c0 3.5004-3.929 6.338-8.7757 6.338s-8.7757-2.8376-8.7757-6.338 3.929-6.338 8.7757-6.338 8.7757 2.8376 8.7757 6.338z" fill="#0f0" stroke="#000" stroke-linecap="round" stroke-linejoin="round" stroke-width="2"/>
 <path transform="matrix(.97592 .21812 -.21812 .97592 407.32 23.934)" d="m-203.79 143.23c0 3.5004-3.929 6.338-8.7757 6.338s-8.7757-2.8376-8.7757-6.338 3.929-6.338 8.7757-6.338 8.7757 2.8376 8.7757 6.338z" fill="#0f0" stroke="#000" stroke-linecap="round" stroke-linejoin="round" stroke-width="2"/>
 <path transform="matrix(.97592 .21812 -.21812 .97592 388.79 10.283)" d="m-203.79 143.23c0 3.5004-3.929 6.338-8.7757 6.338s-8.7757-2.8376-8.7757-6.338 3.929-6.338 8.7757-6.338 8.7757 2.8376 8.7757 6.338z" fill="#0f0" stroke="#000" stroke-linecap="round" stroke-linejoin="round" stroke-width="2"/>
 <path transform="matrix(.97592 .21812 -.21812 .97592 369.29 -3.3685)" d="m-203.79 143.23c0 3.5004-3.929 6.338-8.7757 6.338s-8.7757-2.8376-8.7757-6.338 3.929-6.338 8.7757-6.338 8.7757 2.8376 8.7757 6.338z" fill="#0f0" stroke="#000" stroke-linecap="round" stroke-linejoin="round" stroke-width="2"/>
 <path transform="matrix(.97592 .21812 -.21812 .97592 498.97 91.214)" d="m-203.79 143.23c0 3.5004-3.929 6.338-8.7757 6.338s-8.7757-2.8376-8.7757-6.338 3.929-6.338 8.7757-6.338 8.7757 2.8376 8.7757 6.338z" fill="#fff" stroke="#000" stroke-linecap="round" stroke-linejoin="round" stroke-width="2"/>
 <path transform="matrix(.97592 .21812 -.21812 .97592 480.45 78.538)" d="m-203.79 143.23c0 3.5004-3.929 6.338-8.7757 6.338s-8.7757-2.8376-8.7757-6.338 3.929-6.338 8.7757-6.338 8.7757 2.8376 8.7757 6.338z" fill="#ff0" stroke="#000" stroke-linecap="round" stroke-linejoin="round" stroke-width="2"/>
 <path transform="matrix(.97592 .21812 -.21812 .97592 461.92 64.887)" d="m-203.79 143.23c0 3.5004-3.929 6.338-8.7757 6.338s-8.7757-2.8376-8.7757-6.338 3.929-6.338 8.7757-6.338 8.7757 2.8376 8.7757 6.338z" fill="#ff0" stroke="#000" stroke-linecap="round" stroke-linejoin="round" stroke-width="2"/>
 <path transform="matrix(.97592 .21812 -.21812 .97592 442.42 51.236)" d="m-203.79 143.23c0 3.5004-3.929 6.338-8.7757 6.338s-8.7757-2.8376-8.7757-6.338 3.929-6.338 8.7757-6.338 8.7757 2.8376 8.7757 6.338z" fill="#ff0" stroke="#000" stroke-linecap="round" stroke-linejoin="round" stroke-width="2"/>
 <path transform="matrix(.97592 .21812 -.21812 .97592 351.96 -15.995)" d="m-203.79 143.23c0 3.5004-3.929 6.338-8.7757 6.338s-8.7757-2.8376-8.7757-6.338 3.929-6.338 8.7757-6.338 8.7757 2.8376 8.7757 6.338z" fill="#fff" stroke="#000" stroke-linecap="round" stroke-linejoin="round" stroke-width="2"/>
 <path transform="matrix(.97592 .21812 -.21812 .97592 408.24 48.311)" d="m-203.79 143.23c0 3.5004-3.929 6.338-8.7757 6.338s-8.7757-2.8376-8.7757-6.338 3.929-6.338 8.7757-6.338 8.7757 2.8376 8.7757 6.338z" fill="#00f" stroke="#000" stroke-linecap="round" stroke-linejoin="round" stroke-width="2"/>
 <path transform="matrix(.97592 .21812 -.21812 .97592 389.71 35.635)" d="m-203.79 143.23c0 3.5004-3.929 6.338-8.7757 6.338s-8.7757-2.8376-8.7757-6.338 3.929-6.338 8.7757-6.338 8.7757 2.8376 8.7757 6.338z" fill="#fff" stroke="#000" stroke-linecap="round" stroke-linejoin="round" stroke-width="2"/>
 <path transform="matrix(.97592 .21812 -.21812 .97592 371.19 21.984)" d="m-203.79 143.23c0 3.5004-3.929 6.338-8.7757 6.338s-8.7757-2.8376-8.7757-6.338 3.929-6.338 8.7757-6.338 8.7757 2.8376 8.7757 6.338z" fill="#fff" stroke="#000" stroke-linecap="round" stroke-linejoin="round" stroke-width="2"/>
 <path transform="matrix(.97592 .21812 -.21812 .97592 351.69 8.3324)" d="m-203.79 143.23c0 3.5004-3.929 6.338-8.7757 6.338s-8.7757-2.8376-8.7757-6.338 3.929-6.338 8.7757-6.338 8.7757 2.8376 8.7757 6.338z" fill="#fff" stroke="#000" stroke-linecap="round" stroke-linejoin="round" stroke-width="2"/>
 <path transform="matrix(.97592 .21812 -.21812 .97592 481.37 102.92)" d="m-203.79 143.23c0 3.5004-3.929 6.338-8.7757 6.338s-8.7757-2.8376-8.7757-6.338 3.929-6.338 8.7757-6.338 8.7757 2.8376 8.7757 6.338z" fill="#ff0" stroke="#000" stroke-linecap="round" stroke-linejoin="round" stroke-width="2"/>
 <path transform="matrix(.97592 .21812 -.21812 .97592 462.85 90.239)" d="m-203.79 143.23c0 3.5004-3.929 6.338-8.7757 6.338s-8.7757-2.8376-8.7757-6.338 3.929-6.338 8.7757-6.338 8.7757 2.8376 8.7757 6.338z" fill="#fff" stroke="#000" stroke-linecap="round" stroke-linejoin="round" stroke-width="2"/>
 <path transform="matrix(.97592 .21812 -.21812 .97592 444.32 76.588)" d="m-203.79 143.23c0 3.5004-3.929 6.338-8.7757 6.338s-8.7757-2.8376-8.7757-6.338 3.929-6.338 8.7757-6.338 8.7757 2.8376 8.7757 6.338z" fill="#fff" stroke="#000" stroke-linecap="round" stroke-linejoin="round" stroke-width="2"/>
 <path transform="matrix(.97592 .21812 -.21812 .97592 424.82 62.937)" d="m-203.79 143.23c0 3.5004-3.929 6.338-8.7757 6.338s-8.7757-2.8376-8.7757-6.338 3.929-6.338 8.7757-6.338 8.7757 2.8376 8.7757 6.338z" fill="#fff" stroke="#000" stroke-linecap="round" stroke-linejoin="round" stroke-width="2"/>
 <path transform="matrix(.97592 .21812 -.21812 .97592 334.36 -4.2938)" d="m-203.79 143.23c0 3.5004-3.929 6.338-8.7757 6.338s-8.7757-2.8376-8.7757-6.338 3.929-6.338 8.7757-6.338 8.7757 2.8376 8.7757 6.338z" fill="#fff" stroke="#000" stroke-linecap="round" stroke-linejoin="round" stroke-width="2"/>
 <path transform="matrix(.97191 .23536 -.23536 .97191 410.86 82.374)" d="m-203.79 143.23c0 3.5004-3.929 6.338-8.7757 6.338s-8.7757-2.8376-8.7757-6.338 3.929-6.338 8.7757-6.338 8.7757 2.8376 8.7757 6.338z" fill="#fff" stroke="#000" stroke-linecap="round" stroke-linejoin="round" stroke-width="2"/>
 <path transform="matrix(.97191 .23536 -.23536 .97191 392.58 68.397)" d="m-203.79 143.23c0 3.5004-3.929 6.338-8.7757 6.338s-8.7757-2.8376-8.7757-6.338 3.929-6.338 8.7757-6.338 8.7757 2.8376 8.7757 6.338z" fill="#00f" stroke="#000" stroke-linecap="round" stroke-linejoin="round" stroke-width="2"/>
 <path transform="matrix(.97191 .23536 -.23536 .97191 373.32 54.403)" d="m-203.79 143.23c0 3.5004-3.929 6.338-8.7757 6.338s-8.7757-2.8376-8.7757-6.338 3.929-6.338 8.7757-6.338 8.7757 2.8376 8.7757 6.338z" fill="#fff" stroke="#000" stroke-linecap="round" stroke-linejoin="round" stroke-width="2"/>
 <path transform="matrix(.97191 .23536 -.23536 .97191 395.04 94.772)" d="m-203.79 143.23c0 3.5004-3.929 6.338-8.7757 6.338s-8.7757-2.8376-8.7757-6.338 3.929-6.338 8.7757-6.338 8.7757 2.8376 8.7757 6.338z" fill="#fff" stroke="#000" stroke-linecap="round" stroke-linejoin="round" stroke-width="2"/>
 <path transform="matrix(.97191 .23536 -.23536 .97191 376.75 80.795)" d="m-203.79 143.23c0 3.5004-3.929 6.338-8.7757 6.338s-8.7757-2.8376-8.7757-6.338 3.929-6.338 8.7757-6.338 8.7757 2.8376 8.7757 6.338z" fill="#00f" stroke="#000" stroke-linecap="round" stroke-linejoin="round" stroke-width="2"/>
 <path transform="matrix(.97191 .23536 -.23536 .97191 357.5 66.801)" d="m-203.79 143.23c0 3.5004-3.929 6.338-8.7757 6.338s-8.7757-2.8376-8.7757-6.338 3.929-6.338 8.7757-6.338 8.7757 2.8376 8.7757 6.338z" fill="#fff" stroke="#000" stroke-linecap="round" stroke-linejoin="round" stroke-width="2"/>
 <path transform="matrix(.97191 .23536 -.23536 .97191 378.24 107.15)" d="m-203.79 143.23c0 3.5004-3.929 6.338-8.7757 6.338s-8.7757-2.8376-8.7757-6.338 3.929-6.338 8.7757-6.338 8.7757 2.8376 8.7757 6.338z" fill="#fff" stroke="#000" stroke-linecap="round" stroke-linejoin="round" stroke-width="2"/>
 <path transform="matrix(.97191 .23536 -.23536 .97191 359.96 93.176)" d="m-203.79 143.23c0 3.5004-3.929 6.338-8.7757 6.338s-8.7757-2.8376-8.7757-6.338 3.929-6.338 8.7757-6.338 8.7757 2.8376 8.7757 6.338z" fill="#fff" stroke="#000" stroke-linecap="round" stroke-linejoin="round" stroke-width="2"/>
 <path transform="matrix(.97191 .23536 -.23536 .97191 340.7 79.181)" d="m-203.79 143.23c0 3.5004-3.929 6.338-8.7757 6.338s-8.7757-2.8376-8.7757-6.338 3.929-6.338 8.7757-6.338 8.7757 2.8376 8.7757 6.338z" fill="#00f" stroke="#000" stroke-linecap="round" stroke-linejoin="round" stroke-width="2"/>
 <g transform="matrix(.33091 0 0 .4317 304.28 65.134)">
  <path d="m-305.05164,259.87112c-.106.01-.106.01 0,0m4.044-.032c.112.01.112.01 0,0m-3.638-.001c-.186.014-.186.014 0,0m3.214-.023c.217.013.217.013 0,0m-2.797,0c-.25.015-.25.015 0,0m2.379-.018c.272.012.272.012 0,0m-1.962,0c-.294.012-.294.012 0,0m1.516-.012c.344.01.344.01 0,0m-1.067,0c-.368.01-.368.01 0,0m.525-.01 0,0" fill="url(#w)"/>
  <path d="m-298.63 317.22c0 19.389-18.691 26.134-35.311 25.647-18.618-0.544-34.454-10.403-31.795-30.809 2.264-17.377 16.052-37.169 35.507-35.913 19.881 1.288 31.599 23.088 31.599 41.075" fill="#ffce00"/>
  <path d="m-331.93 276.84c-18.916 0-31.714 19.842-33.249 36.896-1.802 20.016 15.43 28.407 33.106 28.407-15.981 0-32.952-7.188-32.087-25.602 0.797-17.024 13.295-37.435 32.215-37.435 18.108 0 29.797 18.667 31.229 34.949 1.705 19.4-13.786 28.088-31.329 28.088 16.971 0 33.422-7.93 32.603-27.051-0.75-17.497-12.958-38.252-32.488-38.252" fill="#ffe600"/>
  <path d="m-353.25064,286.79212c-.034.041-.012.014 0,0m16.865-10.957c-9.217,1.574-16.905,7.862-22.079,15.417 1.956.185 2.466-1.763 3.673-3.164 1.745-2.03 1.441-3.216 4.028-5.37 4.13-3.439 9.052-5.971 14.378-6.883m.372-.061c-.444.073-.444.073 0,0m.375-.056c-.438.067-.438.067 0,0m.97-.119-.936.115 .936-.115m.376-.038c-.28.027-.28.027 0,0m.389-.032c-.264.02-.264.02 0,0m3.901-.01c19.561,1.427 30.989,23.447 30.989,41.595 0,7.52101-2.993,14.54801-9.154,19.03201-3.005,2.189-6.472,3.678-10.042,4.663-2.47.682-10.089.647-10.976,2.658 19.296-.833 33.369-12.056 30.805-32.40901-2.073-16.453-13.729-34.203-31.622-35.539m-3.507-.02c-.254.017-.254.017 0,0m3.164,0c.352.023.352.023 0,0m-2.769-.02c-.229.012-.229.012 0,0m2.394,0c.286.014.286.014 0,0m-1.996-.015c-.211.01-.211.01 0,0m1.604,0c.251.01.251.01 0,0m-.395-.01c.184.01.184.01 0,0m-.811,0c-.149.01-.149.01 0,0" fill="url(#v)"/>
  <path d="m-331.98 333.07c-11.241 0-24.817-1.682-33.014-10.285 5.414 26.938 59.457 26.985 65.14 0.188-7.956 8.463-21.146 10.097-32.126 10.097" fill="#ffb600"/>
  <path d="m-331.93 276.47c18.354 0 30.211 18.917 31.663 35.421 1.654 18.79-12.672 27.961-29.947 28.468-15.426 0.452-34.445-5.574-34.445-23.979 0-17.396 11.979-38.539 31.042-39.853-19.015 1.28-31.284 21.821-32.075 39.219-0.913 20.08 18.351 27.24 35.49 26.753 16.671-0.474 31.935-8.863 31.144-27.345-0.76-17.699-13.122-38.684-32.872-38.684" fill="#c68526"/>
  <path d="m-336.34664,275.83012c-.051.01-.051.01 0,0m.38-.062c-.062.01-.062.01 0,0m.362-.054c-.045.01-.045.01 0,0m1.102-.132c-.222.023-.222.023 0,0m.401-.037c-.254.023-.254.023 0,0m4.02-.026c.104.01.104.01 0,0m-3.619,0c-.271.018-.271.018 0,0m3.195-.023c.214.012.214.012 0,0m-2.782,0c-.296.017-.296.017 0,0m2.364-.018c.27.012.27.012 0,0m-1.952,0c-.319.012-.319.012 0,0m1.505-.013c.343.01.343.01 0,0m-1.06,0c-.382.01-.382.01 0,0m.517-.01 0,0" fill="url(#u)"/>
  <path d="m-331.94164,279.10812c-7.707,0-14.817,3.823-20.12,9.234 4.795,5.702 12.184,8.751 19.567,8.751 7.021,0 14.03-2.765 18.829-7.955 4.152-4.492-14.698-10.03-18.276-10.03m.028-2.38c-3.892,0-7.74.932-11.254,2.591-1.09.515-10.82,6.521-10.04,7.535 11.819-12.446 29.767-13.125 41.821-.63 .564-.877-6.644-5.525-7.424-5.963-3.996-2.243-8.509-3.533-13.103-3.533" fill="url(#t)"/>
  <path d="m-331.93 276.84c-4.008 0-24.465 6.348-20.135 11.5 11.266-11.498 28.084-12.104 39.563-0.572 4.124-5.248-15.493-10.928-19.428-10.928" fill="url(#s)"/>
  <path d="m-333.61364,276.53012c-2.392.161-21.993,6.896-19.637,10.262 5.097-5.567 11.985-9.735 19.637-10.262m2.106-.052c7.809.13 14.925,4.054 20.163,9.681 .771-1.178-7.116-6.005-8.243-6.592-3.68-1.918-7.765-3.022-11.92-3.089m-.419-.01c.56.01.56.01 0,0" fill="url(#r)"/>
  <path d="m-309.08 259.91c0 28.499-45.746 28.499-45.746 0s45.746-28.5 45.746 0" fill="#ffce00"/>
  <path d="m-347.29 251.66c5.098-5.981 13.902-7.535 21.268-5.69 8.46 2.117 12.833 8.8 14.121 17.09 1.858-11.987-8.225-22.392-20.051-22.392-11.86 0-21.874 10.408-20.053 22.401 0.618-4.021 2.037-8.273 4.715-11.409" fill="#ffe600"/>
  <path d="m-317.46364,270.82412c-2.039,1.691-3.757,1.043-5.989.178-4.395-1.703-9.073-1.797-13.646-.771-2.977.667-6.552,2.211-9.431.417-4.274-2.665-6.861-8.583-7.473-13.38-1.797,13.719 10.49,24.999 23.872,23.951 12.089-.946 21.771-11.707 20.231-23.955-.684,5.294-3.469,10.159-7.564,13.56" fill="#ffb600"/>
  <path d="m-355.46 259.91c0 30.51 49.38 28.465 46.944-1.764-2.264-28.07-46.944-26.492-46.944 1.764m7.781 15.122c-20.709-19.929 11.574-49.348 31.443-30.239 20.597 19.81-11.441 49.443-31.443 30.239" fill="url(#q)"/>
  <path d="m-363.58164,291.25912c-.183.019-.183.019 0,0m.402-.036c-.241.023-.241.023 0,0m4.022-.027c.106.01.106.01 0,0m-3.619,0c-.265.019-.265.019 0,0m3.195-.023c.215.013.215.013 0,0m-2.781,0c-.296.018-.296.018 0,0m2.364-.016c.269.011.269.011 0,0m-1.953,0c-.32.013-.32.013 0,0m1.505-.012c.344.01.344.01 0,0m-1.061,0c-.379.01-.379.01 0,0m.52-.01 0,0" fill="url(#p)"/>
 </g>
 <g transform="matrix(.33091 0 0 .4317 284.78 77.811)">
  <path d="m-305.05164,259.87112c-.106.01-.106.01 0,0m4.044-.032c.112.01.112.01 0,0m-3.638-.001c-.186.014-.186.014 0,0m3.214-.023c.217.013.217.013 0,0m-2.797,0c-.25.015-.25.015 0,0m2.379-.018c.272.012.272.012 0,0m-1.962,0c-.294.012-.294.012 0,0m1.516-.012c.344.01.344.01 0,0m-1.067,0c-.368.01-.368.01 0,0m.525-.01 0,0" fill="url(#w)"/>
  <path d="m-298.63 317.22c0 19.389-18.691 26.134-35.311 25.647-18.618-0.544-34.454-10.403-31.795-30.809 2.264-17.377 16.052-37.169 35.507-35.913 19.881 1.288 31.599 23.088 31.599 41.075" fill="#ffce00"/>
  <path d="m-331.93 276.84c-18.916 0-31.714 19.842-33.249 36.896-1.802 20.016 15.43 28.407 33.106 28.407-15.981 0-32.952-7.188-32.087-25.602 0.797-17.024 13.295-37.435 32.215-37.435 18.108 0 29.797 18.667 31.229 34.949 1.705 19.4-13.786 28.088-31.329 28.088 16.971 0 33.422-7.93 32.603-27.051-0.75-17.497-12.958-38.252-32.488-38.252" fill="#ffe600"/>
  <path d="m-353.25064,286.79212c-.034.041-.012.014 0,0m16.865-10.957c-9.217,1.574-16.905,7.862-22.079,15.417 1.956.185 2.466-1.763 3.673-3.164 1.745-2.03 1.441-3.216 4.028-5.37 4.13-3.439 9.052-5.971 14.378-6.883m.372-.061c-.444.073-.444.073 0,0m.375-.056c-.438.067-.438.067 0,0m.97-.119-.936.115 .936-.115m.376-.038c-.28.027-.28.027 0,0m.389-.032c-.264.02-.264.02 0,0m3.901-.01c19.561,1.427 30.989,23.447 30.989,41.595 0,7.52101-2.993,14.54801-9.154,19.03201-3.005,2.189-6.472,3.678-10.042,4.663-2.47.682-10.089.647-10.976,2.658 19.296-.833 33.369-12.056 30.805-32.40901-2.073-16.453-13.729-34.203-31.622-35.539m-3.507-.02c-.254.017-.254.017 0,0m3.164,0c.352.023.352.023 0,0m-2.769-.02c-.229.012-.229.012 0,0m2.394,0c.286.014.286.014 0,0m-1.996-.015c-.211.01-.211.01 0,0m1.604,0c.251.01.251.01 0,0m-.395-.01c.184.01.184.01 0,0m-.811,0c-.149.01-.149.01 0,0" fill="url(#v)"/>
  <path d="m-331.98 333.07c-11.241 0-24.817-1.682-33.014-10.285 5.414 26.938 59.457 26.985 65.14 0.188-7.956 8.463-21.146 10.097-32.126 10.097" fill="#ffb600"/>
  <path d="m-331.93 276.47c18.354 0 30.211 18.917 31.663 35.421 1.654 18.79-12.672 27.961-29.947 28.468-15.426 0.452-34.445-5.574-34.445-23.979 0-17.396 11.979-38.539 31.042-39.853-19.015 1.28-31.284 21.821-32.075 39.219-0.913 20.08 18.351 27.24 35.49 26.753 16.671-0.474 31.935-8.863 31.144-27.345-0.76-17.699-13.122-38.684-32.872-38.684" fill="#c68526"/>
  <path d="m-336.34664,275.83012c-.051.01-.051.01 0,0m.38-.062c-.062.01-.062.01 0,0m.362-.054c-.045.01-.045.01 0,0m1.102-.132c-.222.023-.222.023 0,0m.401-.037c-.254.023-.254.023 0,0m4.02-.026c.104.01.104.01 0,0m-3.619,0c-.271.018-.271.018 0,0m3.195-.023c.214.012.214.012 0,0m-2.782,0c-.296.017-.296.017 0,0m2.364-.018c.27.012.27.012 0,0m-1.952,0c-.319.012-.319.012 0,0m1.505-.013c.343.01.343.01 0,0m-1.06,0c-.382.01-.382.01 0,0m.517-.01 0,0" fill="url(#u)"/>
  <path d="m-331.94164,279.10812c-7.707,0-14.817,3.823-20.12,9.234 4.795,5.702 12.184,8.751 19.567,8.751 7.021,0 14.03-2.765 18.829-7.955 4.152-4.492-14.698-10.03-18.276-10.03m.028-2.38c-3.892,0-7.74.932-11.254,2.591-1.09.515-10.82,6.521-10.04,7.535 11.819-12.446 29.767-13.125 41.821-.63 .564-.877-6.644-5.525-7.424-5.963-3.996-2.243-8.509-3.533-13.103-3.533" fill="url(#t)"/>
  <path d="m-331.93 276.84c-4.008 0-24.465 6.348-20.135 11.5 11.266-11.498 28.084-12.104 39.563-0.572 4.124-5.248-15.493-10.928-19.428-10.928" fill="url(#s)"/>
  <path d="m-333.61364,276.53012c-2.392.161-21.993,6.896-19.637,10.262 5.097-5.567 11.985-9.735 19.637-10.262m2.106-.052c7.809.13 14.925,4.054 20.163,9.681 .771-1.178-7.116-6.005-8.243-6.592-3.68-1.918-7.765-3.022-11.92-3.089m-.419-.01c.56.01.56.01 0,0" fill="url(#r)"/>
  <path d="m-309.08 259.91c0 28.499-45.746 28.499-45.746 0s45.746-28.5 45.746 0" fill="#ffce00"/>
  <path d="m-347.29 251.66c5.098-5.981 13.902-7.535 21.268-5.69 8.46 2.117 12.833 8.8 14.121 17.09 1.858-11.987-8.225-22.392-20.051-22.392-11.86 0-21.874 10.408-20.053 22.401 0.618-4.021 2.037-8.273 4.715-11.409" fill="#ffe600"/>
  <path d="m-317.46364,270.82412c-2.039,1.691-3.757,1.043-5.989.178-4.395-1.703-9.073-1.797-13.646-.771-2.977.667-6.552,2.211-9.431.417-4.274-2.665-6.861-8.583-7.473-13.38-1.797,13.719 10.49,24.999 23.872,23.951 12.089-.946 21.771-11.707 20.231-23.955-.684,5.294-3.469,10.159-7.564,13.56" fill="#ffb600"/>
  <path d="m-355.46 259.91c0 30.51 49.38 28.465 46.944-1.764-2.264-28.07-46.944-26.492-46.944 1.764m7.781 15.122c-20.709-19.929 11.574-49.348 31.443-30.239 20.597 19.81-11.441 49.443-31.443 30.239" fill="url(#q)"/>
  <path d="m-363.58164,291.25912c-.183.019-.183.019 0,0m.402-.036c-.241.023-.241.023 0,0m4.022-.027c.106.01.106.01 0,0m-3.619,0c-.265.019-.265.019 0,0m3.195-.023c.215.013.215.013 0,0m-2.781,0c-.296.018-.296.018 0,0m2.364-.016c.269.011.269.011 0,0m-1.953,0c-.32.013-.32.013 0,0m1.505-.012c.344.01.344.01 0,0m-1.061,0c-.379.01-.379.01 0,0m.52-.01 0,0" fill="url(#p)"/>
 </g>
 <g transform="matrix(.33091 0 0 .4317 303.31 95.362)">
  <path d="m-305.05164,259.87112c-.106.01-.106.01 0,0m4.044-.032c.112.01.112.01 0,0m-3.638-.001c-.186.014-.186.014 0,0m3.214-.023c.217.013.217.013 0,0m-2.797,0c-.25.015-.25.015 0,0m2.379-.018c.272.012.272.012 0,0m-1.962,0c-.294.012-.294.012 0,0m1.516-.012c.344.01.344.01 0,0m-1.067,0c-.368.01-.368.01 0,0m.525-.01 0,0" fill="url(#w)"/>
  <path d="m-298.63 317.22c0 19.389-18.691 26.134-35.311 25.647-18.618-0.544-34.454-10.403-31.795-30.809 2.264-17.377 16.052-37.169 35.507-35.913 19.881 1.288 31.599 23.088 31.599 41.075" fill="#ffce00"/>
  <path d="m-331.93 276.84c-18.916 0-31.714 19.842-33.249 36.896-1.802 20.016 15.43 28.407 33.106 28.407-15.981 0-32.952-7.188-32.087-25.602 0.797-17.024 13.295-37.435 32.215-37.435 18.108 0 29.797 18.667 31.229 34.949 1.705 19.4-13.786 28.088-31.329 28.088 16.971 0 33.422-7.93 32.603-27.051-0.75-17.497-12.958-38.252-32.488-38.252" fill="#ffe600"/>
  <path d="m-353.25064,286.79212c-.034.041-.012.014 0,0m16.865-10.957c-9.217,1.574-16.905,7.862-22.079,15.417 1.956.185 2.466-1.763 3.673-3.164 1.745-2.03 1.441-3.216 4.028-5.37 4.13-3.439 9.052-5.971 14.378-6.883m.372-.061c-.444.073-.444.073 0,0m.375-.056c-.438.067-.438.067 0,0m.97-.119-.936.115 .936-.115m.376-.038c-.28.027-.28.027 0,0m.389-.032c-.264.02-.264.02 0,0m3.901-.01c19.561,1.427 30.989,23.447 30.989,41.595 0,7.52101-2.993,14.54801-9.154,19.03201-3.005,2.189-6.472,3.678-10.042,4.663-2.47.682-10.089.647-10.976,2.658 19.296-.833 33.369-12.056 30.805-32.40901-2.073-16.453-13.729-34.203-31.622-35.539m-3.507-.02c-.254.017-.254.017 0,0m3.164,0c.352.023.352.023 0,0m-2.769-.02c-.229.012-.229.012 0,0m2.394,0c.286.014.286.014 0,0m-1.996-.015c-.211.01-.211.01 0,0m1.604,0c.251.01.251.01 0,0m-.395-.01c.184.01.184.01 0,0m-.811,0c-.149.01-.149.01 0,0" fill="url(#v)"/>
  <path d="m-331.98 333.07c-11.241 0-24.817-1.682-33.014-10.285 5.414 26.938 59.457 26.985 65.14 0.188-7.956 8.463-21.146 10.097-32.126 10.097" fill="#ffb600"/>
  <path d="m-331.93 276.47c18.354 0 30.211 18.917 31.663 35.421 1.654 18.79-12.672 27.961-29.947 28.468-15.426 0.452-34.445-5.574-34.445-23.979 0-17.396 11.979-38.539 31.042-39.853-19.015 1.28-31.284 21.821-32.075 39.219-0.913 20.08 18.351 27.24 35.49 26.753 16.671-0.474 31.935-8.863 31.144-27.345-0.76-17.699-13.122-38.684-32.872-38.684" fill="#c68526"/>
  <path d="m-336.34664,275.83012c-.051.01-.051.01 0,0m.38-.062c-.062.01-.062.01 0,0m.362-.054c-.045.01-.045.01 0,0m1.102-.132c-.222.023-.222.023 0,0m.401-.037c-.254.023-.254.023 0,0m4.02-.026c.104.01.104.01 0,0m-3.619,0c-.271.018-.271.018 0,0m3.195-.023c.214.012.214.012 0,0m-2.782,0c-.296.017-.296.017 0,0m2.364-.018c.27.012.27.012 0,0m-1.952,0c-.319.012-.319.012 0,0m1.505-.013c.343.01.343.01 0,0m-1.06,0c-.382.01-.382.01 0,0m.517-.01 0,0" fill="url(#u)"/>
  <path d="m-331.94164,279.10812c-7.707,0-14.817,3.823-20.12,9.234 4.795,5.702 12.184,8.751 19.567,8.751 7.021,0 14.03-2.765 18.829-7.955 4.152-4.492-14.698-10.03-18.276-10.03m.028-2.38c-3.892,0-7.74.932-11.254,2.591-1.09.515-10.82,6.521-10.04,7.535 11.819-12.446 29.767-13.125 41.821-.63 .564-.877-6.644-5.525-7.424-5.963-3.996-2.243-8.509-3.533-13.103-3.533" fill="url(#t)"/>
  <path d="m-331.93 276.84c-4.008 0-24.465 6.348-20.135 11.5 11.266-11.498 28.084-12.104 39.563-0.572 4.124-5.248-15.493-10.928-19.428-10.928" fill="url(#s)"/>
  <path d="m-333.61364,276.53012c-2.392.161-21.993,6.896-19.637,10.262 5.097-5.567 11.985-9.735 19.637-10.262m2.106-.052c7.809.13 14.925,4.054 20.163,9.681 .771-1.178-7.116-6.005-8.243-6.592-3.68-1.918-7.765-3.022-11.92-3.089m-.419-.01c.56.01.56.01 0,0" fill="url(#r)"/>
  <path d="m-309.08 259.91c0 28.499-45.746 28.499-45.746 0s45.746-28.5 45.746 0" fill="#ffce00"/>
  <path d="m-347.29 251.66c5.098-5.981 13.902-7.535 21.268-5.69 8.46 2.117 12.833 8.8 14.121 17.09 1.858-11.987-8.225-22.392-20.051-22.392-11.86 0-21.874 10.408-20.053 22.401 0.618-4.021 2.037-8.273 4.715-11.409" fill="#ffe600"/>
  <path d="m-317.46364,270.82412c-2.039,1.691-3.757,1.043-5.989.178-4.395-1.703-9.073-1.797-13.646-.771-2.977.667-6.552,2.211-9.431.417-4.274-2.665-6.861-8.583-7.473-13.38-1.797,13.719 10.49,24.999 23.872,23.951 12.089-.946 21.771-11.707 20.231-23.955-.684,5.294-3.469,10.159-7.564,13.56" fill="#ffb600"/>
  <path d="m-355.46 259.91c0 30.51 49.38 28.465 46.944-1.764-2.264-28.07-46.944-26.492-46.944 1.764m7.781 15.122c-20.709-19.929 11.574-49.348 31.443-30.239 20.597 19.81-11.441 49.443-31.443 30.239" fill="url(#q)"/>
  <path d="m-363.58164,291.25912c-.183.019-.183.019 0,0m.402-.036c-.241.023-.241.023 0,0m4.022-.027c.106.01.106.01 0,0m-3.619,0c-.265.019-.265.019 0,0m3.195-.023c.215.013.215.013 0,0m-2.781,0c-.296.018-.296.018 0,0m2.364-.016c.269.011.269.011 0,0m-1.953,0c-.32.013-.32.013 0,0m1.505-.012c.344.01.344.01 0,0m-1.061,0c-.379.01-.379.01 0,0m.52-.01 0,0" fill="url(#p)"/>
 </g>
 <g transform="matrix(.2485 0 0 .328 121.43 80.788)">
  <path d="m89.663 104.35c0 25.32-24.241 34.301-46.02 33.773-23.946-0.577-45.331-12.863-42.398-39.396 2.557-23.132 20.633-49.832 46.505-48.418 26.331 1.441 41.913 30.276 41.913 54.041" fill="url(#i)"/>
  <path d="m45.875,51.235c-25.185,0-42.102,26.656-43.829,49.355-1.972,25.941 20.864,36.565 43.643,36.565-22.053,0-44.093-10.308-42.134-35.408 1.708-21.871 18.026-47.52 42.288-47.52 24.134,0 39.567,25.108 41.168,46.794 1.855,25.154-18.699,36.134-41.308,36.134 22.095.012 43.832-10.234 42.93-35.193-.837-23.135-16.912-50.727-42.758-50.727" fill="#b4d7f9"/>
  <path d="m42.788,49.559c-.444.041-.444.041 0,0m6.065-.01c5.766.495 11.331,2.459 16.263,5.463 6.408,3.903 8.139,7.64 12.197,13.041 7.749,10.314 11.856,23.316 11.856,36.185 0,24.122-22.422,33.412-43.449,33.412-19.569,0-43.094-7.879-44.285-30.733-.658-12.659 3.543-25.772 10.7-36.146 4.008-5.811 6.08-9.971 11.98-14.121 5.404-3.802 11.68-6.39 18.28-7.054-26.668,2.676-44.523,33.924-42.19,58.856 2.294,24.495 29.295,31.477 49.976,30.406 21.824-1.131 41.105-12.926 40.282-36.753-.807-23.35-16.098-50.371-41.61-52.556m-5.573-.03c-.389.032-.389.032 0,0m5.158-.004c.479.039.479.039 0,0m-.473-.03c.396.022.396.022 0,0m-4.179,0c-.361.022-.361.022 0,0m3.673-.027c.325.013.325.013 0,0m-3.147-.002c-.345.015-.345.015 0,0m2.622-.018c.297.008.297.008 0,0m-2.106,0c-.325.008-.325.008 0,0m1.575-.014c.251.005.251.005 0,0m-1.051,0c-.265.005-.265.005 0,0" fill="url(#c)"/>
  <path d="m45.798,125.209c-14.792,0-32.648-2.215-43.436-13.529 3.803,18.916 24.051,25.167 41.032,25.6 18.127.461 40.338-4.932 44.669-25.35-10.467,11.13-27.819,13.279-42.265,13.279" fill="url(#h)"/>
  <path d="m45.875,50.754c23.601-.014 39.16,23.995 41.51,45.295 2.809,25.45-16.037,38.181-39.607,38.77-20.22.505-44.963-7.495-44.963-31.558 0-22.887 15.755-50.714 40.843-52.429-25.174,1.681-41.352,28.998-42.23,52.015-.993,26.045 24.14,35.317 46.357,34.778 22.988-.555 43.005-12.357 41.235-37.618-1.596-22.785-17.775-49.253-43.145-49.253" fill="#4f91e0"/>
  <path d="m42.455,49.589c-.08.009-.08.009 0,0m6.342-.045c.074.007.074.007 0,0m-5.809-.002c-.267.022-.267.022 0,0m5.274-.04c.235.018.235.018 0,0m-4.747,0c-.315.022-.315.022 0,0m4.188-.034c.351.022.351.022 0,0m-3.651,0c-.355.022-.355.022 0,0m.532-.024c-.363.016-.363.016 0,0m2.573,0c.403.019.403.019 0,0m-2.004-.016c-.432.013-.432.013 0,0m1.439,0c.456.013.456.013 0,0m-.717-.007 0,0" fill="url(#g)"/>
  <path d="m45.843,54.229c-10.134,0-19.485,5.02-26.464,12.132 6.298,7.514 16.017,11.539 25.735,11.539 9.354,0 18.69-3.739 25.001-10.736 5.041-5.591-19.855-12.935-24.272-12.935m.032-3.133c-5.837,0-11.576,1.592-16.697,4.362-1.262.684-12.129,7.748-11.305,8.946 15.547-16.363 39.152-17.268 55.014-.838 .881-1.235-10.036-7.999-11.224-8.601-4.886-2.475-10.301-3.869-15.788-3.869" fill="url(#b)"/>
  <path d="m45.875,51.235c-5.27,0-32.187,8.372-26.496,15.125 14.824-15.108 36.939-15.902 52.041-.748 5.408-6.917-20.348-14.377-25.545-14.377" fill="url(#f)"/>
  <path d="m43.657,50.832c-5.273.352-10.397,1.993-15.011,4.548-1.462.812-11.85,7.499-10.828,8.947 6.592-7.367 15.851-12.812 25.839-13.495m2.218-.078c10.4-.005 20.057,5.192 27.058,12.742 .973-1.528-8.883-7.632-10.347-8.421-5.129-2.766-10.874-4.321-16.711-4.321" fill="url(#e)"/>
  <path d="m75.925 28.961c0 16.247-14.193 28.933-30.092 28.933s-30.091-12.686-30.091-28.933 14.189-28.937 30.091-28.937 30.092 12.688 30.092 28.937" fill="url(#d)"/>
  <path d="m25.654,18.108c6.855-8.039 18.826-10.023 28.663-7.305 10.791,2.98 16.251,11.688 17.897,22.302 2.451-15.774-10.823-29.458-26.381-29.458-15.585,0-28.804,13.692-26.38,29.471 .813-5.29 2.68-10.885 6.201-15.01" fill="#b4d7f9"/>
  <path d="m64.893,43.321c-3.056,2.538-5.649,1.01-8.924-.155-5.748-2.043-11.88-1.831-17.747-.432-4.489,1.071-9.274,2.821-13.076-.836-4.534-4.357-7.527-10.166-8.323-16.414-2.419,18.69 14.858,33.722 32.975,31.352 15.223-1.991 27.03-15.857 25.047-31.355-.9,6.966-4.562,13.368-9.952,17.84" fill="#68a0f2"/>
  <path d="m14.907 28.961c0 18.296 17.274 31.703 34.953 29.483 15.477-1.944 27.91-15.588 26.835-31.436-2.519-37.195-61.788-35.431-61.788 1.953m10.239 19.891c-11.797-11.341-11.044-30.495 1.375-41.01 11.456-9.7 29.164-9.18 39.993 1.232 10.714 10.306 11.339 27.472 1.281 38.456-11.065 12.084-30.827 12.686-42.649 1.322" fill="url(#a)"/>
 </g>
 <g transform="matrix(.32723 0 0 .43147 342.5 -127.94)">
  <path d="m-334.88402,425.01742c-.051.01-.051.01 0,0m.38-.062c-.062.01-.062.01 0,0m.362-.054c-.045.01-.045.01 0,0m1.102-.132c-.222.023-.222.023 0,0m.401-.037c-.254.023-.254.023 0,0m4.02-.026c.104.01.104.01 0,0m-3.619,0c-.271.018-.271.018 0,0m3.195-.023c.214.012.214.012 0,0m-2.782,0c-.296.017-.296.017 0,0m2.364-.018c.27.012.27.012 0,0m-1.952,0c-.319.012-.319.012 0,0m1.505-.013c.343.01.343.01 0,0m-1.06,0c-.382.01-.382.01 0,0m.517-.01 0,0" fill="url(#ab)"/>
  <path d="m-326.24 482.07c0 19.394-18.681 26.148-35.311 25.663-18.618-0.543-34.455-10.404-31.796-30.811 2.264-17.374 16.053-37.17 35.507-35.912 19.872 1.288 31.6 23.08 31.6 41.06" fill="#9cd305"/>
  <path d="m-359.54 441.71c-18.916 0-31.723 19.841-33.261 36.897-1.804 20.018 15.444 28.405 33.119 28.405-15.98 0-32.966-7.185-32.102-25.6 0.797-17.034 13.305-37.437 32.229-37.437 18.104 0 29.795 18.673 31.227 34.949 1.709 19.408-13.796 28.087-31.339 28.087 16.974 0.013 33.435-7.93 32.617-27.051-0.748-17.495-12.957-38.25-32.49-38.25" fill="#c2ef20"/>
  <path d="m-380.86702,451.65342c-.564.626-.002,0 0,0m18.969-11.227c-.295.027-.295.027 0,0m.386-.032c-.272.02-.272.02 0,0m3.897-.01c19.537,1.426 30.988,23.454 30.988,41.59601 0,17.505-15.693,24.942-31.196,25.383-15.172.43-34.336-5.098-35.469-23.048-1.169-18.55901 11.541-41.83001 31.036-43.85801-20.311,2.106-34.086,26.161-31.945,45.21201 2.007,17.849 21.471,23.189 36.744,22.688 19.504-.64 34.058-11.74 31.45-32.444-2.071-16.45401-13.721-34.18501-31.608-35.52901m-3.507-.02c-.256.017-.256.017 0,0m3.164,0c.351.024.351.024 0,0m-2.771-.019c-.229.012-.229.012 0,0m2.395,0c.287.013.287.013 0,0m-1.995-.016c-.214.01-.214.01 0,0m1.603,0c.253.011.253.011 0,0m-.395-.01 0,0m-.81,0 0,0" fill="#76aa04"/>
  <path d="m-359.59 497.93c-11.241 0-24.816-1.683-33.014-10.285 5.414 26.937 59.456 26.986 65.14 0.189-7.959 8.461-21.145 10.096-32.126 10.096" fill="#7ec405"/>
  <path d="m-359.54 441.34c18.348 0 30.211 18.921 31.665 35.421 1.654 18.785-12.677 27.96-29.947 28.468-15.425 0.453-34.447-5.576-34.447-23.979 0-17.404 11.975-38.542 31.045-39.854-19.017 1.284-31.285 21.822-32.076 39.22-0.911 20.078 18.337 27.238 35.478 26.752 16.668-0.474 31.945-8.861 31.154-27.346-0.759-17.702-13.116-38.682-32.872-38.682" fill="#76aa04"/>
  <path d="m-362.11902,440.44642c-.183.019-.183.019 0,0m.402-.036c-.241.023-.241.023 0,0m4.022-.027c.106.01.106.01 0,0m-3.619,0c-.265.019-.265.019 0,0m3.195-.023c.215.013.215.013 0,0m-2.781,0c-.296.018-.296.018 0,0m2.364-.016c.269.011.269.011 0,0m-1.953,0c-.32.013-.32.013 0,0m1.505-.012c.344.01.344.01 0,0m-1.061,0c-.379.01-.379.01 0,0m.52-.01 0,0" fill="url(#aa)"/>
  <path d="m-359.55402,443.97342c-7.707,0-14.819,3.819-20.125,9.229 4.788,5.705 12.174,8.771 19.559,8.771 7.026,0 14.041-2.768 18.836-7.971 4.146-4.497-14.695-10.029-18.27-10.029m.029-2.38c-3.892,0-7.742.932-11.255,2.591-1.094.518-10.819,6.496-10.042,7.531 11.819-12.438 29.759-13.122 41.817-.635 .61-.991-7.195-5.841-8.014-6.277-3.844-2.046-8.142-3.21-12.506-3.21" fill="url(#z)"/>
  <path d="m-359.54 441.71c-4.01 0-24.454 6.34-20.139 11.495 11.269-11.487 28.084-12.1 39.56-0.567 4.128-5.253-15.486-10.928-19.421-10.928" fill="url(#y)"/>
  <path d="m-361.22502,441.39442c-2.395.161-21.988,6.878-19.643,10.259 5.098-5.567 11.989-9.731 19.643-10.259m2.106-.051c7.798.13 14.923,4.052 20.151,9.678 .777-1.197-7.099-5.999-8.236-6.593-3.679-1.916-7.762-3.018-11.915-3.085m-.422-.01c.561.01.561.01 0,0" fill="url(#x)"/>
  <path d="m-336.69 424.77c0 28.5-45.745 28.5-45.745 0s45.745-28.5 45.745 0" fill="#9cd305"/>
  <path d="m-374.91 416.52c5.099-5.981 13.903-7.535 21.268-5.69 8.458 2.119 12.836 8.799 14.121 17.09 1.861-11.988-8.225-22.393-20.051-22.393-11.846 0-21.896 10.411-20.051 22.402 0.618-4.02 2.036-8.272 4.713-11.409" fill="#c2ef20"/>
  <path d="m-345.08102,435.68842c-2.039,1.692-3.757,1.043-5.989.178-4.394-1.704-9.074-1.798-13.646-.772-2.975.667-6.551,2.211-9.428.417-4.273-2.665-6.863-8.581-7.473-13.381-1.793,13.718 10.484,25.003 23.872,23.955 12.074-.945 21.789-11.712 20.23-23.958-.684,5.295-3.468,10.161-7.566,13.561" fill="#7ec405"/>
  <path d="m-383.07 424.77c0 30.508 49.382 28.464 46.943-1.764-2.263-28.07-46.943-26.491-46.943 1.764m7.782 15.12c-20.717-19.92 11.573-49.342 31.443-30.235 20.597 19.806-11.447 49.447-31.443 30.235" fill="#76aa04"/>
 </g>
</svg>
