<?xml version='1.0' encoding='utf-8'?>
<svg xmlns="http://www.w3.org/2000/svg" width="290.28571mm" height="204.00635mm" viewBox="0 0 1028.5714 722.85713" id="svg2" version="1.1"> <defs id="defs4"> <filter style="color-interpolation-filters:sRGB" id="filter4233"> <feGaussianBlur stdDeviation="30.48 18.24" result="blur" id="feGaussianBlur4235"/> </filter> <filter style="color-interpolation-filters:sRGB" id="filter4243"> <feGaussianBlur stdDeviation="5" result="fbSourceGraphic" id="feGaussianBlur4245"/> <feGaussianBlur stdDeviation="0.01" in="SourceGraphic" result="result1" id="feGaussianBlur4247"/> <feComposite in2="result1" operator="arithmetic" in="fbSourceGraphic" k2="0.5" k3="0.5" result="result2" id="feComposite4249" k1="0" k4="0"/> <feBlend in2="fbSourceGraphic" mode="normal" result="result3" id="feBlend4251"/> </filter> </defs> <metadata id="metadata7"> </metadata> <g id="layer1" transform="translate(-862.85712,-360.93362)"> <rect style="color:#000000;clip-rule:nonzero;display:inline;overflow:visible;visibility:visible;opacity:1;isolation:auto;mix-blend-mode:normal;color-interpolation:sRGB;color-interpolation-filters:linearRGB;solid-color:#000000;solid-opacity:1;fill:#f5f5f5;fill-opacity:1;fill-rule:nonzero;stroke:none;stroke-width:1.87199998;stroke-linecap:butt;stroke-linejoin:miter;stroke-miterlimit:4;stroke-dasharray:none;stroke-dashoffset:0;stroke-opacity:1;color-rendering:auto;image-rendering:auto;shape-rendering:auto;text-rendering:auto;enable-background:accumulate" id="rect4212" width="1028.5714" height="722.85712" x="862.85712" y="360.93362" ry="1.2112499"/> <g id="g4190" transform="translate(45.638985,481.88982)"> <path id="path4193" d="m 1557.5671,483.49892 c -1.4503,-1.8526 -3.0115,-4.5597 -3.4694,-6.0157 -1.0913,-3.4707 1.1576,-9.3121 4.6078,-11.9687 l 2.7482,-2.116 -2.8124,-2.6202 c -2.102,-1.95834 -2.8124,-4.02404 -2.8124,-8.17814 0,-6.1084 2.1356,-8.6921 19.987,-24.1811 10.4278,-9.0478 11.263,-9.8412 11.263,-10.6993 0,-0.3928 -2.7723,-0.7142 -6.1607,-0.7142 -3.5551,0 -6.8863,-0.7256 -7.8763,-1.7157 -2.1536,-2.1535 -1.9448,-13.7202 0.2964,-16.4206 1.2132,-1.4619 1.3677,-4.6068 0.6305,-12.8375 -0.5369,-5.9957 -1.3225,-17.8875 -1.7456,-26.4263 -0.5651,-11.4039 -1.2179,-15.6735 -2.4593,-16.0842 -0.9295,-0.3075 -4.6779,2.6007 -8.3299,6.4626 -7.0761,7.4829 -9.1404,8.3114 -12.0446,4.8342 -3.7266,-4.4618 -5.3949,-10.0753 -8.8231,-29.6875 -1.7972,-10.2818 -2.6579,-51.8126 -1.1393,-54.9762 0.6663,-1.3881 1.548,-6.1801 1.9593,-10.6488 0.4113,-4.4688 1.606,-11.7813 2.6548,-16.25 1.0488,-4.4688 2.2299,-9.8125 2.6246,-11.875 0.3948,-2.0625 1.3766,-4.5938 2.1819,-5.625 0.8053,-1.0313 2.195,-3.5625 3.0884,-5.625 0.8933,-2.0625 2.4159,-5.3425 3.3835,-7.2888 0.9677,-1.9464 1.7594,-4.8995 1.7594,-6.5625 0,-1.6631 0.5625,-3.0237 1.25,-3.0237 0.6875,0 1.25,-0.5896 1.25,-1.3101 0,-3.1338 11.8158,-19.3513 18.75,-25.7349 8.9272,-8.2183 12.0017,-10.5598 17.1806,-13.0847 2.9181,-1.4227 5.577,-3.0258 5.9087,-3.5625 0.3317,-0.5367 4.6941,-2.2315 9.6944,-3.7662 5.0002,-1.5347 9.9351,-3.0778 10.9663,-3.4291 4.0863,-1.392 36.1273,-0.1746 46.0414,1.7494 14.8755,2.8868 29.4688,8.0948 29.9697,10.6954 0.2246,1.1665 -1.204,4.5277 -3.1746,7.4693 -6.0044,8.9628 -8.4622,15.5883 -6.6103,17.8196 0.869,1.0471 2.2684,1.9038 3.1098,1.9038 1.374,0 7.0067,2.3112 11.8487,4.8618 0.9954,0.5243 2.6036,4.5275 3.574,8.8959 1.686,7.5907 2.2983,8.4752 13.8152,19.9569 6.6281,6.6079 14.3011,13.0461 17.0511,14.3072 2.75,1.261 6.3213,2.9252 7.9362,3.698 4.0418,1.9343 8.0276,13.329 7.2599,20.7553 -0.4732,4.5786 -1.4559,6.3626 -5.3875,9.7806 -12.1071,10.5257 -17.0952,11.3964 -26.0651,4.5494 -6.7355,-5.1412 -11.0632,-7.0357 -13.7326,-6.0113 -1.0372,0.398 -1.8859,0.1009 -1.8859,-0.6601 0,-0.7611 -1.1992,-1.3837 -2.6649,-1.3837 -1.4658,0 -4.4996,-1.1339 -6.7419,-2.5197 -3.3843,-2.0916 -4.6835,-2.2874 -7.6476,-1.1521 -4.8423,1.8546 -24.2246,1.9132 -27.6433,0.083 -2.5059,-1.3411 -2.9259,-1.0584 -4.8241,3.2471 -1.2263,2.7814 -2.3021,9.3313 -2.6222,15.9661 l -0.5429,11.25 10.2199,10 c 14.6264,14.3118 19.9155,22.6378 26.6007,41.875 4.6902,13.4965 5.8524,19.0349 7.0276,33.4897 0.7611,9.363 1.6372,13.5182 3.2182,15.2653 1.3234,1.4623 2.3062,4.8783 2.5145,8.7404 0.4424,8.1982 -1.5542,10.3828 -8.9515,9.7944 -2.9749,-0.2366 -5.6208,0.1358 -5.8798,0.8275 -0.259,0.6917 6.2533,7.1211 14.4718,14.2876 8.2185,7.1664 15.495,14.4789 16.1701,16.25 1.6208,4.2524 0.3925,9.9234 -2.9111,13.43994 -2.4087,2.564 -2.4631,2.9186 -0.5595,3.649 2.2293,0.8555 5.766,6.7248 5.766,9.5689 0,0.9278 -1.5319,4.0495 -3.4043,6.9371 l -3.4043,5.2503 -76.9082,-0.069 -76.9082,-0.069 -2.6368,-3.3684 z" style="fill:#00897b"/> <path id="path4189" d="m 1443.9563,482.97581 c -4.3925,-4.6757 -4.2813,-13.4148 0.2201,-17.2867 l 3.2504,-2.7959 -2.9379,-3.4156 c -1.8594,-2.16164 -2.938,-5.00294 -2.938,-7.73924 0,-4.9404 1.4044,-6.6057 20.5455,-24.3624 l 12.4205,-11.5221 -0.2266,-8.5064 c -0.256,-9.6046 0.1463,-10.1331 8.4591,-11.1136 5.3598,-0.6322 5.6366,-0.8731 7.2184,-6.2824 5.4657,-18.6919 11.551,-60.1963 11.5723,-78.9288 0.011,-10.3686 -0.4682,-11.0712 -7.5626,-11.0712 -7.044,0 -9.8275,-10.4581 -3.6618,-13.7579 1.3669,-0.7316 2.4852,-2.6041 2.4852,-4.1611 0,-3.6222 2.2256,-5.831 5.875,-5.831 4.4738,0 3.4049,-2.9457 -2.6454,-7.2907 -9.9777,-7.1655 -17.2519,-18.9898 -19.6334,-31.9147 -4.2277,-22.9447 10.3758,-67.2536 27.9663,-84.8534 5.3807,-5.3834 7.1875,-8.0852 7.1875,-10.7475 0,-5.2015 3.8778,-8.02 11.9561,-8.6899 5.9894,-0.4967 7.337,-0.1794 10.0456,2.3652 2.1115,1.9836 3.0146,4.0224 2.7785,6.2728 -0.2768,2.6387 1.1074,4.7311 6.6374,10.0336 11.9278,11.4371 22.1756,32.6425 27.8913,57.7146 2.325,10.1991 2.5327,27.0837 0.4092,33.2712 -2.974,8.6655 -10.3528,19.3368 -17.2181,24.9007 -3.7812,3.0644 -7.0423,6.2535 -7.2467,7.0868 -0.2045,0.8333 1.3273,1.8549 3.4041,2.2702 2.8007,0.5602 3.9962,1.6529 4.6287,4.2306 0.469,1.9115 2.1715,4.7142 3.7833,6.2283 3.146,2.9551 3.7127,6.5751 1.6367,10.4543 -0.9848,1.8401 -2.637,2.4179 -6.9143,2.4179 -3.8354,0 -5.8481,0.5937 -6.3376,1.8695 -0.9015,2.3493 1.5632,38.4987 3.3668,49.3805 4.328,26.1114 8.7763,43.4734 11.6085,45.3088 0.7951,0.5152 2.8627,0.6403 4.5948,0.2779 5.3292,-1.1148 7.928,1.9104 7.6665,8.9246 -0.1254,3.3625 -0.508,7.0011 -0.8502,8.0857 -0.3818,1.21 1.2066,3.6252 4.1106,6.25 30.2562,27.3478 29.0488,26.0383 29.0488,31.5064 0,3.4935 -0.8421,6.0068 -2.6615,7.94354 l -2.6616,2.8331 3.4174,4.0614 c 2.8308,3.3642 3.3053,4.8977 2.7641,8.9329 -0.3594,2.6792 -1.9226,6.2223 -3.4738,7.8735 l -2.8204,3.0022 -77.0642,0 -77.0642,0 -3.0304,-3.2257 z" style="fill:#f44336"/> <path id="path4185" d="m 1295.3897,484.62326 c -9.1491,-6.03112 -10.9025,-14.53823 -4.6785,-22.69844 l 3.9222,-5.14218 -3.4545,-6.0022 c -3.1191,-5.41974 -3.2706,-6.61628 -1.559,-12.32867 1.5513,-5.17777 5.4843,-9.5457 21.6626,-24.05761 l 19.7672,-17.73125 -0.4707,-10.29115 c -0.6234,-13.62729 0.8384,-16.14593 9.3707,-16.14593 10.0863,0 10.8322,-1.48164 17.1081,-33.98542 5.2704,-27.29574 8.4316,-62.16973 8.8921,-98.0943 l 0.3961,-30.89585 -6.5393,-0.7724 c -3.5965,-0.42487 -7.9414,-1.98215 -9.655,-3.4607 -4.4981,-3.88113 -4.1318,-12.03875 0.7464,-16.62159 2.1241,-1.9955 3.8619,-4.7896 3.8619,-6.20908 0,-3.21774 4.7891,-7.69405 8.2318,-7.69405 3.5792,0 3.4753,-7.50411 -0.1211,-8.77973 -7.8204,-2.77334 -10.1853,-9.19733 -5.7282,-15.56051 2.2157,-3.16349 2.0398,-4.02239 -2.5218,-12.31595 -2.697,-4.90329 -5.4326,-9.61033 -6.0789,-10.45997 -0.6465,-0.84964 -5.0311,-8.244 -9.7434,-16.43177 -13.2507,-23.022964 -17.3073,-33.878774 -23.8766,-63.89742 -0.9297,-4.248179 -2.8807,-13.026305 -4.3355,-19.50702 -4.1315,-18.4036607 -1.1525,-21.0306729 12.3658,-10.904995 4.3252,3.23986 8.7453,6.416574 9.8222,7.059448 1.1587,0.691697 8.2933,-2.06792 17.4789,-6.760499 9.2231,-4.711744 17.0418,-7.7329817 19.2687,-7.4456516 2.9392,0.3792753 4.3681,-0.6830413 6.6224,-4.923064 4.3969,-8.2702029 11.4853,-12.3583389 21.4281,-12.3583389 12.0289,0 20.9913,5.477089 22.8561,13.9680108 1.0563,4.8091232 3.7925,6.5296467 7.0774,4.4502327 3.8591,-2.4431142 6.6959,-1.5661663 20.4538,6.322526 l 13.5127,7.748056 6.4667,-5.044667 c 3.5565,-2.774575 7.4371,-5.948317 8.6232,-7.052904 1.1862,-1.1044686 3.2889,-1.7939371 4.6726,-1.5320661 5.2414,0.9916311 3.6117,14.9659441 -6.0445,51.8319801 -5.2189,19.924977 -11.269,32.603889 -34.4754,72.247332 l -6.9796,11.9232 3.0678,4.14944 c 4.0282,5.44854 1.9933,11.40489 -4.6927,13.73555 -3.6248,1.26364 -4.7447,2.5845 -4.7447,5.59635 0,2.86305 0.8152,3.94243 2.9775,3.94243 3.0816,0 9.3808,6.7217 9.3808,10.01001 0,1.02821 1.3903,3.12764 3.0896,4.66552 3.9603,3.58391 4.1838,13.20809 0.3862,16.63913 -1.4868,1.34348 -5.484,2.66768 -8.8826,2.9429 l -6.1791,0.50026 -0.3725,30.12345 c -0.3527,28.52786 2.0214,59.25452 7.102,91.91513 2.2126,14.22445 9.0604,38.16749 11.3271,39.60501 1.1141,0.70653 4.608,1.29528 7.7644,1.30826 7.437,0.0309 9.0034,3.00641 8.4101,15.97648 l -0.462,10.098 14.8097,13.11541 c 25.4845,22.56892 27.8884,25.39293 27.8884,32.76319 0,4.18219 -1.1262,7.87004 -3.214,10.52411 l -3.2138,4.08579 4.1481,4.92962 c 5.73,6.80981 4.6853,15.59684 -2.5782,21.68715 l -5.0666,4.24818 -97.3803,-0.0124 c -93.6566,-0.0124 -97.5534,-0.12445 -101.9104,-2.99653 z" style="fill:#ec407a"/> <path id="path4181" d="m 1222.1502,484.85511 c -53.9152,-0.46459 -98.1873,-1.00899 -98.3824,-1.20973 -0.195,-0.20086 -1.5093,-2.59805 -2.9207,-5.32739 -3.1115,-6.01688 -2.0287,-13.15898 2.7692,-18.26629 3.1752,-3.37974 3.2267,-3.80613 0.7851,-6.5041 -3.7257,-4.11679 -4.9516,-12.14468 -2.6889,-17.60755 1.0639,-2.56832 10.9901,-12.82581 22.0584,-22.79428 l 20.124,-18.12462 -0.5104,-11.12418 c -0.459,-10.00452 -0.1574,-11.37146 2.9962,-13.58031 1.9286,-1.35089 6.135,-2.45601 9.3475,-2.45601 5.8336,0 5.8451,-0.0127 9.1153,-10.67236 9.3737,-30.55277 15.9502,-85.54149 15.9581,-133.43313 0,-25.5918 0.2248,-25.07131 -10.6235,-25.07131 -10.0364,0 -13.7193,-11.69679 -5.9741,-18.9731 2.174,-2.04239 3.9527,-4.87014 3.9527,-6.28376 0,-3.36165 3.0895,-6.36497 6.5472,-6.36497 6.4958,0 5.4353,-9.70259 -1.4183,-12.97722 -5.1255,-2.44892 -6.3649,-7.82666 -2.9907,-12.97633 2.2194,-3.38733 2.0121,-4.24922 -3.0403,-12.63647 -2.9822,-4.95058 -5.4223,-9.25343 -5.4223,-9.56181 0,-0.3085 -4.8955,-9.13592 -10.8791,-19.616663 -5.9836,-10.480614 -11.3348,-20.871168 -11.8917,-23.090009 -1.818,-7.243423 2.9108,-13.284205 14.5901,-18.637654 5.8038,-2.660408 12.3312,-4.942872 14.5051,-5.072269 12.9303,-0.769675 12.1869,-0.293324 13.0467,-8.361445 0.4401,-4.13057 1.2462,-8.577485 1.7914,-9.881822 0.6854,-1.640288 -0.84,-3.347487 -4.9472,-5.536097 l -5.9382,-3.164334 -0.4208,-41.175796 c -0.4055,-39.662505 -0.3015,-41.304058 2.8285,-44.663688 3.1408,-3.371266 4.3032,-3.487761 34.8096,-3.487761 29.4522,0 31.7715,0.211234 34.7224,3.162183 2.9954,2.995346 3.1622,5.270221 3.1622,43.128131 0,43.23792 -0.4197,45.566045 -8.5833,47.615014 -3.6889,0.925887 -3.8651,1.458651 -3.0656,9.272027 1.2181,11.90271 1.2316,11.921177 9.5804,13.036542 14.5458,1.943352 27.7516,7.827289 31.3917,13.986843 4.4446,7.520936 2.4623,13.377299 -13.6474,40.317838 -1.3786,2.30561 -4.6848,8.10518 -7.3473,12.88804 -2.6623,4.78274 -6.1407,10.95381 -7.7297,13.71338 -2.7854,4.83726 -2.7867,5.13071 -0.035,8.17032 3.955,4.37027 2.7225,9.78721 -2.9345,12.89792 -3.0465,1.67519 -4.9183,4.07946 -5.2322,6.72052 -0.4006,3.36937 0.5278,4.59478 5.1386,6.78263 3.6723,1.74262 5.6274,3.76477 5.6274,5.82019 0,1.73237 1.7786,4.54886 3.9527,6.25897 2.7775,2.18482 3.9527,4.6474 3.9527,8.28315 0,6.66449 -4.1795,10.4075 -11.6214,10.4075 -9.3679,0 -9.6498,1.78613 -7.5362,47.75631 1.0113,21.99677 2.5359,44.61891 3.388,50.27137 0.852,5.65234 2.6067,17.39201 3.8993,26.08801 2.2524,15.15369 9.0528,42.77068 11.0152,44.73301 0.5161,0.51606 3.7824,1.08361 7.2584,1.26107 9.7217,0.49634 11.0453,2.42097 10.4586,15.20808 l -0.506,11.03046 20.2746,18.12689 c 11.1511,9.96974 20.9893,19.4621 21.8628,21.09417 2.8087,5.24796 1.8437,13.76954 -2.075,18.32536 l -3.6631,4.25857 3.5989,3.59882 c 4.81,4.81019 6.1054,10.77874 3.6341,16.74515 -2.0923,5.05102 -9.9026,9.59761 -15.2716,8.89004 -1.5497,-0.20428 -46.9301,-0.75147 -100.8453,-1.21605 z" style="fill:#2196f3"/> <path id="path4177" d="m 999.58582,482.01659 c -4.86593,-4.53341 -4.61145,-14.4816 0.50718,-19.82419 l 3.849,-4.01754 -3.0856,-2.79241 c -3.5487,-3.21154 -4.15193,-13.20616 -1.12264,-18.6014 1.02004,-1.81661 9.06954,-9.66357 17.88784,-17.43759 8.8183,-7.7739 16.2554,-15.04854 16.527,-16.1658 0.3605,-1.48349 -1.5454,-2.03137 -7.0662,-2.03137 -4.2412,0 -8.2091,-0.83801 -9.0387,-1.90872 -2.2534,-2.90835 -1.9301,-17.58382 0.4305,-19.54299 1.1141,-0.92462 5.3234,-2.1528 9.3542,-2.72938 6.1478,-0.87942 7.6815,-1.78363 9.5186,-5.61207 4.0873,-8.51797 7.8376,-19.79195 11.423,-34.33989 7.7015,-31.24843 10.08,-53.50455 10.08,-94.32065 0,-33.0598 -0.4395,-34.93089 -8.3984,-35.75925 -4.4156,-0.45956 -4.5809,-0.75237 -4.5809,-8.11155 0,-6.36505 0.5501,-7.87651 3.3074,-9.08698 1.9504,-0.85633 3.5648,-3.20579 3.9347,-5.72616 0.6138,-4.18233 0.4673,-4.27407 -6.8189,-4.27407 -9.2493,0 -15.4684,-3.08987 -17.8651,-8.87614 -2.8568,-6.89705 -1.6553,-61.00433 1.3965,-62.88691 3.0015,-1.85167 15.5241,-1.60271 17.9541,0.35682 1.0538,0.84986 1.9087,4.8619 1.9087,8.95799 0,6.52398 0.4349,7.52799 3.6062,8.32386 1.9833,0.49779 5.9344,0.68274 8.7801,0.41094 5.0456,-0.48204 5.1859,-0.68275 5.6534,-8.09042 0.6132,-9.71658 2.2104,-11.49105 10.3426,-11.49105 7.5741,0 9.7921,2.52904 9.7921,11.16489 0,6.81972 2.8224,8.98266 10.9578,8.39727 l 6.6025,-0.47495 0.7635,-8.39837 0.7634,-8.39838 8.3984,-0.91802 c 4.6192,-0.50488 9.0681,-0.31626 9.8865,0.41925 0.8185,0.73552 1.8492,4.92786 2.2905,9.3164 l 0.8023,7.97912 7.6349,0 7.6349,0 0.8144,-7.07992 c 1.1716,-10.18445 3.2737,-12.11565 11.9293,-10.95979 3.9089,0.52199 7.5832,1.67943 8.1651,2.57204 0.5819,0.89261 0.771,15.04513 0.4201,31.45 -0.3508,16.40474 -0.6551,30.66817 -0.6762,31.6965 -0.073,3.56543 -9.2904,6.90866 -17.0035,6.16752 l -7.2973,-0.70106 0.9208,4.73033 c 0.5066,2.60172 1.5851,4.98808 2.3967,5.30301 3.3478,1.29891 7.2005,6.52337 7.1787,9.73454 -0.037,5.39011 -2.2431,7.60606 -8.5978,8.63524 l -5.8852,0.9532 -1.047,13.72032 c -1.5807,20.714 1.9744,74.77217 6.3252,96.17721 1.0243,5.03903 2.5686,12.59757 3.432,16.79675 2.1785,10.59552 10.0026,32.93312 13.6171,38.87685 2.4317,3.9986 3.6973,4.7649 6.6472,4.0245 2.004,-0.50305 5.3399,-0.2696 7.4131,0.51868 3.2201,1.22427 3.8634,2.61578 4.413,9.54605 0.939,11.83909 -0.3105,13.45744 -10.3907,13.45744 -6.5933,0 -8.1555,0.43977 -7.1994,2.02672 1.2772,2.11982 12.4908,12.31746 26.1989,23.825 12.6598,10.62752 15.4672,19.04275 9.2607,27.75886 l -3.1725,4.45536 4.0875,4.85774 c 3.2774,3.89489 3.9192,5.89572 3.2378,10.0943 -0.4674,2.88012 -2.0163,6.52569 -3.4422,8.10116 -2.4822,2.74294 -6.6233,2.86461 -97.5038,2.86461 -93.4053,0 -94.9645,-0.0501 -98.25338,-3.11345 z" style="fill:#9c27b0"/> <path id="path4197" d="m 927.22362,480.65792 c -3.23316,-5.2314 -3.31025,-9.6383 -0.23504,-13.436 2.32255,-2.8682 2.32255,-2.9794 0,-5.932 -3.76821,-4.79064 -2.71965,-11.62434 2.51976,-16.42194 1.1262,-1.0313 6.98699,-6.3153 13.02395,-11.7422 l 10.9763,-9.8671 -0.3607,-7.2782 c -0.40206,-8.1127 0.84699,-10.2656 6.18348,-10.6582 1.87841,-0.1382 4.01534,-0.2969 4.74871,-0.3528 0.73338,-0.056 2.6145,-4.4609 4.18029,-9.789 1.56577,-5.3282 3.10445,-10.5131 3.41926,-11.5221 0.55256,-1.771 1.746,-10.3353 4.1862,-30.0404 1.05116,-8.4885 1.93891,-42.701 1.45148,-55.9375 -0.18187,-4.9386 -0.44202,-5.3125 -3.69564,-5.3125 -4.56559,0 -6.5,-2.0749 -6.5,-6.972 0,-4.4145 1.46817,-6.0375 6.5625,-7.2545 1.89062,-0.4516 3.4375,-1.3557 3.4375,-2.0089 0,-0.6533 -3.0369,-3.1305 -6.74866,-5.5049 -6.47644,-4.1429 -14.50134,-13.7152 -14.50134,-17.2975 0,-0.9417 -0.62083,-2.3331 -1.37961,-3.0919 -2.91258,-2.9125 -4.57662,-17.4099 -3.02249,-26.3325 3.0005,-17.2265 11.32736,-28.4755 26.2464,-35.457 16.46882,-7.7067 33.76373,-5.5743 50.22963,6.1932 3.9777,2.8426 12.046,15.6996 14.5974,23.2611 6.3844,18.9211 -3.4726,45.0893 -20.6128,54.7226 -5.3817,3.0247 -6.1726,6.9071 -1.2657,6.2136 4.0169,-0.5678 6.4571,1.9101 6.4571,6.5567 0,4.8901 -1.9338,6.972 -6.4762,6.972 -4.835,0 -5.2656,2.6795 -4.2901,26.6924 1.2224,30.0862 4.8335,57.8448 9.7805,75.1826 3.0685,10.754 3.7634,11.6386 9.5185,12.1177 l 4.5923,0.3823 0.3663,8.2894 0.3662,8.2895 14.3213,12.8443 c 14.0219,12.5758 14.3212,12.9558 14.3212,18.1837 0,3.07954 -0.7936,6.13314 -1.875,7.21454 -2.4133,2.4133 -2.3708,2.8078 0.625,5.8036 3.4515,3.4514 3.1802,9.7624 -0.6045,14.0625 l -3.0256,3.4375 -67.45792,0 -67.45801,0 -2.60195,-4.2101 z" style="fill:#ff5722"/> <path id="rect4278" d="m 1629.6035,151.7832 c -1.6468,0.0227 -3.0633,0.0771 -4.2676,0.1543 l 0,334.98828 11.7754,0.01 76.9082,0.0703 3.4043,-5.25195 c 1.8724,-2.8876 3.4043,-6.00775 3.4043,-6.93555 0,-2.8441 -3.5363,-8.71481 -5.7656,-9.57031 -1.9036,-0.7304 -1.8482,-1.08444 0.5605,-3.64844 3.3036,-3.51654 4.531,-9.18705 2.9102,-13.43945 -0.6751,-1.7711 -7.9514,-9.0836 -16.1699,-16.25 -8.2185,-7.1665 -14.7317,-13.59541 -14.4727,-14.28711 0.259,-0.6917 2.906,-1.06473 5.8809,-0.82813 7.3973,0.5884 9.3936,-1.59672 8.9512,-9.79492 -0.2083,-3.8621 -1.1903,-7.27793 -2.5137,-8.74023 -1.581,-1.7471 -2.4577,-5.90263 -3.2188,-15.26563 -1.1752,-14.4548 -2.3371,-19.99178 -7.0273,-33.48828 -6.6852,-19.2372 -11.9752,-27.5632 -26.6016,-41.875 l -10.2187,-10 0.5429,-11.25 c 0.3201,-6.6348 1.3948,-13.1854 2.6211,-15.9668 1.8982,-4.3055 2.3184,-4.58914 4.8243,-3.24804 3.4187,1.8302 22.8022,1.77256 27.6445,-0.082 2.9641,-1.1353 4.2622,-0.93925 7.6465,1.15235 2.2423,1.3858 5.2764,2.51953 6.7422,2.51953 1.4657,0 2.664,0.62171 2.664,1.38281 0,0.761 0.8495,1.05816 1.8867,0.66016 2.6694,-1.0244 6.997,0.87052 13.7325,6.01172 8.9699,6.847 13.9573,5.97687 26.0644,-4.54883 3.9316,-3.418 4.9155,-5.20265 5.3887,-9.78125 0.7677,-7.4263 -3.218,-18.82156 -7.2598,-20.75586 -1.6149,-0.7728 -5.1875,-2.43627 -7.9375,-3.69727 -2.75,-1.2611 -10.4227,-7.69874 -17.0508,-14.30664 -11.5169,-11.4817 -12.1284,-12.36633 -13.8144,-19.95703 -0.9704,-4.3684 -2.5788,-8.37218 -3.5742,-8.89648 -4.842,-2.5506 -10.4756,-4.86133 -11.8496,-4.86133 -0.8414,0 -2.2404,-0.8572 -3.1094,-1.9043 -1.8519,-2.2313 0.6069,-8.85751 6.6113,-17.82031 1.9706,-2.9416 3.3984,-6.30225 3.1738,-7.46875 -0.5009,-2.6006 -15.0932,-7.80851 -29.9687,-10.69531 -7.4356,-1.443 -27.3174,-2.48866 -38.5176,-2.33399 z" style="color:#000000;clip-rule:nonzero;display:inline;overflow:visible;visibility:visible;opacity:1;isolation:auto;mix-blend-mode:normal;color-interpolation:sRGB;color-interpolation-filters:linearRGB;solid-color:#000000;solid-opacity:1;fill:#00796b;fill-opacity:1;fill-rule:nonzero;stroke:none;stroke-width:1.87199998;stroke-linecap:butt;stroke-linejoin:miter;stroke-miterlimit:4;stroke-dasharray:none;stroke-dashoffset:0;stroke-opacity:1;color-rendering:auto;image-rendering:auto;shape-rendering:auto;text-rendering:auto;enable-background:accumulate"/> <path id="path4226" d="m 1557.5059,459.50586 c 0.3251,0.43943 0.693,0.85993 1.1347,1.27148 l 2.8125,2.6211 -2.748,2.11523 c -0.4313,0.33208 -0.8429,0.71402 -1.2324,1.13477 l 159.3769,0 c -0.6264,-0.6843 -1.2456,-1.19258 -1.7871,-1.40039 -1.9036,-0.7304 -1.8482,-1.08444 0.5605,-3.64844 0.5959,-0.63422 1.1199,-1.34033 1.5762,-2.09375 l -159.6933,0 z" style="fill:#004d40"/> <path id="rect4273" d="m 1527.2227,132.50781 c -1.011,3.4e-4 -2.2175,0.0731 -3.7149,0.19727 -0.4699,0.039 -0.9236,0.0871 -1.3652,0.14062 l 0,353.35547 1.9082,0 77.0644,0 2.8203,-3.00195 c 1.5512,-1.6512 3.1153,-5.19385 3.4747,-7.87305 0.5412,-4.0352 0.065,-5.56939 -2.7657,-8.93359 l -3.416,-4.06055 2.6602,-2.83398 c 1.8194,-1.93674 2.6621,-4.44986 2.6621,-7.94336 0,-5.4681 1.2074,-4.15806 -29.0488,-31.50586 -2.904,-2.6248 -4.4932,-5.04 -4.1114,-6.25 0.3422,-1.0846 0.7262,-4.72344 0.8516,-8.08594 0.2615,-7.0142 -2.3368,-10.03863 -7.666,-8.92383 -1.7321,0.3624 -3.8006,0.23591 -4.5957,-0.27929 -2.8322,-1.8354 -7.2814,-19.1972 -11.6094,-45.3086 -1.8036,-10.8818 -4.2667,-47.03156 -3.3652,-49.38086 0.4895,-1.2758 2.5005,-1.86914 6.3359,-1.86914 4.2773,0 5.9312,-0.57787 6.916,-2.41797 2.076,-3.8792 1.5093,-7.49802 -1.6367,-10.45312 -1.6118,-1.5141 -3.3142,-4.31702 -3.7832,-6.22852 -0.6325,-2.5777 -1.8282,-3.67027 -4.6289,-4.23047 -2.0768,-0.4153 -3.6088,-1.43818 -3.4043,-2.27148 0.2044,-0.8333 3.4649,-4.02154 7.2461,-7.08594 6.8653,-5.5639 14.2447,-16.23489 17.2187,-24.90039 2.1235,-6.1875 1.9149,-23.07238 -0.4101,-33.27148 -5.7157,-25.0721 -15.9629,-46.27775 -27.8906,-57.71485 -5.53,-5.3025 -6.9136,-7.3945 -6.6368,-10.0332 0.2361,-2.2504 -0.6678,-4.28984 -2.7793,-6.27344 -2.0314,-1.90845 -3.2973,-2.56352 -6.33,-2.5625 z" style="color:#000000;clip-rule:nonzero;display:inline;overflow:visible;visibility:visible;opacity:1;isolation:auto;mix-blend-mode:normal;color-interpolation:sRGB;color-interpolation-filters:linearRGB;solid-color:#000000;solid-opacity:1;fill:#d32f2f;fill-opacity:1;fill-rule:nonzero;stroke:none;stroke-width:1.87199998;stroke-linecap:butt;stroke-linejoin:miter;stroke-miterlimit:4;stroke-dasharray:none;stroke-dashoffset:0;stroke-opacity:1;color-rendering:auto;image-rendering:auto;shape-rendering:auto;text-rendering:auto;enable-background:accumulate"/> <path id="path4221" d="m 1444.5117,459.50586 2.916,3.38672 -3.2519,2.79687 c -0.3381,0.29077 -0.6412,0.61711 -0.9297,0.95899 l 161.6055,0 c -0.073,-0.0884 -0.1305,-0.16486 -0.2071,-0.25586 l -3.416,-4.06055 2.6524,-2.82617 -159.3692,0 z" style="fill:#b71c1c"/> <path id="rect4268" d="m 1398.0508,-9.7792969 0,497.3964869 96.6308,0.0137 5.0664,-4.24805 c 7.2635,-6.09031 8.3082,-14.87769 2.5782,-21.6875 l -4.1485,-4.92969 3.2129,-4.08593 c 2.0878,-2.65407 3.2149,-6.3432 3.2149,-10.52539 0,-7.37026 -2.4042,-10.1928 -27.8887,-32.76172 l -14.8086,-13.11524 0.4609,-10.09961 c 0.5933,-12.97007 -0.9731,-15.94566 -8.4101,-15.97656 -3.1564,-0.013 -6.6496,-0.60011 -7.7637,-1.30664 -2.2667,-1.43752 -9.1155,-25.38102 -11.3281,-39.60547 -5.0806,-32.66061 -7.4543,-63.38815 -7.1016,-91.91601 l 0.3731,-30.12305 6.1777,-0.5 c 3.3986,-0.27522 7.396,-1.59988 8.8828,-2.94336 3.7976,-3.43104 3.5756,-13.05476 -0.3847,-16.63867 -1.6993,-1.53788 -3.0899,-3.63781 -3.0899,-4.66602 0,-3.28831 -6.2993,-10.00976 -9.3808,-10.00976 -2.1623,0 -2.9786,-1.07836 -2.9786,-3.94141 0,-3.01185 1.1213,-4.33401 4.7461,-5.59766 6.686,-2.33065 8.7196,-8.28583 4.6914,-13.73437 l -3.0664,-4.15039 6.9785,-11.92383 c 23.2064,-39.643442 29.2558,-52.321116 34.4747,-72.246092 9.6562,-36.866037 11.2863,-50.840401 6.0449,-51.8320318 -1.3837,-0.2618709 -3.4857,0.4267814 -4.6719,1.5312498 -1.1861,1.104587 -5.0665,4.27816 -8.623,7.052735 l -6.4668,5.044921 -13.5137,-7.748046 C 1434.2011,7.0585733 1431.365,6.1818858 1427.5059,8.625 c -3.2849,2.079414 -6.0219,0.3599045 -7.0782,-4.4492188 -1.8396,-8.3764715 -10.5924,-13.8098571 -22.3769,-13.9550781 z" style="color:#000000;clip-rule:nonzero;display:inline;overflow:visible;visibility:visible;opacity:1;isolation:auto;mix-blend-mode:normal;color-interpolation:sRGB;color-interpolation-filters:linearRGB;solid-color:#000000;solid-opacity:1;fill:#c2185b;fill-opacity:1;fill-rule:nonzero;stroke:none;stroke-width:1.87199998;stroke-linecap:butt;stroke-linejoin:miter;stroke-miterlimit:4;stroke-dasharray:none;stroke-dashoffset:0;stroke-opacity:1;color-rendering:auto;image-rendering:auto;shape-rendering:auto;text-rendering:auto;enable-background:accumulate"/> <path id="path4216" d="m 1292.5566,459.50586 -1.8457,2.41992 c -1.1962,1.56839 -2.0921,3.14868 -2.7031,4.72266 l 217.1836,0 c -0.608,-1.71697 -1.5485,-3.38826 -2.8652,-4.95313 l -1.8418,-2.18945 -207.9278,0 z" style="fill:#880e4f"/> <path id="rect4253" d="m 998.08594,183.91406 c -0.35465,-0.005 -0.70996,-0.001 -1.06446,0.002 l 0,300.95117 0.26172,0 67.459,0 3.0254,-3.4375 c 3.7847,-4.3001 4.055,-10.6111 0.6035,-14.0625 -2.9958,-2.9958 -3.0383,-3.38944 -0.625,-5.80274 1.0814,-1.0814 1.875,-4.1353 1.875,-7.21484 0,-5.2279 -0.2984,-5.60779 -14.3203,-18.18359 l -14.3223,-12.84375 -0.3652,-8.28907 -0.3672,-8.29101 -4.5918,-0.38086 c -5.7551,-0.4791 -6.4491,-1.36514 -9.5176,-12.11914 -4.947,-17.3378 -8.5588,-45.09544 -9.7812,-75.18164 -0.9755,-24.0129 -0.546,-26.69336 4.289,-26.69336 4.5424,0 6.4766,-2.08061 6.4766,-6.97071 0,-4.6466 -2.4401,-7.12444 -6.457,-6.55664 -4.9069,0.6935 -4.1161,-3.19014 1.2656,-6.21484 17.1402,-9.6333 26.9977,-35.80156 20.6133,-54.72266 -2.5514,-7.5615 -10.62,-20.41716 -14.5977,-23.25976 -9.7766,-6.98695 -19.8447,-10.57776 -29.85936,-10.72852 z" style="color:#000000;clip-rule:nonzero;display:inline;overflow:visible;visibility:visible;opacity:1;isolation:auto;mix-blend-mode:normal;color-interpolation:sRGB;color-interpolation-filters:linearRGB;solid-color:#000000;solid-opacity:1;fill:#e64a19;fill-opacity:1;fill-rule:nonzero;stroke:none;stroke-width:1.87199998;stroke-linecap:butt;stroke-linejoin:miter;stroke-miterlimit:4;stroke-dasharray:none;stroke-dashoffset:0;stroke-opacity:1;color-rendering:auto;image-rendering:auto;shape-rendering:auto;text-rendering:auto;enable-background:accumulate"/> <path id="rect4258" d="m 1152.127,107.19727 c -5.1966,0.14902 -6.763,2.97513 -7.7149,11.25 l -0.8144,7.08007 -7.6348,0 -7.6348,0 -0.8027,-7.98046 c -0.4413,-4.38855 -1.4725,-8.58089 -2.291,-9.31641 -0.8184,-0.73551 -5.2675,-0.92285 -9.8867,-0.41797 l -8.3985,0.91797 -0.7637,8.39844 -0.7636,8.39843 -6.6016,0.47461 c -0.2729,0.0196 -0.5241,0.0276 -0.7851,0.041 l 0,359.08789 c 90.6668,-2e-4 94.8284,-0.12451 97.3086,-2.86524 1.4258,-1.57546 2.974,-5.22144 3.4414,-8.10156 0.6814,-4.19858 0.039,-6.19886 -3.2383,-10.09375 l -4.0879,-4.85742 3.1738,-4.45508 c 6.2065,-8.71611 3.3981,-17.13224 -9.2617,-27.75976 -13.7081,-11.50754 -24.922,-21.7044 -26.1992,-23.82422 -0.9561,-1.58695 0.6078,-2.02735 7.2011,-2.02735 10.0802,0 11.3297,-1.61794 10.3907,-13.45703 -0.5496,-6.93027 -1.194,-8.3226 -4.4141,-9.54687 -2.0732,-0.78828 -5.4081,-1.02063 -7.4121,-0.51758 -2.9499,0.7404 -4.2167,-0.0268 -6.6484,-4.02539 -3.6145,-5.94373 -11.4387,-28.28143 -13.6172,-38.87695 -0.8634,-4.19918 -2.4074,-11.75785 -3.4317,-16.79688 -4.3508,-21.40504 -7.9049,-75.46373 -6.3242,-96.17773 l 1.0469,-13.71875 5.8848,-0.95313 c 6.3547,-1.02918 8.5606,-3.24661 8.5976,-8.63672 0.022,-3.21117 -3.8319,-8.43546 -7.1797,-9.73437 -0.8116,-0.31493 -1.8899,-2.70102 -2.3965,-5.30274 l -0.9199,-4.73046 7.2969,0.70117 c 7.7131,0.74114 16.9309,-2.60254 17.0039,-6.16797 0.021,-1.02833 0.325,-15.29057 0.6758,-31.69531 0.3509,-16.40487 0.162,-30.55857 -0.4199,-31.45118 -0.5819,-0.89261 -4.2552,-2.05027 -8.1641,-2.57226 -1.6229,-0.21673 -3.0156,-0.32345 -4.2148,-0.28906 z" style="color:#000000;clip-rule:nonzero;display:inline;overflow:visible;visibility:visible;opacity:1;isolation:auto;mix-blend-mode:normal;color-interpolation:sRGB;color-interpolation-filters:linearRGB;solid-color:#000000;solid-opacity:1;fill:#6a1b9a;fill-opacity:1;fill-rule:nonzero;stroke:none;stroke-width:1.87199998;stroke-linecap:butt;stroke-linejoin:miter;stroke-miterlimit:4;stroke-dasharray:none;stroke-dashoffset:0;stroke-opacity:1;color-rendering:auto;image-rendering:auto;shape-rendering:auto;text-rendering:auto;enable-background:accumulate"/> <path id="rect4263" d="m 1229.3262,-63.777344 c -0.8224,0 -1.4033,0.0017 -2.1836,0.002 l 0,548.677734 c 51.583,0.45421 94.3543,0.97035 95.8535,1.16797 5.369,0.70757 13.1792,-3.83765 15.2715,-8.88867 2.4713,-5.96641 1.1772,-11.9359 -3.6328,-16.74609 l -3.5996,-3.59766 3.6621,-4.25977 c 3.9187,-4.55581 4.8848,-13.07625 2.0761,-18.32421 -0.8735,-1.63207 -10.7121,-11.12597 -21.8632,-21.09571 l -20.2754,-18.12695 0.5078,-11.0293 c 0.5867,-12.78711 -0.7373,-14.71264 -10.459,-15.20898 -3.476,-0.17746 -6.7437,-0.74371 -7.2598,-1.25977 -1.9624,-1.96233 -8.7612,-29.58068 -11.0136,-44.73437 -1.2926,-8.696 -3.0484,-20.43555 -3.9004,-26.08789 -0.8521,-5.65246 -2.3755,-28.27472 -3.3868,-50.27149 -2.1136,-45.97018 -1.8327,-47.75586 7.5352,-47.75586 7.4419,0 11.6211,-3.74371 11.6211,-10.4082 0,-3.63575 -1.1756,-6.09643 -3.9531,-8.28125 -2.1741,-1.71011 -3.9512,-4.52739 -3.9512,-6.25976 0,-2.05542 -1.9566,-4.0777 -5.6289,-5.82032 -4.6108,-2.18785 -5.5373,-3.41383 -5.1367,-6.7832 0.3139,-2.64106 2.1839,-5.04551 5.2304,-6.7207 5.657,-3.11071 6.8906,-8.52622 2.9356,-12.89649 -2.7517,-3.03961 -2.7503,-3.33461 0.035,-8.17187 1.589,-2.75957 5.0663,-8.93015 7.7286,-13.71289 2.6625,-4.78286 5.969,-10.58111 7.3476,-12.88672 16.1097,-26.940545 18.0931,-32.797429 13.6485,-40.318365 -3.6401,-6.159554 -16.8468,-12.042976 -31.3926,-13.986328 -8.3488,-1.115365 -8.362,-1.134399 -9.5801,-13.037109 -0.7995,-7.813376 -0.6225,-8.345598 3.0664,-9.271485 8.1636,-2.048969 8.582,-4.377314 8.582,-47.615234 0,-37.85791 -0.1667,-40.13356 -3.1621,-43.128906 -2.9509,-2.950949 -5.2704,-3.16211 -34.7226,-3.16211 z" style="color:#000000;clip-rule:nonzero;display:inline;overflow:visible;visibility:visible;opacity:1;isolation:auto;mix-blend-mode:normal;color-interpolation:sRGB;color-interpolation-filters:linearRGB;solid-color:#000000;solid-opacity:1;fill:#1976d2;fill-opacity:1;fill-rule:nonzero;stroke:none;stroke-width:1.87199998;stroke-linecap:butt;stroke-linejoin:miter;stroke-miterlimit:4;stroke-dasharray:none;stroke-dashoffset:0;stroke-opacity:1;color-rendering:auto;image-rendering:auto;shape-rendering:auto;text-rendering:auto;enable-background:accumulate"/> <path id="path4211" d="m 1124.1172,459.50586 c -0.1677,0.18215 -0.3101,0.34276 -0.5,0.54492 -1.8402,1.9589 -3.1295,4.21839 -3.8496,6.59766 l 218.9101,0 c -0.7855,-2.20461 -2.1314,-4.30133 -4.0429,-6.21289 l -0.9297,-0.92969 -209.5879,0 z" style="fill:#0d47a1"/> <path id="path4206" d="m 1002.668,459.50586 -2.5742,2.6875 c -1.21576,1.2689 -2.14904,2.80083 -2.81255,4.45508 l 200.21485,0 c -0.5058,-0.78688 -1.1465,-1.62411 -1.9492,-2.57813 l -3.8418,-4.56445 -189.0371,0 z" style="fill:#4a148c"/> <path id="path4201" d="m 925.85547,459.50586 c 0.31239,0.61861 0.68606,1.21523 1.13281,1.7832 2.14858,2.73143 2.28372,3.05906 0.45703,5.35938 l 140.22459,0 c -2.2545,-2.34122 -2.1225,-2.88528 0.076,-5.08399 0.4223,-0.42235 0.7991,-1.15052 1.1035,-2.05859 l -142.99413,0 z" style="fill:#d84315"/> </g> <rect style="color:#000000;clip-rule:nonzero;display:inline;overflow:visible;visibility:visible;opacity:1;isolation:auto;mix-blend-mode:normal;color-interpolation:sRGB;color-interpolation-filters:linearRGB;solid-color:#000000;solid-opacity:1;fill:#e91e63;fill-opacity:1;fill-rule:nonzero;stroke:none;stroke-width:1.87199998;stroke-linecap:butt;stroke-linejoin:miter;stroke-miterlimit:4;stroke-dasharray:none;stroke-dashoffset:0;stroke-opacity:1;color-rendering:auto;image-rendering:auto;shape-rendering:auto;text-rendering:auto;enable-background:accumulate" id="rect4210" width="915.19818" height="10.101525" x="919.23883" y="1009.9358" ry="1.2112499"/> </g> </svg>